<svg width="861" height="572" fill="none" xmlns="http://www.w3.org/2000/svg"><g clip-path="url(#clip0_34_24634)"><path d="M424.396 160.527c7.669-12.684 16.757-26.228 30.99-30.369 16.482-4.797 33.413 4.731 47.774 14.134a1391.948 1391.948 0 01123.894 91.283l-.044.493-92.451-6.376c-22.265-1.535-45.295-3.283-64.972-13.816-7.466-3.996-14.744-9.335-23.205-9.707-10.512-.463-19.677 6.879-26.88 14.549-42.608 45.371-54.937 114.754-102.738 154.616a1516.935 1516.935 0 01107.632-214.807z" fill="#F8FAFB"/><path d="M162.495 545.355c4.711-5.949 6.637-7.343 11.284-13.347a2042.123 2042.123 0 00106.708-151.793 2023.468 2023.468 0 0064.483-108.504 2010.699 2010.699 0 0028.3-52.969 2020.909 2020.909 0 0020.864-41.638 828.401 828.401 0 005.711-12.009c4.428-9.442 8.774-18.93 13.44-28.244 5.317-10.616 11.789-21.745 21.552-28.877a29.41 29.41 0 0115.319-5.895c7.948-.513 15.282 2.769 22.176 6.353 50.438 26.301 97.659 59.276 140.369 96.798a730.799 730.799 0 01114.042 126.591c1.008 1.439 3.392.064 2.374-1.384a720.29 720.29 0 00-12.257-16.813 734.8 734.8 0 00-187.599-174.986 725.53 725.53 0 00-37.183-22.542c-6.362-3.603-12.752-7.16-19.251-10.497-6.372-3.272-13.137-6.215-20.416-6.325-24.77-.385-37.595 27.667-46.405 46.542a1685.837 1685.837 0 01-8.406 17.767 2010.74 2010.74 0 01-33.388 66.628 2022.369 2022.369 0 01-21.836 40.519 2035.19 2035.19 0 01-73.779 122.897c-34.506 53.143-68.736 100.089-108.046 149.785-1.082 1.375.853 3.337 1.944 1.943zM615.15 191.378c1.439-1.604 2.869-3.209 4.317-4.813 11.423-12.632 23.679-25.118 39.365-32.36a57.105 57.105 0 0123.927-5.547c8.562.028 16.931 2.274 24.843 5.418 3.74 1.494 7.398 3.19 11 4.996 4.117 2.072 8.16 4.282 12.184 6.509a536.18 536.18 0 0164.914 42.307 520.037 520.037 0 0120.901 16.758 536.235 536.235 0 0118.646 16.492c1.302 1.201 3.246-.742 1.944-1.943a430.14 430.14 0 00-4.849-4.446 529.621 529.621 0 00-13.972-12.193 537.836 537.836 0 00-70.331-50.219 535.246 535.246 0 00-22.918-12.962 198.673 198.673 0 00-7.096-3.621 113.095 113.095 0 00-16.868-6.867 60.02 60.02 0 00-25.476-2.502 66.329 66.329 0 00-23.505 8.131c-15.401 8.608-27.346 21.919-38.97 34.909-1.174 1.32.761 3.273 1.944 1.953z" fill="#EDEDED"/><path d="M299.589 322.285l-36.905-13.498-18.323-6.702c-5.967-2.183-11.921-4.667-18.09-6.23a28.535 28.535 0 00-16.373.208 37.734 37.734 0 00-12.771 7.917 103.65 103.65 0 00-10.475 11.186c-3.99 4.795-7.92 9.639-11.868 14.467a7260.757 7260.757 0 00-96.483 120.598 7209.35 7209.35 0 00-53.145 68.75c-1.06 1.388-3.45.019-2.375-1.388a7234.746 7234.746 0 01157.785-199.337c3.479-4.241 6.92-8.527 10.736-12.474 7.005-7.245 15.758-13.648 26.234-13.822 6.16-.102 12.121 1.853 17.844 3.923 6.17 2.232 12.325 4.506 18.487 6.759l37.162 13.593 9.291 3.398c1.649.603.937 3.262-.731 2.652z" fill="#EDEDED"/><path d="M663.688 170.1c18.754-9.638 42.772-7.751 60.005 4.291a856.068 856.068 0 00-97.37 22.726c13.282-7.784 23.673-19.979 37.365-27.017zm60.19 4.258l3.61 2.935a53.69 53.69 0 00-3.795-2.902c.062-.01.123-.022.185-.033zM198.516 322.42c3.633-4.422 7.561-9.053 12.994-10.849l5.073.2A575.432 575.432 0 0163.316 486.992l135.2-164.572zm315.466-36.48a37.483 37.483 0 01-14.931 20.959c-2.821 1.92-6.157 3.762-7.122 7.035a8.374 8.374 0 00.874 6.15 24.888 24.888 0 003.861 5.041l.137.512c6.998-4.147 13.656-9.393 17.522-16.551 3.866-7.158 4.405-16.539-.341-23.146zm-233 203a37.483 37.483 0 01-14.931 20.959c-2.821 1.92-6.157 3.762-7.122 7.035a8.374 8.374 0 00.874 6.15 24.888 24.888 0 003.861 5.041l.137.512c6.998-4.147 13.656-9.393 17.522-16.551 3.866-7.158 4.405-16.539-.341-23.146zm465-14a37.483 37.483 0 01-14.931 20.959c-2.821 1.92-6.157 3.762-7.122 7.035a8.374 8.374 0 00.874 6.15 24.888 24.888 0 003.861 5.041l.136.512c6.999-4.147 13.657-9.393 17.523-16.551 3.866-7.158 4.405-16.539-.341-23.146z" fill="#F8FAFB"/><path d="M141.053 79.87c24.717-3.34 52.936 10.019 59.342 34.124a21.59 21.59 0 0121.317-13.955 21.593 21.593 0 0119.776 16.063l-2.829 2.027a372.292 372.292 0 01-160.66-.726c17.194-18.07 38.338-34.192 63.054-37.533z" fill="#F0F0F0"/><path d="M1.19 570.841l857.751.307a1.184 1.184 0 00.842-.349 1.189 1.189 0 00-.842-2.032l-857.75-.308a1.192 1.192 0 000 2.382z" fill="#C2C2C2"/></g><defs><clipPath id="clip0_34_24634"><path fill="#fff" transform="matrix(-1 0 0 1 860.131 0)" d="M0 0h860.131v571.148H0z"/></clipPath></defs></svg>