<svg width="402" height="441" fill="none" xmlns="http://www.w3.org/2000/svg"><g clip-path="url(#clip0_34_24647)"><path d="M279.145 89.47c-27.866-4.444-59.601-6.815-92.65-6.815-30.245 0-59.385 1.983-85.465 5.721.006-.4.012-.8.03-1.2a88.953 88.953 0 0127.185-61.397A89.104 89.104 0 01190.628.834a89.103 89.103 0 0162.073 25.705 88.953 88.953 0 0126.432 61.724c.006.406.012.806.012 1.206z" fill="#007DB6"/><path d="M201.768.801a89.163 89.163 0 00-36.931 2.777 89.113 89.113 0 00-32.61 17.542 89.038 89.038 0 00-22.654 29.274 88.949 88.949 0 00-8.782 35.95c-.019.4-.024.8-.03 1.2a524.495 524.495 0 0124.008-2.858 88.965 88.965 0 0123.324-55.848A89.102 89.102 0 01201.768.8z" fill="#fff" opacity=".1"/><path d="M318.106 96.529a358.97 358.97 0 00-38.973-8.266 564.331 564.331 0 00-64.998-6.241 678.16 678.16 0 00-49.619-.204 582.255 582.255 0 00-63.456 5.358 373.449 373.449 0 00-46.175 9.353C19.492 106.305 0 119.409 0 133.42c0 14.012 19.492 27.115 54.885 36.892 24.89 6.88 55.578 11.569 89.015 13.719 13.802.895 28.07 1.349 42.595 1.349 14.573 0 28.889-.46 42.733-1.355 30.431-1.965 58.585-6.033 82.147-11.945.126-.036.246-.066.371-.096 1.59-.394 3.156-.806 4.704-1.218.556-.155 1.106-.305 1.656-.454a.534.534 0 01.096-.03c.526-.143 1.046-.293 1.566-.436 1.04-.299 2.068-.591 3.078-.896.048-.012.09-.024.132-.036.878-.262 1.739-.525 2.594-.788.699-.221 1.393-.436 2.08-.657.502-.161.998-.322 1.488-.484.359-.119.712-.233 1.058-.352.473-.155.945-.317 1.411-.478.197-.066.395-.131.586-.203.448-.149.884-.305 1.321-.46.472-.167.944-.34 1.41-.507.389-.138.778-.281 1.16-.425.323-.125.64-.244.963-.364.878-.328 1.739-.669 2.588-1.003.424-.173.849-.341 1.267-.514a162.717 162.717 0 003.21-1.356c.311-.143.628-.28.932-.412l.694-.316c.167-.072.335-.149.496-.227.604-.275 1.201-.556 1.787-.836a92.575 92.575 0 006.294-3.297c12.224-6.994 18.674-14.752 18.674-22.815 0-14.011-19.493-27.115-54.885-36.891zm-.323 72.636c-24.919 6.886-55.691 11.575-89.219 13.707a665.343 665.343 0 01-42.069 1.314c-14.292 0-28.339-.442-41.931-1.308-33.581-2.126-64.401-6.815-89.357-13.713-34.83-9.627-54.012-22.319-54.012-35.745.002-1.186.151-2.368.443-3.517 3.048-12.113 21.8-23.448 53.57-32.228a373.154 373.154 0 0145.822-9.299 583.88 583.88 0 0163.839-5.375 682.553 682.553 0 0148.901.197 563.135 563.135 0 0165.375 6.271 358.196 358.196 0 0138.638 8.206c31.764 8.78 50.51 20.109 53.564 32.216.297 1.153.447 2.339.448 3.529 0 13.426-19.181 26.118-54.012 35.745z" fill="#424242"/><path d="M372.65 133.964c0 7.979-6.581 15.528-18.333 22.271a97.04 97.04 0 01-6.294 3.297c-.586.28-1.183.561-1.787.836-.161.077-.329.155-.496.227l-.694.316c-.304.132-.621.269-.932.412-.646.281-1.303.562-1.973.842a68.23 68.23 0 01-1.237.514c-.418.173-.843.34-1.267.514-.849.334-1.71.675-2.588 1.003-.323.119-.64.239-.963.364-.382.144-.771.287-1.159.424-.467.168-.939.341-1.411.508-.436.155-.873.311-1.321.46-.191.072-.389.137-.586.203-.466.161-.938.323-1.41.478-.347.119-.7.233-1.058.352-.491.161-.987.323-1.489.484-.687.221-1.381.436-2.08.657-.855.263-1.716.525-2.594.788a3.949 3.949 0 01-.132.036c-1.01.305-2.038.597-3.078.896-.52.143-1.04.293-1.566.436a.534.534 0 00-.096.03c-.55.149-1.1.298-1.655.454a447.665 447.665 0 01-5.075 1.314c-22.924 5.721-51.048 9.89-82.172 11.903a662.086 662.086 0 01-42.451 1.343c-14.735 0-29.069-.471-42.811-1.367C61.908 178.613.855 158.259.855 133.964c.006-1.479.232-2.948.67-4.36.035.101.071.197.113.298 8.53 22.385 69.063 40.476 147.606 44.889a660.577 660.577 0 0037.251 1.033c12.81 0 25.321-.358 37.401-1.039 78.478-4.431 138.951-22.528 147.451-44.895.144-.358.269-.716.377-1.075.606 1.65.919 3.392.926 5.149zm-317.856-6.429c-9.948 0-20.52-2.138-20.52-6.102 0-3.963 10.572-6.102 20.52-6.102s20.521 2.139 20.521 6.102c0 3.964-10.573 6.102-20.52 6.102zm0-11.009c-11.388 0-19.325 2.586-19.325 4.907s7.937 4.908 19.325 4.908c11.39 0 19.326-2.587 19.326-4.908s-7.937-4.907-19.326-4.907z" fill="#424242"/><path d="M97.234 155.605c-9.948 0-20.52-2.138-20.52-6.101 0-3.964 10.572-6.102 20.52-6.102s20.521 2.138 20.521 6.102c0 3.963-10.573 6.101-20.52 6.101zm0-11.009c-11.388 0-19.325 2.586-19.325 4.908 0 2.321 7.936 4.907 19.325 4.907s19.326-2.586 19.326-4.907c0-2.322-7.937-4.908-19.326-4.908zm220.567-17.061c-9.948 0-20.521-2.138-20.521-6.102 0-3.963 10.573-6.102 20.521-6.102s20.521 2.139 20.521 6.102c0 3.964-10.573 6.102-20.521 6.102zm0-11.009c-11.389 0-19.326 2.586-19.326 4.907s7.937 4.908 19.326 4.908c11.388 0 19.325-2.587 19.325-4.908s-7.937-4.907-19.325-4.907zm-42.44 39.079c-9.948 0-20.521-2.138-20.521-6.101 0-3.964 10.573-6.102 20.521-6.102s20.521 2.138 20.521 6.102c0 3.963-10.573 6.101-20.521 6.101zm0-11.009c-11.389 0-19.325 2.586-19.325 4.908 0 2.321 7.936 4.907 19.325 4.907s19.326-2.586 19.326-4.907c0-2.322-7.937-4.908-19.326-4.908zm-89.063 24.149c-9.948 0-20.521-2.139-20.521-6.102 0-3.964 10.573-6.102 20.521-6.102s20.521 2.138 20.521 6.102c0 3.963-10.573 6.102-20.521 6.102zm0-11.01c-11.389 0-19.326 2.587-19.326 4.908s7.937 4.907 19.326 4.907c11.388 0 19.325-2.586 19.325-4.907s-7.937-4.908-19.325-4.908zm15.128 136.536c13.869 0 25.112-11.234 25.112-25.091 0-13.858-11.243-25.092-25.112-25.092-13.87 0-25.113 11.234-25.113 25.092 0 13.857 11.243 25.091 25.113 25.091z" fill="#424242"/><path d="M191.876 285.665l-12.222 6.115 3.416 6.816 12.222-6.115-3.416-6.816z" fill="#424242"/><path d="M184.682 297.905c.724-1.099-1.064-3.555-3.996-5.486-2.931-1.931-5.895-2.606-6.62-1.508-.725 1.099 1.064 3.554 3.996 5.486 2.931 1.931 5.895 2.606 6.62 1.508zm26.293-12.24l-3.416 6.816 12.222 6.115 3.416-6.816-12.222-6.115z" fill="#424242"/><path d="M224.79 296.397c2.931-1.932 4.72-4.388 3.995-5.486-.725-1.098-3.689-.423-6.62 1.508s-4.72 4.387-3.995 5.486c.725 1.098 3.688.423 6.62-1.508z" fill="#424242"/><path d="M199.668 271.618c4.74 0 8.582-3.84 8.582-8.576 0-4.736-3.842-8.575-8.582-8.575s-8.583 3.839-8.583 8.575c0 4.736 3.843 8.576 8.583 8.576z" fill="#fff"/><path d="M201.755 261.398a2.855 2.855 0 00-.014-4.04c-1.121-1.119-2.931-1.126-4.043-.014a2.854 2.854 0 00.014 4.04c1.12 1.119 2.931 1.126 4.043.014z" fill="#424242"/><path d="M221.236 241.883c.378-9.289-7.635-17.158-17.897-17.574-10.261-.417-18.886 6.776-19.264 16.066-.378 9.289 6.755 11.399 17.017 11.816 10.262.416 19.766-1.019 20.144-10.308z" fill="#007DB6"/><path d="M235.711 282.318c1.652-1.416-.671-6.827-5.188-12.084-4.517-5.258-9.518-8.371-11.169-6.954-1.652 1.417.671 6.827 5.188 12.085 4.517 5.257 9.517 8.37 11.169 6.953zm-57.331-6.953c4.517-5.258 6.84-10.668 5.188-12.085-1.652-1.417-6.653 1.696-11.17 6.954-4.517 5.257-6.84 10.668-5.188 12.084 1.652 1.417 6.653-1.696 11.17-6.953z" fill="#424242"/><path d="M208.323 279.068a5.714 5.714 0 01-4.605 6.648 5.72 5.72 0 01-6.654-4.6l-.002-.011c-.563-3.107 1.841-4.207 4.951-4.769 3.109-.563 5.747-.375 6.31 2.732z" fill="#fff"/><path d="M158.999 295.87a1.195 1.195 0 01-1.195-1.194v-70.475a1.195 1.195 0 012.391 0v70.475a1.195 1.195 0 01-1.196 1.194zm-17.932 63.308a1.195 1.195 0 01-1.195-1.195v-51.362a1.195 1.195 0 012.391 0v51.362a1.195 1.195 0 01-1.196 1.195zm46.026-42.404a1.195 1.195 0 01-1.196-1.195v-70.474a1.195 1.195 0 012.391 0v70.474a1.195 1.195 0 01-1.195 1.195zm-17.335 50.765a1.195 1.195 0 01-1.195-1.194v-28.668a1.193 1.193 0 011.195-1.194 1.192 1.192 0 011.196 1.194v28.668a1.193 1.193 0 01-1.196 1.194zm24.508-146.921a1.2 1.2 0 01-1.196-1.195v-28.667a1.195 1.195 0 012.391 0v28.667a1.195 1.195 0 01-1.195 1.195zm-59.774 12.542a1.195 1.195 0 01-1.196-1.195v-28.667a1.195 1.195 0 012.391 0v28.667a1.195 1.195 0 01-1.195 1.195zm104.007 2.986a1.2 1.2 0 01-1.196-1.195v-28.667a1.195 1.195 0 012.391 0v28.667a1.195 1.195 0 01-1.195 1.195zm-2.391 89.586a1.194 1.194 0 01-1.195-1.194v-34.64a1.195 1.195 0 012.391 0v34.64a1.192 1.192 0 01-1.196 1.194zm-23.91 30.46a1.195 1.195 0 01-1.195-1.195v-51.363a1.195 1.195 0 012.391 0v51.363a1.195 1.195 0 01-1.196 1.195zm4.782-87.795a1.195 1.195 0 01-1.195-1.194v-70.475a1.195 1.195 0 012.391 0v70.475a1.195 1.195 0 01-1.196 1.194z" fill="#C2C2C2"/><path d="M363.542 418.363c1.711-1.432-.601-7.007-5.165-12.453-4.563-5.446-9.65-8.7-11.361-7.269-1.711 1.431.601 7.007 5.165 12.453s9.65 8.7 11.361 7.269z" fill="#424242"/><path d="M352.32 412.17c4.496-13.477-2.793-28.044-16.281-32.536-13.488-4.492-28.067 2.791-32.563 16.268-4.496 13.476 2.794 28.043 16.282 32.535 13.487 4.493 28.066-2.791 32.562-16.267z" fill="#424242"/><path d="M338.794 424.222h-7.82v14.001h7.82v-14.001zm-15.641 0h-7.82v14.001h7.82v-14.001z" fill="#424242"/><path d="M332.277 440.827c3.599 0 6.517-1.093 6.517-2.441 0-1.349-2.918-2.442-6.517-2.442s-6.517 1.093-6.517 2.442c0 1.348 2.918 2.441 6.517 2.441zm-15.641-.325c3.599 0 6.517-1.093 6.517-2.442 0-1.349-2.918-2.442-6.517-2.442s-6.517 1.093-6.517 2.442c0 1.349 2.918 2.442 6.517 2.442z" fill="#424242"/><path d="M319.815 371.703c2.299-9.25 12.446-14.693 22.663-12.158 10.218 2.535 16.638 12.089 14.339 21.338-2.298 9.25-9.924 9.28-20.142 6.744-10.218-2.535-19.158-6.675-16.86-15.924z" fill="#D53656"/><path d="M310.533 397.612c.956-2.015-3.476-6.115-9.898-9.159-6.423-3.044-12.406-3.878-13.362-1.864-.956 2.015 3.475 6.116 9.898 9.16 6.423 3.043 12.405 3.878 13.362 1.863z" fill="#424242"/><path d="M324.05 407.184c4.74 0 8.583-3.84 8.583-8.576 0-4.736-3.843-8.575-8.583-8.575s-8.583 3.839-8.583 8.575c0 4.736 3.843 8.576 8.583 8.576z" fill="#fff"/><path d="M320.523 398.393a2.86 2.86 0 100-5.717 2.86 2.86 0 100 5.717z" fill="#424242"/><path d="M323.976 420.097a3.586 3.586 0 003.587-3.584 3.585 3.585 0 00-3.587-3.583 3.584 3.584 0 100 7.167z" fill="#fff"/><path d="M401.402 441H260.335a.6.6 0 01-.598-.597.598.598 0 01.598-.598h141.067a.598.598 0 110 1.195z" fill="#E0E0E0"/></g><defs><clipPath id="clip0_34_24647"><path fill="#fff" d="M0 0h402v441H0z"/></clipPath></defs></svg>