<svg width="394" height="151" fill="none" xmlns="http://www.w3.org/2000/svg"><path d="M108.715 65.094a3.836 3.836 0 00-.971-1.52 3.64 3.64 0 00-.525-.405c-1.49-.99-3.716-1.213-5.132 0a3.323 3.323 0 00-.394.404 41.33 41.33 0 01-1.301 1.52 50.567 50.567 0 01-2.261 2.415c-.223.217-.445.439-.674.655a24.49 24.49 0 01-.394.382c-.502.478-1.016.94-1.535 1.395-.274.245-.548.484-.828.717a70.36 70.36 0 01-1.256 1.03c-.04.03-.08.058-.12.092-.011.006-.017.017-.028.023-.006 0-.012 0-.017.011a.102.102 0 00-.04.029c-.126.085-.212.142-.274.193.022-.011.045-.028.068-.04-.103.08-.211.16-.314.24-.999.734-2.02 1.44-3.065 2.1a56.678 56.678 0 01-8.118 4.3c-.188.074-.382.154-.576.228a49.185 49.185 0 01-23.32 3.428 44.049 44.049 0 01-2.432-.256 51.103 51.103 0 01-2.791-.49 56.004 56.004 0 01-10.287-3.098 67.77 67.77 0 01-11.794-6.901 106.33 106.33 0 00-1.724-1.202 292.771 292.771 0 001.93-4.829c.314-.78.616-1.56.913-2.346 2.335-6.053 4.527-12.163 6.628-18.296a516.04 516.04 0 006.01-18.747c.195-.638.383-1.275.566-1.913.988-3.32 1.935-6.648 2.843-9.983.085-.324.177-.643.257-.968.262-.956.52-1.913.77-2.87.571-2.158-.719-4.738-2.99-5.256a4.368 4.368 0 00-3.237.432 4.35 4.35 0 00-2.027 2.552c-.246.923-.491 1.84-.742 2.762a496.107 496.107 0 01-3.802 13.33l-.583 1.914A502.572 502.572 0 0124.2 58.198c-.21.558-.422 1.116-.639 1.674-.417 1.099-.845 2.198-1.273 3.297a192.67 192.67 0 01-.748 1.925c-.165.404-.325.808-.485 1.207a23.916 23.916 0 00-5.03-1.207l-.273-.034a15.677 15.677 0 00-4.002.034 13.674 13.674 0 00-5.597 1.943 13.636 13.636 0 00-4.244 4.127c-2.723 4.277-2.69 10.392 1.13 14.026 3.933 3.74 9.887 3.712 14.517 1.372a16.168 16.168 0 006.005-5.615 28.775 28.775 0 001.564-2.648c.12.08.24.16.36.245.457.319.913.644 1.364.963a63.8 63.8 0 008.283 5.073 61.968 61.968 0 0019.763 5.962c.154.017.303.04.457.057.76.097 1.524.171 2.29.234a59.367 59.367 0 0031.727-6.47 59.178 59.178 0 006.16-3.667 51.189 51.189 0 001.93-1.366 57.709 57.709 0 007.712-6.805c.896-.94 1.754-1.91 2.574-2.91A4.58 4.58 0 00109 66.597a4.294 4.294 0 00-.285-1.503zM14.187 78.658c.12-.085.24-.177.354-.268-.035.086-.2.183-.354.268zm1.832-1.84c-.131.149-.251.297-.382.445a13.337 13.337 0 01-1.487 1.418l-.002.001v.002l-.001.002a2.158 2.158 0 00-.24.126 9.685 9.685 0 01-.754.41 9.727 9.727 0 01-1.546.427 9.6 9.6 0 01-1.216.011h-.012a8.463 8.463 0 01-.828-.227 5.544 5.544 0 01-.4-.228 2.915 2.915 0 01-.125-.12 1.393 1.393 0 01-.16-.17c-.062-.115-.13-.229-.194-.342a5.493 5.493 0 01-.126-.45c-.012-.26-.01-.52.006-.78.077-.364.18-.722.309-1.071a6.3 6.3 0 01.394-.718c.011-.022.068-.113.13-.216.007-.006.007-.006.007-.011.085-.097.17-.2.262-.29.154-.172.32-.32.485-.473.322-.21.656-.403 1-.575a11.14 11.14 0 011.672-.45c.838-.067 1.68-.06 2.518.022.792.138 1.574.33 2.34.576a21.038 21.038 0 01-1.581 2.585 1.63 1.63 0 01-.069.097zm-6.348-1.873c-.05.08-.11.155-.177.222a.802.802 0 01.177-.222z" fill="#D53656"/><path d="M91 6.27l-.148 5.363a6576.82 6576.82 0 01-.323 11.91c-.115 4.468-.236 8.935-.362 13.4-.06 2.306-.122 4.612-.186 6.917-.17 6.211-.338 12.42-.504 18.628-.017.643-.039 1.28-.055 1.924l-.247 9.24a11078.322 11078.322 0 00-.476 17.545l-1.48 54.533a4.438 4.438 0 01-1.226 2.995A4.114 4.114 0 0183.11 150a4.066 4.066 0 01-2.897-1.261A4.388 4.388 0 0179 145.73c.274-10.224.552-20.449.833-30.673.246-9.246.497-18.491.75-27.737l.247-9.142c.126-4.589.25-9.177.373-13.766.016-.643.038-1.281.054-1.924.011-.564.028-1.122.044-1.685l.724-26.734c.098-3.507.193-7.016.285-10.527l.328-12c.05-1.76.093-3.513.143-5.272a4.44 4.44 0 011.226-2.995A4.116 4.116 0 0186.89 2a4.067 4.067 0 012.897 1.26A4.39 4.39 0 0191 6.27zm234.274 1.85a507.678 507.678 0 01-16.076 50.09c-1.716 4.525-3.472 9.042-5.349 13.505l.431-1.02a31.064 31.064 0 01-3.19 6.044c-.088.121-.177.242-.267.362.444-.566.528-.678.253-.335-.145.17-.288.343-.438.51a13.593 13.593 0 01-1.633 1.542l.535-.416c-.062.147-.498.34-.634.424-.44.264-.899.496-1.373.694l1.023-.431c-.777.312-1.588.534-2.416.661l1.139-.153a9.742 9.742 0 01-2.454.027l1.138.152a8.006 8.006 0 01-1.943-.522l1.022.43a6.859 6.859 0 01-.958-.51c-.155-.1-.631-.46-.008.014.647.493.083.043-.051-.089-.11-.109-.211-.228-.319-.339-.504-.515.569.887.227.284a10.306 10.306 0 01-.502-.932l.432 1.02a6.766 6.766 0 01-.416-1.51l.153 1.136a7.769 7.769 0 01-.002-1.94l-.153 1.136a9.12 9.12 0 01.568-2.096l-.431 1.02c.19-.452.415-.89.672-1.308.119-.217.258-.421.416-.61.028.009-.724.861-.325.43.104-.112.202-.23.308-.342.169-.18.35-.343.528-.512.596-.566-.834.55-.146.102a10.828 10.828 0 011.569-.854l-1.023.43a11.624 11.624 0 012.852-.762l-1.138.152a14.666 14.666 0 013.688.044l-1.138-.153c1.548.235 3.061.66 4.505 1.265l-1.023-.43c3.077 1.317 5.801 3.274 8.522 5.192a63.924 63.924 0 008.28 5.073 61.983 61.983 0 0019.764 5.966 59.456 59.456 0 0029.104-3.737 59.325 59.325 0 0023.749-17.196 4.592 4.592 0 001.254-3.02 4.342 4.342 0 00-1.254-3.021c-1.571-1.439-4.538-1.845-6.055 0a54.512 54.512 0 01-8.397 8.229c-.224.177-.924.648.15-.112-.246.174-.482.364-.725.543a56.69 56.69 0 01-11.607 6.587l1.023-.43a55.37 55.37 0 01-13.798 3.772l1.138-.153c-4.88.64-9.823.633-14.701-.022l1.138.153a57.076 57.076 0 01-14.19-3.856l1.023.43a66.243 66.243 0 01-12.408-7.171 49.647 49.647 0 00-6.344-3.984 24.492 24.492 0 00-8.242-2.5c-5.388-.632-10.879 1.462-13.841 6.107-2.726 4.274-2.691 10.39 1.127 14.025 3.932 3.744 9.886 3.712 14.52 1.37 4.462-2.255 7.143-6.94 9.028-11.358 4.242-9.942 7.997-20.113 11.496-30.337a506.603 506.603 0 0010.45-34.488c.571-2.158-.72-4.739-2.99-5.255a4.367 4.367 0 00-3.238.43 4.348 4.348 0 00-2.029 2.554z" fill="#D53656"/><path d="M368.097 6.27l-1.602 54.534-1.594 54.251L364 145.73a4.22 4.22 0 001.315 3.009 4.59 4.59 0 003.136 1.261 4.639 4.639 0 003.123-1.275 4.27 4.27 0 001.329-2.995l1.602-54.534 1.594-54.25L377 6.27a4.22 4.22 0 00-1.315-3.009A4.586 4.586 0 00372.549 2a4.637 4.637 0 00-3.123 1.275 4.27 4.27 0 00-1.329 2.995zM254.382 48.145c-4.889-9.544-12.464-17.574-21.372-23.475a64.842 64.842 0 00-29.851-10.447 55.98 55.98 0 00-4.202-.223c-1.659-.025-26.616 7.18-34.977 13.062a64.953 64.953 0 00-20.066 22.466 58.299 58.299 0 00-6.886 29.347 64.587 64.587 0 008.35 29.257 62.773 62.773 0 0020.697 22.022c8.711 5.562 17.461 20.311 27.745 20.832 10.362.524 22.18-13.388 31.63-17.613a59.315 59.315 0 0023.697-19.327 62.685 62.685 0 0011.13-27.82c1.462-10.278.781-20.878-2.726-30.701a63.737 63.737 0 00-3.169-7.38c-1.011-1.992-3.974-2.725-5.828-1.529a4.368 4.368 0 00-1.528 5.833 56.9 56.9 0 011.656 3.568l-.43-1.019a57.506 57.506 0 013.905 14.515l-.152-1.133a62.131 62.131 0 01-.037 16.302l.152-1.133a62.387 62.387 0 01-4.291 15.73l.43-1.02a59.222 59.222 0 01-3.789 7.445 56.861 56.861 0 01-2.317 3.537 66.842 66.842 0 01-1.102 1.495c-.486.646.663-.843.161-.21l-.257.324a53.24 53.24 0 01-8.142 8.186c-.266.215-.529.439-.806.639.01-.008.897-.682.372-.291l-.494.371a55.73 55.73 0 01-3.393 2.326 58.77 58.77 0 01-8.38 4.384l1.018-.43a62.016 62.016 0 01-15.673 4.292l1.132-.152a61.375 61.375 0 01-16.236.028l1.133.153a56.704 56.704 0 01-14.252-3.856l1.017.429a53.046 53.046 0 01-11.131-6.387l-.485-.367c-.52-.393.373.29.38.294a10.986 10.986 0 01-.872-.696 55.956 55.956 0 01-1.625-1.376 58.051 58.051 0 01-7.307-7.742c-.19-.242-.538-.733.229.301-.1-.136-.205-.269-.307-.405a60.968 60.968 0 01-3.103-4.532 62.247 62.247 0 01-4.433-8.587l.43 1.019a60.613 60.613 0 01-4.169-15.254l.152 1.133a55.656 55.656 0 01-.027-14.57l-.153 1.133a53.872 53.872 0 013.746-13.618l-.43 1.019a57.72 57.72 0 016.573-11.561c.198-.273.4-.543.603-.812.184-.243.69-.849-.173.22.084-.104.166-.212.249-.318a61.043 61.043 0 0110.148-10.133l.319-.249c-1.135.904-.315.246-.058.053a60.47 60.47 0 013.655-2.536 58.845 58.845 0 018.738-4.608l-1.017.43c4.407-1.852 23.932-6.223 27.483-5.746l-1.132-.152a60.324 60.324 0 0115.175 4.195l-1.018-.43a62.011 62.011 0 0112.864 7.386l.421.318c.591.443-.812-.641-.194-.151a62.944 62.944 0 015.888 5.259 57.133 57.133 0 013.909 4.406c.207.259.912 1.194.048.048.211.28.425.559.633.84a55.624 55.624 0 014.766 7.696c1.018 1.988 3.968 2.729 5.828 1.529a4.367 4.367 0 001.528-5.833zM88 150a6 6 0 100-12 6 6 0 000 12z" fill="#D53656"/><path d="M373 150a6 6 0 100-12 6 6 0 000 12zm-2.5-137a6.5 6.5 0 100-13 6.5 6.5 0 000 13zM109 64.515c-.004 1.668-.599 3.271-1.663 4.477-1.064 1.206-2.515 1.922-4.053 2-1.538.08-3.046-.485-4.21-1.577-1.164-1.091-1.897-2.626-2.046-4.286-.149-1.66.297-3.319 1.246-4.633.948-1.314 2.327-2.183 3.85-2.426 1.523-.244 3.075.156 4.333 1.117s2.128 2.41 2.428 4.046c.077.422.116.852.115 1.282zM234.5 31a6.5 6.5 0 100-13 6.5 6.5 0 000 13zM172 24.515c-.004 1.668-.599 3.271-1.663 4.477-1.064 1.206-2.515 1.922-4.053 2-1.538.08-3.046-.485-4.21-1.577-1.164-1.091-1.897-2.626-2.046-4.286-.149-1.66.297-3.319 1.246-4.633.948-1.314 2.327-2.183 3.85-2.426 1.523-.244 3.075.156 4.333 1.117 1.259.961 2.128 2.41 2.428 4.046.077.422.116.852.115 1.282zm-81-18c-.004 1.668-.6 3.271-1.663 4.477-1.064 1.205-2.515 1.922-4.053 2-1.538.08-3.046-.485-4.21-1.577-1.164-1.091-1.897-2.626-2.046-4.286-.149-1.66.297-3.319 1.246-4.633C81.222 1.182 82.6.313 84.124.07c1.523-.244 3.075.156 4.333 1.117 1.259.961 2.128 2.41 2.428 4.046.077.422.116.852.115 1.282zM201 27a9 9 0 009-9 9 9 0 00-9-9 9 9 0 00-9 9 9 9 0 009 9z" fill="#D53656"/></svg>