<svg width="24" height="24" fill="none" xmlns="http://www.w3.org/2000/svg"><path fill-rule="evenodd" clip-rule="evenodd" d="M12 3.75a8.25 8.25 0 100 16.5 8.25 8.25 0 000-16.5zM2.25 12c0-5.385 4.365-9.75 9.75-9.75s9.75 4.365 9.75 9.75-4.365 9.75-9.75 9.75S2.25 17.385 2.25 12z" fill="#fff"/><path fill-rule="evenodd" clip-rule="evenodd" d="M10.318 8.123a.75.75 0 011.059-.055l3.75 3.375a.75.75 0 010 1.114l-3.75 3.375a.75.75 0 11-1.004-1.114L13.503 12l-3.13-2.818a.75.75 0 01-.055-1.059z" fill="#fff"/></svg>