<svg width="560" height="560" fill="none" xmlns="http://www.w3.org/2000/svg"><g clip-path="url(#clip0_34_22752)"><path d="M560 280a279.538 279.538 0 01-16.518 94.985 280.362 280.362 0 01-44.543 79.568 278.477 278.477 0 01-18.118 20.561 279.195 279.195 0 01-20.088 18.746A278.547 278.547 0 01323.4 556.653h-.008a285.552 285.552 0 01-19.575 2.345c-7.845.662-15.784.996-23.817 1.002a279.12 279.12 0 01-200.399-84.456 263.958 263.958 0 01-5.41-5.699 284.025 284.025 0 01-12.765-14.837 285.225 285.225 0 01-6.718-8.731 278.921 278.921 0 01-33.335-58.8 275.135 275.135 0 01-9.692-27.205c-.2-.654-.39-1.309-.58-1.963a208.444 208.444 0 01-1.201-4.25A280.31 280.31 0 010 280C0 125.362 125.362 0 280 0s280 125.362 280 280z" fill="#F8FAFB"/><path d="M118.75 167.364a18.233 18.233 0 004.171 14.864 18.245 18.245 0 0014.075 6.345l44.696 130.054 28.519-19.6-55.054-130.256a18.345 18.345 0 00-36.407-1.407z" fill="#F7D7DD"/><path d="M352.034 211.368c-19.849 22.582-68.791 62.379-109.109 89.782-8.715 5.923-17.032 11.258-24.562 15.723-5.086 3.016-9.817 5.625-14.075 7.754a23.194 23.194 0 01-26.526-4.15 23.195 23.195 0 01-5.293-7.862l-27.917-67.539 9.659-6.404 23.817-15.798 5.409-3.578 22.334 53.192 23.552-18.905 14.621-11.738 66.653-53.49 5.749-1.707 13.412 13.089 9.485 9.262 8.922 1.549c1.334.232 2.626.505 3.869.82z" fill="#007DB6"/><path d="M530.111 396.94c1.383 1.757 2.817 3.505 4.25 5.261a277.714 277.714 0 01-16.618 29.425l-1.367-.97a1.726 1.726 0 01-.207-.132c-1.698-1.21-3.405-2.403-5.103-3.612v-.008a58.016 58.016 0 01-2.328-14.663 4.384 4.384 0 003.368-3.727 4.377 4.377 0 00-2.349-4.441c-.223-.389-.381-.671-.605-1.069.009-.099.025-.207.034-.306 1.3-10.347 14.488-13.959 20.925-5.758zm14.87-35.46c.994 2.734 1.9 5.498 2.717 8.293a305.254 305.254 0 01-1.731 4.953c-.224-.869-.456-1.739-.696-2.609a134.096 134.096 0 00-4.846-14.249 138.076 138.076 0 00-5.119-11.216 141.127 141.127 0 00-43.044-50.118 37.58 37.58 0 01-19.41-11.416 28.907 28.907 0 01-4.614-6.842 34.104 34.104 0 002.27-.415c.232-.049.472-.107.704-.157l.091-.017a4.345 4.345 0 003.279-3.389 4.347 4.347 0 00-1.746-4.381c-.423-.307-.854-.605-1.276-.903-.646-.472-1.301-.919-1.955-1.383a2.107 2.107 0 01-.199-.141c-.745-.53-1.491-1.044-2.228-1.582a12.589 12.589 0 012.891-4.938c4.631-4.78 12.898-4.672 18.299-.778 5.41 3.893 8.127 10.711 8.475 17.355.306 5.691-.92 11.324-2.535 16.816.406.298.828.58 1.234.887a141.905 141.905 0 0120.594 18.647c-3.603-8.549-4.912-19.7-3.976-27.379 1.069-8.748 5.318-17.057 8.798-25.332 4.166-9.941 18.382-10.074 22.391-.067.042.1.083.191.116.29a38.297 38.297 0 00-1.938 2.088 5.942 5.942 0 001.757 9.141 5.94 5.94 0 003.453.634l.125-.016c.516 2.953.81 5.941.878 8.938a60.893 60.893 0 01-18.954 44.899c-.398.373-.787.738-1.193 1.094a141.357 141.357 0 0110.314 17.123 142.825 142.825 0 017.074 16.17z" fill="#fff"/><path d="M385.361 283.77l-2.502 171.819-202.097-5.799 32.274-71.242c-.232-2.287 14.166-18.333 14.083-20.71-.248-6.967 4.954-13.42 5.799-20.71 1.723-15.036-8.143-71.815-3.595-83.545a79.666 79.666 0 017.406-14.977c2.584-3.91 5.235-6.545 7.77-7.497l7.472-17.413 6.627-9.941 51.999-15.4 5.749-1.707 13.412 13.089 9.485 9.262 8.922 1.549c1.334.232 2.626.505 3.869.82a39.29 39.29 0 0116.286 8.069c15.574 13.229 17.388 38.114 17.041 64.333z" fill="#007DB6"/><path d="M501.424 454.297a278.273 278.273 0 01-18.118 20.561l-21.853.016-117.525.133-21.158.025-14.066.016-20.925.017-16.096.016-29.732.034-17.537.024-36.93.034-17.628.024-48.851.05-30.684.033-8.235.009a264.253 264.253 0 01-5.41-5.7 283.614 283.614 0 01-12.765-14.837l17.049-.016 11.614-.008 26.89-.034 51.891-.049 17.537-.017 7.091-.008h.025l5.567-.008 2.494-.009 6.387-.008h2.7l18.937-.016 40.849-.05 17.976-.017 17.214-.016 16.138-.017 23.154-.025 123.663-.124 30.337-.033z" fill="#9E9E9E"/><path d="M221.818 196.312l-.045.004a9.049 9.049 0 01-9.849-8.172l-4.711-50.284a67.482 67.482 0 012.844-26.722 68.577 68.577 0 0132.498-39.425 67.53 67.53 0 0125.888-7.917c37.129-3.537 50.697 4.195 73.632 60.822 22.936 56.627 4.719 50.36 4.719 50.36a9.079 9.079 0 01-.384 3.595 9.21 9.21 0 01-4.378 5.296 9.093 9.093 0 01-3.462 1.058c-43.894 11.157-88.185 22.902-116.76 11.386l.008-.001z" fill="#424242"/><path d="M303.516 111.439a49.782 49.782 0 01-50.626 76.768 49.203 49.203 0 01-31.679-20.847A49.784 49.784 0 01243.1 93.661a49.784 49.784 0 0128.699-3.046 49.2 49.2 0 0131.717 20.826v-.002z" fill="#F7D7DD"/><path d="M191.647 143.444a53.418 53.418 0 012.25-21.134c.501-16.69 5.343-31.808 25.7-31.173a53.41 53.41 0 0120.338-6.241l10.06-.993.339-.033a53.298 53.298 0 0158.01 48.132l.094 1.007-21.283 2.08-9.159-19.601.452 20.457-10.992 1.079-4.619-9.89.225 10.315c-16.321 14.374-41.069 15.127-71.311 7.003l-.104-1.008z" fill="#424242"/><path d="M259.725 191.16a8.902 8.902 0 00.83 4.833 9.1 9.1 0 003.018 3.566 9.03 9.03 0 007.238 1.38c.131-.031.263-.064.395-.101l7.428-2.081 8.325-23.211 1.908 20.367 33.777-9.404-8.098-86.431-57.569 5.673 1.578 1.52a39.786 39.786 0 0110.796 18.653 64.873 64.873 0 011.643 22.004 116.951 116.951 0 01-4.123 22.026 172.474 172.474 0 01-6.507 18.749 9.083 9.083 0 00-.639 2.457zm7.677 272.505a6.679 6.679 0 01-2.861-.647l-159.484 4.069a6.695 6.695 0 01.952-12.463l104.339-31.111a6.687 6.687 0 013.327-.127l161.395 19.671a6.697 6.697 0 015.267 6.144 6.692 6.692 0 01-4.5 6.726l-106.25 7.37a6.718 6.718 0 01-2.185.368z" fill="#424242"/><path d="M273.267 452.561a4.22 4.22 0 01-2.057-.535l-129.524 6.051a4.2 4.2 0 011.063-7.742l46.891-11.381a4.207 4.207 0 012.218.065l120.411-.145a4.205 4.205 0 012.97 4 4.2 4.2 0 01-2.942 4.021l-37.777 5.475a4.194 4.194 0 01-1.253.191z" fill="#424242"/><path d="M259.633 445.655a18.238 18.238 0 0015.297 2.091 18.242 18.242 0 0011.424-10.386l137.096 10.769-6.627-33.964-141.406-1.348a18.349 18.349 0 00-22.477 9.409 18.342 18.342 0 006.693 23.429z" fill="#F7D7DD"/><path d="M340.611 224.464s20.71-16.568 45.562 13.255c16.76 20.112 49.09 141.693 51.771 192.075a23.195 23.195 0 01-6.511 17.373 23.173 23.173 0 01-17.169 7.032l-73.074-1.271-8.171-45.935 57.693.683-50.101-183.212z" fill="#007DB6"/><path d="M258.531 463.682a18.84 18.84 0 01-7.298-1.478l-147.822 3.373a18.786 18.786 0 01-11.309-20.364l-5.492-129.82a18.754 18.754 0 0119.828-15.801l137.235 5.692a18.84 18.84 0 0117.026 14.161 18.84 18.84 0 01.306 7.828l16.079 120.755a18.871 18.871 0 01-6.424 11.207 18.871 18.871 0 01-12.129 4.447z" fill="#424242"/><path d="M146.284 77.182l-61.691-.174a6.247 6.247 0 00-6.255 6.221l-.223 81.689a6.233 6.233 0 006.213 6.246l34.221.099 27.478.075a6.237 6.237 0 006.246-6.221l.017-4.83.215-76.85a6.245 6.245 0 00-6.221-6.255z" fill="#E0E0E0"/><path d="M141.935 82.063l-53.018-.149a5.85 5.85 0 00-5.857 5.824l-.15 52.52a26.047 26.047 0 0025.946 26.087l10.074.025 22.773.066a5.845 5.845 0 005.856-5.824l.017-5.285.182-67.407a5.841 5.841 0 00-5.823-5.857z" fill="#fff"/><path d="M135.978 117.945H94.641a2.476 2.476 0 00-2.292 1.532 2.481 2.481 0 002.292 3.43h41.337a2.48 2.48 0 100-4.962zm-32.249-13.601h-9.088a2.481 2.481 0 100 4.962h9.088a2.481 2.481 0 000-4.962zm32.249 35.414H94.641a2.478 2.478 0 00-2.48 2.481 2.48 2.48 0 002.48 2.481h41.337a2.481 2.481 0 100-4.962zm.001-10.899H94.641a2.475 2.475 0 00-2.477 2.477 2.479 2.479 0 002.477 2.477h41.338a2.48 2.48 0 001.751-.725 2.48 2.48 0 000-3.503 2.477 2.477 0 00-1.751-.726zm-8.033-15.741a14.675 14.675 0 01-10.378-25.054 14.68 14.68 0 0122.581 2.224 14.681 14.681 0 012.473 8.154 14.694 14.694 0 01-14.676 14.676zm0-28.332a13.657 13.657 0 1013.656 13.656 13.672 13.672 0 00-13.656-13.656z" fill="#D53656"/><path d="M133.373 91.451c0 .116-.062.192-.185.23a7.76 7.76 0 01-.881.27 45.33 45.33 0 01-.902.21 9.698 9.698 0 01-2.213.27c-.342 0-.684-.013-1.025-.039a31.2 31.2 0 01-1.004-.134c0 .064-.048.205-.144.422-.082.218-.191.48-.328.787-.137.295-.294.615-.471.96-.178.346-.349.672-.513.98-.164.306-.314.582-.451.825-.123.23-.211.39-.266.48a5.886 5.886 0 011.599-.423 12.35 12.35 0 011.68-.115c.492 0 .957.102 1.394.307.437.192.813.455 1.127.787.328.333.581.717.759 1.152.191.423.287.858.287 1.306 0 .486-.075.947-.226 1.382a5.61 5.61 0 01-.615 1.248 7.724 7.724 0 01-.86 1.133c-.328.358-.67.697-1.025 1.017a20.739 20.739 0 01-4.674 3.168c-.013.013-.047.019-.102.019a.26.26 0 01-.225-.115.317.317 0 01-.082-.211c0-.064.034-.128.102-.192.219-.154.437-.301.656-.442.232-.128.464-.269.697-.422a27.1 27.1 0 001.537-1.152 16.38 16.38 0 001.435-1.267c.273-.269.546-.557.82-.864a7.57 7.57 0 00.758-.998c.232-.346.417-.704.553-1.076.137-.371.205-.748.205-1.132 0-.461-.088-.851-.266-1.171a2.056 2.056 0 00-.697-.807 3.08 3.08 0 00-1.045-.48 4.833 4.833 0 00-1.251-.153c-.642 0-1.257.083-1.844.25a8.911 8.911 0 00-1.722.69.347.347 0 01-.143.039.465.465 0 01-.246-.096c-.096-.077-.144-.147-.144-.211 0-.077.048-.243.144-.5.109-.268.232-.55.369-.844a79.8 79.8 0 01.389-.864 19 19 0 01.287-.576c.232-.435.458-.864.676-1.286.233-.435.465-.877.697-1.325.069-.115.144-.275.226-.48a2.3 2.3 0 01.266-.46c.027-.039.103-.09.226-.154.123-.064.218-.109.287-.135.054 0 .102.007.143.02.055.012.102.025.143.038.397.077.793.14 1.189.192a9.447 9.447 0 002.029.038l.82-.115.369-.057.533-.116c.191-.038.362-.07.513-.096.164-.025.273-.038.328-.038.068 0 .136.045.204.134.069.077.103.141.103.192z" fill="#D53656"/></g><defs><clipPath id="clip0_34_22752"><path fill="#fff" d="M0 0h560v560H0z"/></clipPath></defs></svg>