<svg width="42" height="42" fill="none" xmlns="http://www.w3.org/2000/svg"><g clip-path="url(#clip0_717_1471)"><path d="M41.931 20.961c0 9.174-5.892 16.97-14.099 19.812a21.098 21.098 0 01-12.555.367C6.467 38.66.01 30.565.01 20.96.009 9.385 9.393 0 20.97 0c11.577 0 20.961 9.385 20.961 20.961z" fill="#EDEDED"/><path d="M6.68 25.899a.158.158 0 00-.065.213l7.881 14.761a.158.158 0 00.214.065l11.14-5.948a.158.158 0 00.065-.213l-7.88-14.761a.158.158 0 00-.214-.065L6.68 25.899z" fill="#424242"/><path d="M8.877 27.862l7.212 13.508 9.887-5.279-7.212-13.508-9.887 5.28zm-.627.335l.002-.001H8.25z" fill="#fff"/><path d="M11.37 29.347c-.154.082-.187.322-.073.534.113.212.33.318.484.236l7.241-3.866c.154-.082.186-.322.073-.534-.113-.212-.33-.318-.484-.236l-7.241 3.866zm.892 1.671c-.154.082-.187.322-.073.534.113.212.33.318.484.236l7.241-3.866c.154-.082.186-.321.073-.534-.113-.212-.33-.318-.484-.236l-7.241 3.866zm.892 1.672c-.153.081-.186.32-.073.533.113.212.33.318.484.236l7.241-3.866c.154-.082.187-.321.073-.534-.113-.212-.33-.318-.484-.236l-7.24 3.866zm.892 1.67c-.153.083-.186.322-.073.534.113.212.33.318.484.236l7.241-3.866c.154-.082.187-.321.073-.533-.113-.213-.33-.319-.483-.237l-7.242 3.867zm.892 1.672c-.153.082-.186.32-.073.533.114.212.33.318.484.236l7.242-3.866c.153-.082.186-.321.073-.533-.114-.212-.33-.319-.484-.237l-7.242 3.867z" fill="#007DB6"/><path d="M16.345 21.054l6.56.4 1.838-5.48-5.755-1.216-2.643 6.296z" fill="#424242"/><path d="M21.077 19.668a2.624 2.624 0 100-5.249 2.624 2.624 0 000 5.249z" fill="#F7D7DD"/><path d="M27.815 40.57l.017.203a21.097 21.097 0 01-10.285.871l-.974-.184.927-2.057.608-1.348-.219-4.664-.023-.483-.029-.615.396-.002 2.816-.017 2.683-.017.41-.003c2.565 3.156 4.682 5.72 3.673 8.315z" fill="#424242"/><path d="M24.103 32.215l-6.266.697-.232-4.332c-.735-1.875-.25-3.549 1.276-5.051l.31-1.228a1.817 1.817 0 011.344-1.323c1.025-.589 2.187-.869 3.49-.829a2.604 2.604 0 011.65 2.629c-.27 3.404-.754 6.59-1.572 9.438z" fill="#D53656"/><path d="M19.092 13.943s-1.357.495-1.392 2.296c-.002.303.038.604.12.896.088.33.159 1.049-.433 2.006a18.53 18.53 0 00-1.047 1.927l1.528.147.253-2.532c.122-1.229.425-2.432.898-3.572l.01-.023s.7 1.218 2.033 1.18l-.49-.462s1.67.629 2.576.755a.574.574 0 01.346.955l-.016.018c-.555.587-1.66 1.951-.963 2.979.695 1.028.132 1.33.132 1.33l1.03-.601.468-.299.011.38 2.466-.354s.664-.114-.81-1.692c0 0-.394-.617-.244-1.164.124-.415.147-.854.068-1.28-.37-1.776-1.725-5.287-6.544-2.89z" fill="#424242"/><path d="M19.613 25.366l.08-.499 2.63.078-.05.38-.8 6.04-.424.909-.139.297-3.948 8.944-1.777-.403.796-1.626 1.908-6.095.157-.503.188-.597.532-1.7.847-5.225z" fill="#F7D7DD"/><path d="M22.788 25.486c-1.216-.437-2.382-.483-3.48 0l.358-3.109a1.483 1.483 0 012.963-.128v.005l.159 3.232z" fill="#D53656"/></g><defs><clipPath id="clip0_717_1471"><path fill="#fff" d="M0 0h42v42H0z"/></clipPath></defs></svg>