<svg width="32" height="32" fill="none" xmlns="http://www.w3.org/2000/svg"><path opacity=".2" d="M5 10h6V6a1 1 0 00-1-1H6a1 1 0 00-1 1v4zm6 12h6V6a1 1 0 00-1-1h-4a1 1 0 00-1 1v16zm10.4.398l5.8-1.562 1.037 3.862a1 1 0 01-.712 1.225l-3.863 1.038a1 1 0 01-1.225-.7L21.4 22.398zm-3.1-11.601l5.8-1.55-1.038-3.863a1.012 1.012 0 00-1.225-.712l-3.862 1.037a1.013 1.013 0 00-.713 1.225l1.038 3.863z" fill="#007DB6"/><path d="M10 5H6a1 1 0 00-1 1v20a1 1 0 001 1h4a1 1 0 001-1V6a1 1 0 00-1-1zm-5 5h6m5-5h-4a1 1 0 00-1 1v20a1 1 0 001 1h4a1 1 0 001-1V6a1 1 0 00-1-1zm-5 17h6m4.83-17.318l-3.863 1.036a1 1 0 00-.707 1.224l5.176 19.319a1 1 0 001.225.707l3.864-1.035a1 1 0 00.707-1.225L23.055 5.39a1 1 0 00-1.224-.708zm-.43 17.716l5.8-1.562M18.3 10.8l5.8-1.55" stroke="#007DB6" stroke-width="2" stroke-linecap="round" stroke-linejoin="round"/></svg>