<svg width="32" height="32" fill="none" xmlns="http://www.w3.org/2000/svg"><path opacity=".2" d="M16 19.002a23.789 23.789 0 01-12-3.213v10.213a1 1 0 001 1h22a1 1 0 001-1V15.789a23.913 23.913 0 01-12 3.213z" fill="#007DB6"/><path d="M27 9H5a1 1 0 00-1 1v16a1 1 0 001 1h22a1 1 0 001-1V10a1 1 0 00-1-1zm-6 0V7a2 2 0 00-2-2h-6a2 2 0 00-2 2v2" stroke="#007DB6" stroke-width="2" stroke-linecap="round" stroke-linejoin="round"/><path d="M28 15.79a23.913 23.913 0 01-12 3.212 23.789 23.789 0 01-12-3.213M14.5 15h3" stroke="#007DB6" stroke-width="2" stroke-linecap="round" stroke-linejoin="round"/></svg>