<svg width="16" height="16" fill="none" xmlns="http://www.w3.org/2000/svg"><g opacity=".2"><mask id="a" fill="#fff"><path d="M9 13.5v-11a.5.5 0 00-.5-.5h-6a.5.5 0 00-.5.5v11"/></mask><path d="M9 13.5v-11a.5.5 0 00-.5-.5h-6a.5.5 0 00-.5.5v11" fill="#007DB6"/><path d="M8.5 2V1v1zM2 2.5H1h1zm8 11v-11H8v11h2zm0-11a1.5 1.5 0 00-.44-1.06L8.147 2.853A.5.5 0 018 2.5h2zm-.44-1.06A1.5 1.5 0 008.5 1v2a.5.5 0 01-.354-.146l1.415-1.415zM8.5 1h-6v2h6V1zm-6 0a1.5 1.5 0 00-1.06.44l1.414 1.414A.5.5 0 012.5 3V1zm-1.06.44A1.5 1.5 0 001 2.5h2a.5.5 0 01-.146.354L1.439 1.439zM1 2.5v11h2v-11H1z" fill="#007DB6" mask="url(#a)"/></g><path d="M1 13.5h14m-6 0v-11a.5.5 0 00-.5-.5h-6a.5.5 0 00-.5.5v11m12 0v-7a.5.5 0 00-.5-.5H9M4 4.5h2m-1 4h2M4 11h2m5 0h1m-1-2.5h1" stroke="#007DB6" stroke-linecap="round" stroke-linejoin="round"/></svg>