<svg width="106" height="120" fill="none" xmlns="http://www.w3.org/2000/svg"><g clip-path="url(#clip0_1_2594)"><path d="M68.17 88.849a1.312 1.312 0 001.837-1.644l.073-.361a3.524 3.524 0 015.925 2.756c-.162 3.955.033 8.223-2.595 11.412 11.996-9.805 17.466-26.507 13.802-41.529-1.797-2.505-2.636-5.833-1.83-8.85 1.012.985 2.984.72 2.683-.983-.162-.673-.33-1.344-.491-2.018 6.91-2.696 8.713 7.579.529 11.763a42.085 42.085 0 011.085 8.705 17.689 17.689 0 014.488-6.963c1.961-1.766 4.555-2.805 6.968-3.99 2.936-1.446 6.194 1.42 5.038 4.48-1.954-.25-3.337 2.087-1.564 3.343-3.115 5.232-9.088 8.558-15.157 8.611a42.242 42.242 0 01-5.512 16.93c3.877-5.897 11.38-4.2 17.309-4.45a2.045 2.045 0 012.297 2.105c-.015.397-.145.78-.375 1.104a11.79 11.79 0 00-2.336.095 1.783 1.783 0 00-.653 3.295c-5.201 4.77-13.261 5.795-19.587 2.751a43.428 43.428 0 01-6.296 6.432l-9.404-4.484c.016-.12.037-.243.056-.362.845.47 1.744.835 2.677 1.086-1.004-3.825-2.122-6.066 1.033-9.234zm-16.617-9.052a1.311 1.311 0 01-2.32-.83l-.204-.307a3.524 3.524 0 00-4.448 4.789c1.642 3.601 3.07 7.628 6.707 9.59-14.807-4.555-26.172-17.96-28.445-33.255.72-2.998.242-6.397-1.642-8.886-.566 1.293-2.492 1.792-2.855.101-.105-.684-.203-1.37-.307-2.054-7.416.11-5.211 10.306 3.946 11.093a42.071 42.071 0 002.279 8.472 17.687 17.687 0 00-6.783-4.755c-2.483-.896-5.276-.88-7.958-1.067-3.264-.231-5.201 3.653-2.977 6.05 1.716-.969 3.878.674 2.71 2.506C14.113 74.914 20.9 75.74 26.54 73.5a42.232 42.232 0 0011.49 13.6c-5.815-3.998-12.123.405-17.71 2.41a2.042 2.042 0 00-.57 3.696 11.795 11.795 0 012.2-.793 1.783 1.783 0 011.848 2.806c6.616 2.454 14.467.363 19.177-4.842a43.412 43.412 0 008.257 3.581l7.019-7.7c-.06-.106-.127-.211-.19-.314-.604.753-1.3 1.43-2.069 2.015-.513-3.921-.323-6.418-4.44-8.162z" fill="#D53656"/><path d="M53.36 47.257a1.311 1.311 0 00.608-2.389l-.141-.34a3.526 3.526 0 016.456-1.016c2.07 3.374 4.61 6.808 4.206 10.92 4.493-14.828-.277-31.744-11.692-42.171-2.889-1.078-5.44-3.373-6.452-6.326 1.388.253 2.878-1.066 1.678-2.312-.51-.47-1.023-.933-1.532-1.402 4.232-6.091 11.458 1.433 6.996 9.47 2.143 2 4.071 4.22 5.753 6.621a17.693 17.693 0 01-.155-8.282c.643-2.56 2.217-4.87 3.56-7.198 1.631-2.838 5.934-2.276 6.68.91-1.762.882-1.607 3.593.565 3.646.331 6.08-2.774 12.173-7.782 15.6a42.241 42.241 0 014.861 17.129c-.068-7.057 7.107-9.832 11.889-13.347a2.043 2.043 0 013.384 1.592 11.77 11.77 0 00-1.886 1.382 1.783 1.783 0 001.295 3.1c-1.66 6.86-7.779 12.205-14.726 13.206a43.431 43.431 0 01-1.642 8.85l-10.306 1.523c-.054-.11-.105-.223-.155-.333a11.84 11.84 0 002.827-.59c-2.965-2.617-5.142-3.853-4.29-8.243z" fill="#F8FAFB"/><path d="M63.725 43.956c-4.692 0-7.237-.573-8.126-1.798-.784-1.08-.258-2.505.35-4.155.438-1.186.934-2.53.934-3.86 0-6.471 3.28-9.752 9.75-9.752 3.22 0 6.676 1.71 9.246 4.575 2.337 2.604 3.5 5.721 3.194 8.551-.252 2.322-1.332 3.848-3.4 4.804l-.12.056-.035-.128a5.505 5.505 0 00-.89-1.848c-.04.87-.26 1.723-.645 2.505l-.022.045-.048.013c-2.34.667-5.117.848-7.275.93-1.05.041-2.021.062-2.913.062z" fill="#424242"/><path d="M65.004 52.967a3.512 3.512 0 00-5.467-1.65l-15.434 9.228-4.83-11.786a3.43 3.43 0 10-3.788 1.362c.298 3.399 1.952 18.59 7.707 18.038 4.837-.465 16.85-8.466 20.581-11.24a3.513 3.513 0 001.231-3.952z" fill="#F1BCC7"/><path d="M76.635 119.999H63.202l-2.253-11.14-.73 11.14H47.74a254.58 254.58 0 011.365-26.192l.155-.526.244-.843.155-.53 2.582-8.868.204-.704h15.549c.895.84 1.72 1.752 2.468 2.726.253.323.517.672.789 1.05.188.266.383.546.578.84a28.25 28.25 0 013.833 8.43v.001c.136.514.257 1.039.363 1.576v.003c.094.477.177.961.242 1.457a25.132 25.132 0 01-.072 7.243l.44 14.337z" fill="#424242"/><path d="M5.413 18.141c.873-.338 1.39-1.103 1.154-1.71-.235-.607-1.132-.826-2.005-.488-.872.338-1.389 1.104-1.154 1.71.235.608 1.133.826 2.005.488z" fill="#E0E0E0"/><path d="M16.397 16.727c.872-.338 1.39-1.104 1.154-1.71-.235-.607-1.132-.826-2.005-.488-.872.338-1.389 1.104-1.154 1.71.235.608 1.133.826 2.005.488z" fill="#424242"/><path d="M4.46 27.508c.873-.337 1.39-1.103 1.155-1.71-.235-.607-1.133-.825-2.005-.488-.873.338-1.39 1.104-1.154 1.71.235.608 1.132.826 2.005.488z" fill="#D53656"/><path d="M1.283 31.647c.4-.095.614-.638.478-1.214-.136-.575-.57-.965-.97-.87-.401.095-.615.638-.479 1.213.136.576.571.965.971.87z" fill="#E0E0E0"/><path d="M1.218 38.647c.4-.095.614-.638.478-1.214-.136-.575-.571-.965-.971-.87-.4.095-.615.638-.478 1.213.136.576.57.965.97.87z" fill="#424242"/><path d="M10.858 24.147c.4-.095.614-.638.478-1.214-.136-.575-.571-.965-.971-.87-.4.095-.614.638-.478 1.213.136.576.57.965.97.87z" fill="#E0E0E0"/><path d="M5.073 22.74c.4-.094.614-.638.478-1.213-.136-.576-.57-.965-.97-.87-.401.094-.615.638-.479 1.213.136.575.571.965.971.87z" fill="#D53656"/><path d="M11.205 16.303c.4-.095.614-.638.478-1.214-.136-.575-.571-.965-.972-.87-.4.095-.614.638-.478 1.213.136.576.571.966.972.87z" fill="#424242"/><path d="M14.056 64.744c.422-.496.187-1.389-.526-1.995-.712-.607-1.632-.697-2.053-.201-.422.495-.187 1.389.526 1.995.712.607 1.631.697 2.053.201z" fill="#E0E0E0"/><path d="M7.587 55.752c.422-.496.187-1.39-.526-1.996-.712-.606-1.631-.696-2.053-.2-.422.495-.186 1.389.526 1.995.712.607 1.632.697 2.053.2z" fill="#424242"/><path d="M22.75 61.119c.422-.496.187-1.389-.526-1.995-.712-.607-1.631-.697-2.053-.201-.422.495-.186 1.389.526 1.995.712.607 1.632.697 2.053.201z" fill="#D53656"/><path d="M27.07 61.219c.44-.394.576-.962.302-1.269-.273-.307-.853-.236-1.294.157-.441.394-.577.962-.303 1.269.274.307.854.236 1.295-.157z" fill="#E0E0E0"/><path d="M33.255 57.945c.44-.394.576-.961.302-1.268-.273-.307-.853-.237-1.294.157-.441.394-.577.962-.303 1.268.274.307.854.237 1.295-.157z" fill="#424242"/><path d="M15.918 56.367c.441-.394.577-.962.303-1.268-.274-.307-.853-.237-1.294.157-.441.394-.577.962-.303 1.268.274.307.853.237 1.294-.157z" fill="#E0E0E0"/><path d="M17.437 62.125c.441-.394.577-.962.303-1.269-.274-.306-.853-.236-1.294.158-.442.393-.577.961-.303 1.268.274.307.853.237 1.294-.157z" fill="#D53656"/><path d="M8.85 59.805c.442-.394.578-.962.304-1.269-.274-.307-.854-.236-1.295.157-.44.394-.576.962-.303 1.269.274.307.854.236 1.295-.157z" fill="#424242"/><path d="M57.515 7.09c.584-.287.722-1.2.31-2.04-.413-.84-1.221-1.287-1.805-1-.584.287-.723 1.2-.31 2.04.413.84 1.22 1.288 1.805 1z" fill="#E0E0E0"/><path d="M59.88 17.91c.584-.286.723-1.2.31-2.04-.413-.839-1.22-1.287-1.805-1-.584.288-.722 1.201-.31 2.04.413.84 1.221 1.288 1.805 1z" fill="#424242"/><path d="M48.096 6.958c.584-.287.723-1.2.31-2.04-.413-.84-1.22-1.288-1.805-1-.584.287-.722 1.2-.31 2.04.413.84 1.221 1.287 1.805 1z" fill="#D53656"/><path d="M43.146 3.53c.561-.186.911-.653.782-1.044-.13-.39-.69-.556-1.25-.37-.562.186-.912.654-.782 1.044.129.39.689.556 1.25.37z" fill="#E0E0E0"/><path d="M36.168 4.077c.562-.186.912-.653.782-1.044-.13-.39-.69-.556-1.25-.37-.562.186-.912.654-.782 1.044s.69.556 1.25.37z" fill="#424242"/><path d="M51.453 12.405c.56-.186.91-.653.781-1.044-.13-.39-.689-.556-1.25-.37-.561.186-.911.654-.782 1.044.13.39.69.556 1.25.37z" fill="#E0E0E0"/><path d="M52.345 6.522c.561-.186.911-.653.782-1.044-.13-.39-.69-.556-1.25-.37-.562.186-.912.654-.782 1.044s.689.556 1.25.37z" fill="#D53656"/><path d="M59.302 12.07c.56-.187.91-.654.781-1.045-.129-.39-.689-.556-1.25-.37-.561.186-.911.654-.782 1.044.13.39.69.556 1.25.37z" fill="#424242"/><path d="M61.456 45.756l7.4-.381 3.438 5.432s6.467 1.082 6.019 8.704c-.449 7.622-7.87 14.31-7.87 14.31l.318 3.97-.55 1.574.07.884.751.936.078.969-.666 1.532.905 1.466-19.037-1.844-.696-2.537 1.015-1.362-.567-1.776.853-1.71.445-5.427s-4.865-7.31.72-12.816l2.24-3.81 2.509-3.061 2.625-5.053z" fill="#007DB6"/><path d="M65.135 44.217a7.842 7.842 0 007.841-7.843 7.842 7.842 0 10-15.682 0 7.842 7.842 0 007.84 7.843z" fill="#F1BCC7"/><path d="M64.085 35.9c-.676 0-1.351-.02-2.026-.058l-.12-.006.015-.12c.1-.749.044-1.51-.164-2.236a6.321 6.321 0 01-1.54 2.176l-.038.035-.05-.006c-1.834-.2-3.65-.532-5.436-.992l-.069-.017-.013-.07a10.267 10.267 0 01-.206-1.99c0-2.088.756-3.846 2.131-4.949 1.496-1.2 3.641-1.57 6.042-1.04h7.676a3.187 3.187 0 013.182 3.183v4.862l-.083.021a36.716 36.716 0 01-9.301 1.207z" fill="#424242"/><path d="M10.579 27.173a1.381 1.381 0 00-.824 1.77l8.28 22.724a1.381 1.381 0 001.77.824l32.138-11.714a1.381 1.381 0 00.824-1.77l-8.28-22.725a1.382 1.382 0 00-1.77-.824L10.58 27.173z" fill="#C2C2C2"/><path d="M39.982 43.89L20.31 51.06a1.487 1.487 0 01-1.904-.887l-7.51-20.61a1.488 1.488 0 01.886-1.905l30.323-11.053a1.486 1.486 0 011.904.887l3.629 9.96a12.84 12.84 0 01-7.656 16.438z" fill="#fff"/><path d="M25.827 29l-4.675 1.704a.474.474 0 11-.325-.893l4.674-1.704a.475.475 0 11.326.893zm11.144-1.992L21.819 32.53a.477.477 0 01-.61-.283.475.475 0 01.284-.61l15.154-5.523a.475.475 0 11.325.893zm.764 2.093l-15.154 5.524a.474.474 0 11-.325-.893l15.154-5.524a.475.475 0 01.325.893zm.765 2.094L23.344 36.72a.477.477 0 01-.593-.647.475.475 0 01.268-.246l15.154-5.524a.474.474 0 11.325.893zm.763 2.102L24.109 38.82a.475.475 0 11-.325-.892l15.154-5.524a.476.476 0 01.325.893z" fill="#007DB6"/><path d="M87.346 39.118L79.05 58.976a3.474 3.474 0 11-6.35-2.816l9.251-20.364 5.1-12.61a3.032 3.032 0 014.09-4.468 3.031 3.031 0 01-.215 4.807l-3.58 15.593z" fill="#F1BCC7"/></g><defs><clipPath id="clip0_1_2594"><path fill="#fff" d="M0 0h105.979v120H0z"/></clipPath></defs></svg>