<svg width="161" height="140" fill="none" xmlns="http://www.w3.org/2000/svg"><g clip-path="url(#clip0_1_2759)"><path d="M40.56 133.459a.868.868 0 01-.628-1.502l.059-.236a2.33 2.33 0 00-2.143-1.474 2.326 2.326 0 00-2.17 1.434c-1.028 2.402-2.356 4.89-1.696 7.537-4.364-9.25-2.88-20.756 3.57-28.667 1.783-.982 3.228-2.727 3.604-4.753-.882.299-1.982-.419-1.319-1.348l.866-1.063c-3.352-3.57-7.346 2.041-3.656 6.859a27.774 27.774 0 00-3.12 4.878c.2-1.837-.038-3.696-.697-5.423-.667-1.61-1.918-2.966-3.019-4.357-1.34-1.696-4.095-.914-4.275 1.238 1.235.406 1.396 2.191-.018 2.436.37 4.003 2.986 7.681 6.588 9.437a27.879 27.879 0 00-1.524 11.653c-.636-4.614-5.59-5.734-9.052-7.568a1.345 1.345 0 00-1.474.011 1.349 1.349 0 00-.583 1.355c.478.194.936.435 1.366.72a1.18 1.18 0 01.108 1.872 1.171 1.171 0 01-.655.277c1.745 4.32 6.257 7.22 10.892 7.204a28.681 28.681 0 001.925 5.621h6.878c.025-.077.047-.156.07-.232a7.832 7.832 0 01-1.904-.113c1.684-1.995 2.987-3.012 2.007-5.796zm61.32 0a.868.868 0 00.886-1.05.869.869 0 00-.259-.452l-.059-.236a2.33 2.33 0 012.143-1.474 2.319 2.319 0 012.171 1.434c1.027 2.402 2.355 4.89 1.695 7.537 4.364-9.25 2.88-20.756-3.57-28.667-1.783-.982-3.228-2.727-3.604-4.753.882.299 1.982-.419 1.319-1.348l-.866-1.063c3.352-3.57 7.346 2.041 3.656 6.859a27.785 27.785 0 013.12 4.878 11.656 11.656 0 01.697-5.423c.667-1.61 1.918-2.966 3.019-4.357 1.339-1.696 4.095-.914 4.275 1.238-1.235.406-1.396 2.191.018 2.436-.371 4.003-2.986 7.681-6.588 9.437a27.864 27.864 0 011.524 11.653c.636-4.614 5.589-5.734 9.052-7.568a1.343 1.343 0 011.474.011 1.353 1.353 0 01.583 1.355 7.744 7.744 0 00-1.366.72 1.18 1.18 0 00-.108 1.872c.184.158.413.255.655.277-1.745 4.32-6.257 7.22-10.892 7.204a28.634 28.634 0 01-1.925 5.621h-6.878c-.025-.077-.047-.156-.069-.232.637.04 1.276.002 1.903-.113-1.684-1.995-2.987-3.012-2.006-5.796z" fill="#F8FAFB"/><path d="M104.43 134.48l-2.962.674-4.01-11.105 4.372-.994 2.6 11.425z" fill="#F1BCC7"/><path d="M105.237 137.544l-9.108 2.072-.027-.115a3.636 3.636 0 012.739-4.352l1.377-1.641 3.391.556.796-.181.832 3.661z" fill="#424242"/><path d="M152.213 80.352l1.629 2.564-9.117 7.502-2.403-3.785 9.891-6.281z" fill="#F1BCC7"/><path d="M154.831 78.563l5.008 7.885-.099.064a3.638 3.638 0 01-5.019-1.12l-2.008-.747-.614-3.382-.437-.688 3.169-2.013z" fill="#424242"/><path d="M57.792 52.934l-.732-4.24 11.123-5.023 2.402-4.253a2.07 2.07 0 012.872-2.307 2.069 2.069 0 01.182 3.68L69.688 46.9l-11.896 6.034z" fill="#F1BCC7"/><path d="M54.411 49.465l5.009-2.559 1.326 4.979-3.48 2.579-2.855-5z" fill="#D53656"/><path d="M43.171 134.096H46.2l1.44-11.682h-4.47l.001 11.682z" fill="#F1BCC7"/><path d="M47.208 134.366v-2.054l-.796.049-3.241.192-.75.046-.574 6.877-.03.368h2.15l.069-.366.312-1.664.807 1.664.176.366h5.702a1.288 1.288 0 001.28-1.282c.24-1.124-4.5-3.554-5.105-4.196z" fill="#424242"/><path d="M7.221 87.734l-.706 2.946 11.024 4.124 1.042-4.346-11.36-2.724z" fill="#F1BCC7"/><path d="M6.254 91.598l1.997.48.138-.787.57-3.196.13-.74-6.554-2.161-.351-.116-.501 2.091.34.153 1.545.692-1.806.396-.398.086L.035 94.04a1.288 1.288 0 00.949 1.544c1.037.496 4.505-3.548 5.27-3.986z" fill="#424242"/><path d="M47.854 58.486l-3.898-1.822-7.774 9.408-4.735 1.197a2.068 2.068 0 10.52 3.308l6.934-2.204 8.953-9.887z" fill="#F1BCC7"/><path d="M103.12 23.66a4.179 4.179 0 110-8.357 4.179 4.179 0 010 8.357zm0-7.876a3.697 3.697 0 100 7.395 3.697 3.697 0 000-7.395z" fill="#E0E0E0"/><path d="M102.826 21.06h-.026a.514.514 0 01-.381-.199l-.659-.846a.526.526 0 01-.104-.38.516.516 0 01.195-.343l.023-.018a.524.524 0 01.381-.105.516.516 0 01.343.195.372.372 0 00.436.118.378.378 0 00.133-.09l1.336-1.411a.516.516 0 01.729-.02l.022.021a.523.523 0 01.16.36.504.504 0 01-.141.368l-2.074 2.19a.515.515 0 01-.373.16zM82.264 74.246a4.178 4.178 0 110-8.355 4.178 4.178 0 010 8.355zm0-7.876a3.698 3.698 0 100 7.396 3.698 3.698 0 000-7.396z" fill="#E0E0E0"/><path d="M81.97 71.638a.53.53 0 01-.238-.058.514.514 0 01-.17-.14l-.657-.847a.515.515 0 01.09-.723l.023-.018a.514.514 0 01.724.09.377.377 0 00.569.028l1.336-1.41a.516.516 0 01.729-.02l.022.02a.517.517 0 01.02.729l-2.075 2.189a.513.513 0 01-.373.16zM36.477 17.91a4.179 4.179 0 110-8.357 4.179 4.179 0 010 8.357zm0-7.876a3.699 3.699 0 100 7.398 3.699 3.699 0 000-7.398z" fill="#E0E0E0"/><path d="M36.181 15.31a.53.53 0 01-.237-.058.515.515 0 01-.17-.14l-.658-.847a.515.515 0 01.09-.723l.024-.018a.516.516 0 01.724.09.375.375 0 00.569.028l1.336-1.411a.516.516 0 01.729-.02l.021.021a.516.516 0 01.02.729l-2.074 2.188a.515.515 0 01-.373.161z" fill="#E0E0E0"/><path d="M69.925 89.777c-9.688 0-20.822-10.751-30.673-5.643C9.426 99.6 13.532 73.72 4.963 64.096l.282-.565c9.454 8.478 21.258 15.375 34.136 19.947 11.638 4.131 23.363 6.046 33.903 5.54l.019.678a69.84 69.84 0 01-3.378.08z" fill="#F8FAFB"/><path d="M56.635 17.095c1.118 0 2.025-1.216 2.025-2.715 0-1.5-.907-2.716-2.025-2.716-1.118 0-2.025 1.216-2.025 2.716 0 1.5.907 2.715 2.025 2.715zm23.389 42.361c-.925.617-1.873-.85-.93-1.44.926-.617 1.874.85.93 1.44z" fill="#E0E0E0"/><path d="M74.696 10.024a2.637 2.637 0 100-5.274 2.637 2.637 0 000 5.274z" fill="#D53656"/><path opacity=".3" d="M83.92 21.84l15.004-43.824-16.476 43.3a.825.825 0 101.471.524z" fill="#F8FAFB"/><path d="M68.773 75.233a2.566 2.566 0 100-5.131 2.566 2.566 0 000 5.13z" fill="#F8FAFB"/><path d="M43.924 73.64s-6.396 4.165-4.705 6.933c.059.096-7.64 10.263-7.64 10.263l-14.532-.923-.512 4.865 12.938 3.747s3.165 2.325 5.61-.237c2.445-2.562 10.59-10.408 10.59-10.408l.392 15.84-4.088 21.95 6.105-.387 5.941-22.021 2.194-24.945-12.293-4.676z" fill="#424242"/><path d="M48.48 48.646l-2.69 2.038-3.066 6.543 2.948 4.004s2.48 4.297-1.49 8.46c-3.968 4.16-7.016 8.606-3.84 8.447 3.178-.159 16.044 6.386 16.13 1.024.084-5.361.255-9.472.255-9.472l3.373-8.556s2.01-5.104.6-6.632c-1.412-1.528-3.301-3.48-3.301-3.48l-3.436-3.436h-3.102l-2.381 1.06z" fill="#D53656"/><path d="M53.501 36.074c6.034 3.433 1.08 12.493-5.066 9.267-6.034-3.434-1.08-12.493 5.066-9.267z" fill="#F1BCC7"/><path d="M56.727 37.984c-.423.55-1.306.292-3.036.684a7.215 7.215 0 00-.202-1.74 4.9 4.9 0 01-.826 1.959c-1.502.166.34 4.73-.43 8.084-.99-7.077-3.075-5.223-2.022-3.82.674.9.225 3.596-1.797 2.248-3.337 1.585-8.089-6.292-2.822-9.986-.094-1.997 2.128-2.312 3.496-1.698 3.32-2.474 7.114.696 7.64 4.269z" fill="#424242"/><path d="M41.245 32.813c-1.343 8.26-8.543-1.519-11.929 6.61-1.064 2.943.762 5.049 1.917 7.492.264 2.008-2.348 3.027-2.622 4.875-.076 4.238 6.76 3.978 8.671 1.305 1.964-2.799-.38-6.554.8-9.557 1.658-4.171 8.405-4.202 8.993-9.054-1.138-1.621-4.2-3.478-5.83-1.67z" fill="#424242"/><path d="M46.688 33.623a1.612 1.612 0 00-.128.058h-.002a1.967 1.967 0 00-.111.058l-.012.007a6.71 6.71 0 00-.148-.14.535.535 0 00.01.227l.007.028c.046.049.094.095.145.144.047-.035.09-.072.137-.107l.085-.07.019-.205h-.002zm1.392-2.572c-1.032-.236-1.365 1.112-1.464 1.762-.375-2.359-1.934-1.617-1.395-.007.172.477.442.912.793 1.277.049.056.102.111.158.167-.063.324.252.24.677-.058.315-.224.605-.478.868-.761.849-.89 1.51-2.082.363-2.38zm.032 1.328c-.318.41-.675.789-1.066 1.13a8.09 8.09 0 01-.375.32l-.004.055a.421.421 0 01-.033.065c-.13.234-.275.107-.33-.088l-.017-.02a3.264 3.264 0 01-.478-.634c-.956-1.657.582-2.783.506.31a.295.295 0 00-.028.09.535.535 0 00.01.226l.007.028c.046.049.094.095.145.144.047-.035.09-.072.137-.107l.085-.07.019-.205v-.002c.06-.62.224-1.735.527-2.038.666-.511 1.53.042.895.796zm-1.425 1.244a1.612 1.612 0 00-.127.058h-.002a1.967 1.967 0 00-.111.058l-.012.007a6.71 6.71 0 00-.148-.14.535.535 0 00.01.227l.007.028c.046.049.094.095.145.144.047-.035.09-.072.137-.107l.085-.07.019-.205h-.002zm55.771 45.536l-2.229 5.811-10.454 20.622 9.186 23.988 4.741-1.251-3.907-22.737 11.21-13.622 13.314 9.03s5.904 4.61 8.15.24c2.247-4.37 16.781-13.664 16.781-13.664l-3.596-3.836-16.737 7.833-11.552-16.26-14.907 3.846z" fill="#424242"/><path d="M113.703 51.745l-3.668-3.942-6.293-.865-7.71 5.397.077 5.975 3.811 14.08s-1.452 10.115 2.603 10.014c4.055-.102 6.266-2.124 7.917-1.712 1.652.412 8.673 2.163 9.118.328.445-1.834 2.81-.52 2.706-2.256-.104-1.736-6.403-14.246-6.403-14.246l1.567-12.512-3.726-.26z" fill="#007DB6"/><path d="M136.93 33.603a2.237 2.237 0 01-.628 1.794 2.252 2.252 0 01-1.779.67l-8.436 16.045-2.265-3.477 8.623-15.142a2.257 2.257 0 013.777-1.33c.405.377.656.889.708 1.44z" fill="#F1BCC7"/><path d="M110.372 54.727s-.334 2.854 2.878 3.56c3.213.707 12.114-4.379 13.574-5.156.457-.243 1.077-1.435 1.713-2.959.285-.683.574-1.434.853-2.195.162-.44.934-.56 1.086-.998.151-.434-.318-1.185-.181-1.595.65-1.944 1.111-3.486 1.111-3.486l-2.13-4c-2.978 1.575-4.506 5.043-5.629 9.038l-13.275 7.791z" fill="#007DB6"/><path d="M72.85 37.29a2.247 2.247 0 002.948 1.784l12.183 13.422 1.323-3.933L77.166 36.06a2.26 2.26 0 00-4.316 1.23z" fill="#F1BCC7"/><path d="M103.85 51.094s1.039 2.679-1.895 4.167-12.825-1.209-14.432-1.596c-.503-.12-1.402-1.12-2.4-2.435a53.705 53.705 0 01-1.375-1.912c-.266-.387-1.044-.31-1.3-.695-.256-.382.01-1.227-.225-1.59-1.115-1.718-1.947-3.096-1.947-3.096l1.06-4.406c3.278.78 5.625 3.755 7.712 7.342l14.802 4.22z" fill="#007DB6"/><path d="M107.013 45.936a5.988 5.988 0 100-11.976 5.988 5.988 0 000 11.976z" fill="#F1BCC7"/><path d="M113.848 36.522c-.63-.974-1.812-1.624-2.957-1.441a4.039 4.039 0 00-6.767-2.356 1.258 1.258 0 00-1.228-.123c-.395.18-.738.455-.998.801a5.815 5.815 0 00-.813 5.913c-.14-.51.37-.988.885-1.103.516-.114 1.056-.006 1.579-.08.67-.096 1.272-.484 1.943-.572a4.423 4.423 0 011.681.216 4.54 4.54 0 001.68.226c.565-.067 1.292 2.073 1.283 3.58-.002.286.057.653.336.714.344.074.543-.4.87-.53a.604.604 0 01.743.395.986.986 0 01-.189.884c-.201.241-.44.449-.707.614l.135.112a.803.803 0 001.012.125c.309-.209.559-.494.727-.827a9.729 9.729 0 001.333-3.195c.211-1.14.082-2.379-.548-3.353z" fill="#424242"/><path d="M158.143 60.133c-7.723 5.85-23.089 4.001-27.858 14.02-14.438 30.337-26.79 7.228-39.432 4.73l-.116-.62c12.655 1.05 26.229-.58 39.255-4.71 11.772-3.733 22.274-9.286 30.372-16.053l.424.53a69.944 69.944 0 01-2.645 2.103z" fill="#F8FAFB"/><path d="M125.491 139.588c-.184.545-105.202.545-105.4.001.183-.546 105.201-.546 105.4-.001z" fill="#E0E0E0"/></g><defs><clipPath id="clip0_1_2759"><path fill="#fff" d="M0 0h160.826v140H0z"/></clipPath></defs></svg>