<svg width="157" height="120" fill="none" xmlns="http://www.w3.org/2000/svg"><g clip-path="url(#clip0_1_2506)"><path d="M106.394 119.618c-.153.13-.311.257-.47.383H86.579a21.496 21.496 0 01-.332-.383 21.307 21.307 0 01-2.347-3.446c-1.589-2.856-2.136-6.601-2.136-10.416a47.775 47.775 0 01.222-4.44 62.969 62.969 0 01.662-4.88 71.399 71.399 0 011.87-8.092l.075.019c.143.04.486.135.99.284a75.514 75.514 0 017.493 2.679 55.486 55.486 0 017.361 3.69c.146.088.291.178.436.268v.013l-.317 10.246 2.832-8.53a27.17 27.17 0 011.656 1.364c.144.129.289.26.429.397a15.809 15.809 0 013.025 3.768c4.237 7.626 2.459 13.233-2.104 17.076z" fill="#F8FAFB"/><path d="M103.666 119.997h-.515a9.837 9.837 0 00-.016-.382c-.208-3.855-1.863-8.111-4.118-12.219-.08-.149-.162-.302-.25-.451a70.532 70.532 0 00-3.573-5.683 103.266 103.266 0 00-5.268-6.913c-.11-.135-.222-.267-.334-.397a106.662 106.662 0 00-5-5.593l-.263-.27c-.056-.06-.09-.093-.097-.1l.18-.18.002-.004.184-.18c.006.008.117.114.313.318.166.169.393.405.671.7.972 1.029 2.58 2.778 4.44 4.997l.33.395a106.839 106.839 0 014.008 5.132c.343.47.676.935.998 1.396a70.568 70.568 0 013.868 6.089l.255.455c2.593 4.723 3.99 8.907 4.17 12.508.007.128.012.255.015.382z" fill="#fff"/><path d="M92.862 90.742a13.733 13.733 0 01-2.84 2.9c-.14.103-.283.209-.43.312a13.99 13.99 0 01-1.239.771 13.874 13.874 0 01-5.9 1.724c-.03.172-.057.344-.087.519a14.36 14.36 0 006.239-1.791 14.709 14.709 0 001.747-1.14 14.324 14.324 0 003-3.088l-.49-.207zm7.75 3.906c-.056.123-.116.243-.176.364a13.84 13.84 0 01-5.538 5.824l-.143.081a13.964 13.964 0 01-12.769.394l-.142-.067c-.017.183-.033.366-.046.551.045.021.091.043.138.062a14.47 14.47 0 0013.72-.87 14.347 14.347 0 005.397-6.06 40.801 40.801 0 00-.441-.279z" fill="#fff"/><path d="M105.129 98.016c-.028.122-.055.244-.086.364a13.883 13.883 0 01-6.275 8.572c-.166.099-.332.199-.502.292a13.997 13.997 0 01-16.604-2.288c0 .24-.001.476.002.714a14.513 14.513 0 0016.852 2.026c.171-.094.339-.19.501-.293.158-.093.31-.189.463-.289a14.42 14.42 0 005.993-8.337c.03-.115.061-.231.088-.349-.14-.14-.286-.274-.432-.412zM91.637 71.848H0V3.203h91.637v68.645z" fill="#fff"/><path d="M22.205 17.534a3.645 3.645 0 003.648-3.642 3.645 3.645 0 00-3.648-3.642 3.645 3.645 0 00-3.647 3.642 3.645 3.645 0 003.647 3.642zm8.425-6.074a.609.609 0 00-.43 1.037.609.609 0 00.43.178h44.386a.609.609 0 00.43-1.036.609.609 0 00-.43-.178H30.63zm0 3.642a.608.608 0 10-.003 1.213H58.69a.609.609 0 00.563-.839.607.607 0 00-.563-.374H30.63z" fill="#E0E0E0"/><path d="M91.637 71.848H0V3.203h91.637v68.645zM1.026 70.824h89.586V4.227H1.026v66.597z" fill="#E0E0E0"/><path d="M5.122 24.14v40.83h81.393V24.14H5.122zm81.002 10.11h-19.86v-9.719h19.86v9.72zm-40.11 0v-9.719h19.86v9.72h-19.86zm19.86.39v9.72h-19.86v-9.72h19.86zm-20.251-.39h-19.86v-9.719h19.86v9.72zm0 .39v9.72h-19.86v-9.72h19.86zm-20.25 9.72H5.512v-9.72h19.86v9.72zm0 .39v9.72H5.512v-9.72h19.86zm.39 0h19.86v9.72h-19.86v-9.72zm19.86 10.11v9.719h-19.86v-9.72h19.86zm.391 0h19.86v9.719h-19.86v-9.72zm0-.39v-9.72h19.86v9.72h-19.86zm20.25-9.72h19.86v9.72h-19.86v-9.72zm0-.39v-9.72h19.86v9.72h-19.86zM25.373 24.53v9.72H5.512v-9.72h19.86zM5.512 54.86h19.86v9.719H5.512v-9.72zm60.753 9.719v-9.72h19.859v9.72h-19.86z" fill="#E0E0E0"/><path d="M38.535 35.119l-8.1-.183c-.81-3.133-.445-6.117.202-8.866l8.099.183a17.678 17.678 0 00-.201 8.866z" fill="#007DB6"/><path d="M32.024 28.034l.005-.307 4.196.15-.005.307-4.196-.15zm-.017 1.226l.004-.307 4.196.15-.005.308-4.195-.15zm-.017 1.235l.004-.308 4.195.15-.004.308-4.196-.15zm-.018 1.227l.004-.308 4.196.15-.005.308-4.195-.15zm-.018 1.234l.004-.308 4.196.15-.005.308-4.195-.15z" fill="#fff"/><path d="M20.926 57.783l-8.1-.183c-.81-3.133-.444-6.117.202-8.866l8.099.183a17.677 17.677 0 00-.201 8.866z" fill="#D53656"/><path d="M14.415 50.69l.005-.307 4.196.15-.005.307-4.196-.15zm-.017 1.235l.004-.308 4.196.15-.004.308-4.196-.15zm-.018 1.226l.004-.307 4.196.15-.004.307-4.196-.15zm-.018 1.235l.005-.308 4.195.15-.004.308-4.196-.15zm-.017 1.226l.004-.307 4.196.15-.005.307-4.195-.15z" fill="#fff"/><path d="M63.187 47.424l-8.098-.183c-.81-3.134-.446-6.117.2-8.866l8.1.183a17.678 17.678 0 00-.202 8.866z" fill="#D53656"/><path d="M56.677 40.339l.005-.308 4.195.15-.004.308-4.196-.15zm-.017 1.234l.004-.307 4.196.15-.005.307-4.195-.15zm-.018 1.227l.005-.308 4.195.15-.004.308-4.196-.15zm-.018 1.226l.005-.307 4.196.15-.005.307-4.196-.15zm-.017 1.234l.004-.307 4.196.15-.004.308-4.196-.15z" fill="#fff"/><path d="M59.666 45.47l-8.099-.183c-.81-3.133-.445-6.116.201-8.865l8.099.183a17.679 17.679 0 00-.201 8.866z" fill="#007DB6"/><path d="M53.155 38.386l.005-.308 4.196.15-.005.307-4.196-.15zm-.017 1.234l.004-.307 4.196.15-.005.307-4.195-.15zm-.018 1.227l.005-.308 4.195.15-.004.308-4.196-.15zm-.018 1.234l.005-.308 4.196.15-.005.308-4.196-.15zm-.017 1.227l.004-.308 4.196.15-.004.308-4.196-.15z" fill="#fff"/><path d="M89.536 63.322l-8.099-.183c-.81-3.133-.445-6.117.201-8.866l8.099.183a17.68 17.68 0 00-.201 8.866z" fill="#007DB6"/><path d="M83.026 56.23l.004-.308 4.196.15-.004.307-4.196-.15zm-.018 1.234l.005-.308 4.195.15-.004.308-4.196-.15zm-.018 1.234l.005-.307 4.195.15-.004.307-4.196-.15zm-.017 1.227l.004-.308 4.196.15-.005.307-4.195-.15zm-.018 1.226l.004-.307 4.196.15-.004.307-4.196-.15z" fill="#fff"/><path d="M80.797 36.69l-8.1-.184c-.81-3.133-.444-6.116.202-8.865l8.099.183a17.677 17.677 0 00-.201 8.865z" fill="#D53656"/><path d="M74.287 29.597l.004-.308 4.196.15-.005.307-4.195-.15zm-.018 1.226l.004-.307 4.196.15-.004.307-4.196-.15zm-.018 1.235l.005-.308 4.196.15-.005.308-4.196-.15zm-.018 1.234l.005-.308 4.196.15-.005.308-4.196-.15zm-.017 1.227l.004-.308 4.196.15-.004.308-4.196-.15z" fill="#fff"/><path d="M89.1 56.79a1.97 1.97 0 001.496-1.87 1.963 1.963 0 00-.169-.835l5.106-4.769-3.532-.847-4.308 4.658A1.976 1.976 0 0089.1 56.79z" fill="#F1BCC7"/><path d="M91.737 52.944l-2.381-3.352 8.945-9.238 2.077-14.56a4.954 4.954 0 014.349-4.223 4.963 4.963 0 015.004 2.722 4.95 4.95 0 01.258 3.78l-5.299 15.699-12.953 9.172z" fill="#E0E0E0"/><path d="M108.533 114.986h-2.644l-1.258-10.181h3.902v10.181z" fill="#F1BCC7"/><path d="M109.955 120.001h-1.876l-.335-1.769-.857 1.769h-4.976c-.238 0-.47-.076-.662-.218a1.114 1.114 0 01.027-1.818l3.973-2.74v-1.787l4.179.249.527 6.314z" fill="#424242"/><path d="M124.843 112.302l-2.322 1.262-5.979-8.343 3.428-1.862 4.873 8.943z" fill="#F1BCC7"/><path d="M128.492 116.029l-1.648.895-1.141-1.393.094 1.962-4.37 2.375a1.123 1.123 0 01-1.314-.18 1.112 1.112 0 01-.219-1.305l2.178-4.303-.856-1.57 3.79-1.776 3.486 5.295zm-18.845-4.666h-5.464V91.938l-3.382-12.664a72.387 72.387 0 01-1.9-27.8l.005-.037.03-.025c.086-.073 8.743-7.22 14.219-1.752 3.691 3.685.223 16.936.029 17.663v22.844l-3.537 21.196z" fill="#424242"/><path d="M97.238 55.004l1.76-17.582c-.228-.48-3.521-3.516-.078-8.855l3.719-8.717 6.965-.108.029.03a14 14 0 013.845 12.677l-2.053 10.245 1.779 7.102-15.966 5.208z" fill="#E0E0E0"/><path d="M106.387 92.034l11.224 15.763 4.305-3.056-9.373-19.233-6.156 6.526z" fill="#424242"/><path d="M105.47 18.077c3.552 0 6.432-2.875 6.432-6.421 0-3.547-2.88-6.422-6.432-6.422a6.426 6.426 0 00-6.43 6.422 6.426 6.426 0 006.43 6.42z" fill="#F1BCC7"/><path opacity=".1" d="M103.89 34.883l1.761 10.549-1.761 8.79h-3.522l1.601-8.79 1.921-10.55z" fill="#0A0A0A"/><path d="M105.57 63.274a1.97 1.97 0 00.652-1.53 1.959 1.959 0 00-.756-1.48l2.256-6.608-3.516.913-1.604 6.135a1.977 1.977 0 00.341 2.601 1.979 1.979 0 002.627-.03z" fill="#F1BCC7"/><path d="M106.086 58.652l-3.682-1.839 3.535-12.354-5.034-13.822a4.948 4.948 0 013.846-6.578 4.973 4.973 0 013.698.857 4.96 4.96 0 012.011 3.214l2.727 16.34-7.101 14.182z" fill="#E0E0E0"/><path d="M130.483 11.342c-.811 1.316-2.53 1.895-4.054 1.632-1.525-.263-2.849-1.246-3.828-2.442-.978-1.197-1.655-2.605-2.321-4-.666-1.393-1.339-2.803-2.313-4.003-.973-1.201-2.291-2.19-3.813-2.467-.829-.15-1.767-.05-2.371.535a2.302 2.302 0 00-.634 1.627 1.706 1.706 0 00-2.106.879c-.119.252-.174.53-.16.808l-.067-.002c-2.837-1.61-7.142-.674-7.142 1.084-1.556 0-3.458 1.534-3.458 3.865 3.218 0 5.112 4.117 3.233 7.069a20.107 20.107 0 01-1.6 2.154h4.024a3.34 3.34 0 00.591-1.635c.148.534.236 1.082.263 1.635 0 0 10.993 1.415 8.156-9.525.188-.01.37-.065.532-.161.428-.258.661-.803.702-1.357l.317.085c.757.204 1.542.468 2.062 1.054.877.99.692 2.493 1.011 3.776.384 1.547 1.533 2.799 2.81 3.756 1.372 1.029 2.975 1.81 4.682 1.972 1.708.162 3.525-.356 4.709-1.596 1.183-1.24 1.595-3.238.775-4.743z" fill="#424242"/></g><defs><clipPath id="clip0_1_2506"><path fill="#fff" d="M0 0h156.761v120H0z"/></clipPath></defs></svg>