<svg width="250" height="181" fill="none" xmlns="http://www.w3.org/2000/svg"><g clip-path="url(#clip0_34_22697)"><path d="M159.312 135.438v43.55H49.87c-12.469 0-22.614-9.768-22.614-21.775 0-12.007 10.145-21.775 22.614-21.775h109.442z" fill="#F8FAFB"/><path d="M162.001 178.658a1.681 1.681 0 01-1.681 1.675H47.921a23.05 23.05 0 01-16.276-6.721 22.913 22.913 0 01-6.741-16.227 22.91 22.91 0 016.741-16.226 23.05 23.05 0 0116.276-6.721H160.32a1.682 1.682 0 011.681 1.675 1.683 1.683 0 01-1.681 1.675H47.921a19.685 19.685 0 00-13.9 5.74 19.567 19.567 0 00-5.757 13.857 19.567 19.567 0 005.758 13.858 19.689 19.689 0 0013.9 5.74H160.32a1.683 1.683 0 011.681 1.675z" fill="#007DB6"/><path d="M159.313 145.49H41.705a.336.336 0 110-.67h117.608a.339.339 0 01.336.335.335.335 0 01-.336.335zm0 8.039H41.705a.336.336 0 110-.67h117.608a.335.335 0 010 .67zm0 8.039H41.705a.336.336 0 110-.67h117.608a.335.335 0 010 .67zm0 8.04H41.705a.336.336 0 01-.237-.572.336.336 0 01.237-.098h117.608a.334.334 0 110 .67z" fill="#E0E0E0"/><path d="M243.895 143.637l-27.407 33.913-85.22-68.459c-9.71-7.8-11.462-21.753-3.906-31.102 7.556-9.35 21.603-10.61 31.313-2.81l85.22 68.458z" fill="#F8FAFB"/><path d="M218.792 178.966a1.68 1.68 0 01-2.362.253l-87.524-70.308a22.9 22.9 0 01-3.481-32.267 23.067 23.067 0 0132.365-3.471l87.523 70.308a1.682 1.682 0 01.617 1.125 1.67 1.67 0 01-.866 1.65 1.679 1.679 0 01-1.859-.166l-87.523-70.309a19.68 19.68 0 00-6.797-3.547 19.718 19.718 0 00-14.963 1.602 19.65 19.65 0 00-5.887 4.905 19.577 19.577 0 00-3.555 6.778 19.536 19.536 0 001.613 14.916 19.592 19.592 0 004.922 5.867l87.523 70.309a1.674 1.674 0 01.254 2.355z" fill="#D53656"/><path d="M237.57 151.459l-91.579-73.566a.337.337 0 01-.111-.356.323.323 0 01.061-.115.337.337 0 01.472-.05l91.579 73.565a.341.341 0 01.112.356.341.341 0 01-.287.239.34.34 0 01-.247-.073zm-5.06 6.266l-91.578-73.567a.33.33 0 01-.123-.225.337.337 0 01.544-.297l91.579 73.567a.325.325 0 01.123.225.335.335 0 01-.545.297zm-5.06 6.258l-91.578-73.567a.33.33 0 01-.123-.225.332.332 0 01.298-.369.335.335 0 01.246.072l91.579 73.567a.326.326 0 01.123.225.335.335 0 01-.545.297zm-5.059 6.257l-91.579-73.566a.338.338 0 01-.123-.225.338.338 0 01.173-.33.339.339 0 01.372.033l91.579 73.567a.325.325 0 01.123.225.338.338 0 01-.173.33.344.344 0 01-.256.027.323.323 0 01-.116-.061z" fill="#E0E0E0"/><path d="M113.602 130.859l-3.841-.001-1.827-14.772 5.67.001-.002 14.772z" fill="#F1BCC7"/><path d="M107.017 129.766h7.408v4.65h-12.073a4.65 4.65 0 014.665-4.65z" fill="#424242"/><path d="M74.357 130.859l-3.842-.001-1.826-14.772 5.67.001-.002 14.772z" fill="#F1BCC7"/><path d="M67.772 129.766h7.408v4.65H63.107a4.642 4.642 0 012.88-4.296 4.671 4.671 0 011.785-.354zM87.188 21.284v-1.675c0-2.866 1.142-5.614 3.174-7.64a10.853 10.853 0 017.663-3.164c2.874 0 5.63 1.138 7.662 3.164a10.784 10.784 0 013.174 7.64v1.675a7.777 7.777 0 01-2.288 5.507 7.824 7.824 0 01-5.524 2.282H95a7.834 7.834 0 01-5.524-2.282 7.788 7.788 0 01-2.288-5.507z" fill="#424242"/><path d="M98.025 29.651c4.558 0 8.253-3.683 8.253-8.228 0-4.544-3.695-8.228-8.254-8.228-4.558 0-8.252 3.684-8.252 8.228 0 4.545 3.694 8.229 8.252 8.229zm-44.892 20.05a3.152 3.152 0 012.531-.836 3.158 3.158 0 012.268 1.398l7.075-1.334 1.862 4.088-10.018 1.745a3.177 3.177 0 01-4.113-.884 3.152 3.152 0 01.395-4.177z" fill="#F1BCC7"/><path d="M91.59 34.834l.093.14-11.602 7.62-19.576 6.231a1.178 1.178 0 00-.81 1.253l.427 3.667a1.17 1.17 0 00.928 1.013c.16.033.326.032.486-.002L79.96 50.82a6.667 6.667 0 002.477-1.087l13.034-9.245a3.36 3.36 0 001.397-2.998 3.336 3.336 0 00-1.874-2.73 3.36 3.36 0 00-3.311.215l-.093-.14z" fill="#E0E0E0"/><path d="M109.83 126.666a1.523 1.523 0 01-1.391-.905l-17.61-43.384a.503.503 0 00-.944.053l-14.368 42.236a1.516 1.516 0 01-.778.909 1.51 1.51 0 01-1.198.059l-4.818-1.801a1.51 1.51 0 01-.974-1.241c-2.167-18.825 16.734-66.341 16.925-66.819l.053-.132 17.23 3.8.036.038c6.875 7.477 12.525 54.634 13.588 64.011a1.497 1.497 0 01-.998 1.59l-4.253 1.5c-.161.057-.33.086-.5.086z" fill="#424242"/><path d="M94.984 60.976c-4.174 0-8.829-.83-10.261-4.255l-.033-.079.044-.073c1.131-1.85 2.626-5.005 1.822-5.597-1.582-1.167-2.35-3.086-2.282-5.704.148-5.684 4.033-10.73 9.666-12.557a43.004 43.004 0 014.793-1.23 8.185 8.185 0 016.765 1.666 8.215 8.215 0 013.056 6.321c.059 6.074-.879 14.534-5.683 20.342-.225.27-.538.451-.884.513a41.193 41.193 0 01-7.003.653z" fill="#E0E0E0"/><path d="M93.431 60.747a3.203 3.203 0 011.502-1.92 3.22 3.22 0 012.422-.312c.167.046.33.106.487.18l5.372-4.875 3.735 2.51-7.682 6.777a3.214 3.214 0 01-3.633 1.537 3.16 3.16 0 01-1.917-1.49 3.143 3.143 0 01-.286-2.407z" fill="#F1BCC7"/><path d="M102.363 60.81a1.51 1.51 0 01-.956-.34l-2.119-1.727a1.507 1.507 0 01.037-2.363l8.885-6.794a.505.505 0 00.095-.702l-5.484-7.228a4.44 4.44 0 01.298-5.733 4.457 4.457 0 016.011-.48l.035.037 5.726 8.175a5.095 5.095 0 011.955 4.081 5.096 5.096 0 01-2.076 4.021l-11.507 8.757a1.518 1.518 0 01-.9.295z" fill="#E0E0E0"/><path d="M90.714 19.109v-4.083l7.31-3.182 6.971 3.182v4.083a.67.67 0 01-.672.67H91.386a.673.673 0 01-.672-.67z" fill="#424242"/><path d="M97.689 9.347c-1.075-3.43 1.182-7.361 4.52-8.719 3.337-1.358 7.329-.409 10.145 1.834 2.816 2.244 4.563 5.603 5.489 9.076.926 3.473 1.102 7.095 1.272 10.684 4.101.75 6.89 5.6 5.469 9.507-1.42 3.907-6.677 5.849-10.308 3.806-3.631-2.042-4.682-7.532-2.062-10.765a8.814 8.814 0 00.197-10.855 8.863 8.863 0 00-4.764-3.224 8.887 8.887 0 00-5.745.374c-2.02.843-4.556-1.346-4.213-1.718z" fill="#424242"/><path d="M51.618 33.862a35.186 35.186 0 01-14.23-3.108 1.501 1.501 0 01-.891-1.374v-12.2c0-.4.16-.784.443-1.066a1.516 1.516 0 011.069-.442h27.217c.401 0 .786.16 1.07.442.283.282.442.666.442 1.065v12.2a1.494 1.494 0 01-.89 1.375 35.186 35.186 0 01-14.23 3.108z" fill="#007DB6"/><path d="M51.614 23.975a1.52 1.52 0 01-.588-.118L29.443 14.78a1.511 1.511 0 01-.924-1.417 1.504 1.504 0 01.975-1.381l21.584-8.164a1.51 1.51 0 011.079.003l21.294 8.163a1.512 1.512 0 01.97 1.38 1.504 1.504 0 01-.918 1.413L52.21 23.855c-.189.08-.39.12-.595.12z" fill="#007DB6"/><path d="M39.017 31.583c1.113 0 2.016-.9 2.016-2.01 0-1.11-.903-2.01-2.016-2.01-1.114 0-2.017.9-2.017 2.01 0 1.11.903 2.01 2.017 2.01z" fill="#616161"/><path opacity=".2" d="M73.577 13.49l-21.295 9.08a1.347 1.347 0 01-1.05.002l-21.584-9.078a1.318 1.318 0 01-.643-.563 1.335 1.335 0 00.643 1.903l21.583 9.078a1.347 1.347 0 001.051-.002l21.295-9.079a1.34 1.34 0 00.636-1.9 1.319 1.319 0 01-.636.56z" fill="#0A0A0A"/><path d="M39.186 29.568a.336.336 0 00.336-.335v-11.21l11.083-4.025a.336.336 0 00.34-.33.334.334 0 00-.33-.34l-11.083 4.025a.659.659 0 00-.481.193.665.665 0 00-.2.477v11.21a.334.334 0 00.335.335z" fill="#616161"/></g><defs><clipPath id="clip0_34_22697"><path fill="#fff" d="M0 0h250v180.664H0z"/></clipPath></defs></svg>