<svg width="16" height="16" fill="none" xmlns="http://www.w3.org/2000/svg"><path opacity=".2" d="M14 8H2a.5.5 0 00-.5.5v4a.5.5 0 00.5.5h12a.5.5 0 00.5-.5v-4A.5.5 0 0014 8z" fill="#884DFF"/><path d="M11 8h3a.5.5 0 01.5.5v4a.5.5 0 01-.5.5H2a.5.5 0 01-.5-.5v-4A.5.5 0 012 8h3m3-6.5V8" stroke="#884DFF" stroke-linecap="round" stroke-linejoin="round"/><path d="M5 5l3 3 3-3" stroke="#884DFF" stroke-linecap="round" stroke-linejoin="round"/><path d="M11.75 11.25a.75.75 0 100-1.5.75.75 0 000 1.5z" fill="#884DFF"/></svg>