<svg width="80" height="87" fill="none" xmlns="http://www.w3.org/2000/svg"><g clip-path="url(#clip0_34_23510)"><path d="M50.746 48.839l-34.58 8.905a4.573 4.573 0 01-5.563-3.285L.145 13.847a4.573 4.573 0 013.284-5.562L35.6 0l8.234 3.686 10.195 39.59a4.573 4.573 0 01-3.284 5.563z" fill="#F8FAFB"/><path d="M3.757 9.557a3.256 3.256 0 00-2.339 3.96L11.877 54.13a3.256 3.256 0 003.96 2.339l34.582-8.905a3.256 3.256 0 002.338-3.96L42.72 4.625l-7.236-3.24-31.727 8.17z" fill="#fff"/><path d="M43.748 3.897l-5.352 1.378a1.521 1.521 0 01-1.853-1.094L35.526.228a.095.095 0 01.13-.11l8.107 3.6a.094.094 0 01.056.094.095.095 0 01-.071.085z" fill="#F8FAFB"/><path d="M40.932 38.58l-15.744 4.054a.76.76 0 01-.38-1.474l15.745-4.054a.76.76 0 11.379 1.473zm3.678 1.702L25.829 45.12a.76.76 0 11-.38-1.473l18.783-4.837a.76.76 0 01.38 1.473z" fill="#C2C2C2"/><path d="M18.762 47.517a2.688 2.688 0 100-5.376 2.688 2.688 0 000 5.376z" fill="#E0E0E0"/><path d="M39.258 31.544l-20.91 5.383a2.356 2.356 0 01-2.865-1.692l-4.382-17.023a2.355 2.355 0 011.692-2.865l20.91-5.383a2.356 2.356 0 012.865 1.692L40.95 28.68a2.356 2.356 0 01-1.692 2.866z" fill="#fff"/><path d="M39.258 31.544l-20.91 5.383a2.356 2.356 0 01-2.865-1.692l-4.382-17.023a2.355 2.355 0 011.692-2.865l20.91-5.383a2.356 2.356 0 012.865 1.692L40.95 28.68a2.356 2.356 0 01-1.692 2.866zM12.862 15.615a2.079 2.079 0 00-1.493 2.528l4.382 17.023a2.078 2.078 0 002.528 1.493l20.91-5.383a2.079 2.079 0 001.493-2.528L36.3 11.725a2.078 2.078 0 00-2.528-1.493l-20.91 5.383z" fill="#E0E0E0"/><path d="M32.642 15.686L22.09 18.403a.378.378 0 01-.458-.238.365.365 0 01.257-.462l10.742-2.765c.434.22.32.67.012.748zm.477 1.852l-10.553 2.716a.377.377 0 01-.458-.238.363.363 0 01.256-.462l10.742-2.765c.434.22.32.67.013.749z" fill="#F8FAFB"/><path d="M20.556 21.896l-3.22.829a.41.41 0 01-.5-.295l-.978-3.8a.41.41 0 01.295-.5l3.22-.828a.41.41 0 01.499.294l.978 3.801a.41.41 0 01-.294.499z" fill="#E0E0E0"/><path d="M34.063 21.335L17.958 25.48a.378.378 0 01-.458-.238.365.365 0 01.256-.462l16.295-4.195c.434.22.32.67.012.749zm.477 1.851l-16.106 4.146a.379.379 0 01-.458-.238.363.363 0 01.257-.462l16.295-4.195c.434.22.32.67.012.75zm.477 1.852L18.91 29.184a.378.378 0 01-.458-.238.363.363 0 01.256-.462l16.296-4.195c.433.22.32.67.012.749zm.476 1.852l-16.106 4.145a.378.378 0 01-.457-.238.365.365 0 01.256-.462l16.295-4.194c.434.22.32.67.012.748zm.477 1.851l-16.107 4.146a.378.378 0 01-.457-.238.365.365 0 01.256-.462l16.295-4.195c.434.22.32.67.012.749z" fill="#F8FAFB"/><path d="M18.96 45.769a.278.278 0 01-.176-.012l-.003-.002-.733-.31a.281.281 0 11.22-.517l.474.202.622-1.463a.282.282 0 01.369-.148l-.004.01.004-.01a.28.28 0 01.148.368l-.732 1.72a.28.28 0 01-.188.161z" fill="#fff"/><path d="M64.01 64.315H28.3a4.572 4.572 0 01-4.567-4.568V17.81a4.572 4.572 0 014.568-4.568h33.222l7.055 5.624v40.881a4.572 4.572 0 01-4.568 4.568z" fill="#E0E0E0"/><path d="M28.3 14.559a3.256 3.256 0 00-3.252 3.252V59.75A3.257 3.257 0 0028.301 63h35.71a3.256 3.256 0 003.252-3.252V19.5l-6.2-4.942H28.3z" fill="#fff"/><path d="M57.065 26.752H40.807a.76.76 0 010-1.521h16.258a.76.76 0 110 1.52zm3.137 2.566H40.807a.76.76 0 010-1.521h19.395a.759.759 0 01.762.76.76.76 0 01-.762.761z" fill="#D53656"/><path d="M57.065 36.734H40.807a.76.76 0 000 1.521h16.258a.76.76 0 000-1.52zm3.138 2.566H40.806a.76.76 0 000 1.522h19.395a.76.76 0 100-1.521zm-3.138 10.46H40.807a.76.76 0 110-1.522h16.258a.76.76 0 110 1.522zm3.137 2.566H40.807a.76.76 0 010-1.521h19.395a.76.76 0 110 1.52z" fill="#C2C2C2"/><path d="M34.036 29.963a2.688 2.688 0 100-5.377 2.688 2.688 0 000 5.377z" fill="#D53656"/><path d="M33.77 28.299a.28.28 0 01-.167-.056l-.003-.002-.632-.484a.283.283 0 01-.101-.295.28.28 0 01.344-.2.28.28 0 01.099.05l.409.313.967-1.261a.282.282 0 01.393-.052l-.006.008.007-.008a.28.28 0 01.051.393l-1.137 1.484a.28.28 0 01-.223.11z" fill="#fff"/><path d="M37.001 38.779a2.688 2.688 0 11-5.315-.568A2.688 2.688 0 0137 38.78zM34.036 52.97a2.688 2.688 0 100-5.376 2.688 2.688 0 000 5.376zM68.44 19.046h-5.526a1.521 1.521 0 01-1.521-1.521v-4.082a.095.095 0 01.154-.075l6.952 5.508a.095.095 0 01-.004.152.095.095 0 01-.055.018z" fill="#C2C2C2"/><path d="M37.001 38.78a2.685 2.685 0 01-2.688 2.689c-.023 0-.046 0-.069-.003a5.82 5.82 0 01.522-5.337 2.69 2.69 0 012.235 2.65zm3.045-1.284a.763.763 0 01.762-.762h4.05c.238.482.406.994.5 1.521h-4.55a.762.762 0 01-.762-.76zm5.406 1.804a5.79 5.79 0 01-.202 1.522h-4.443a.76.76 0 110-1.521h4.645z" fill="#D53656"/><path d="M55.476 48.68a.83.83 0 01-1.141.277l-9.69-5.91a.83.83 0 11.865-1.418l9.69 5.91a.83.83 0 01.276 1.142z" fill="#424242"/><path d="M45.787 42.771a6.643 6.643 0 11-2.212-9.131 6.651 6.651 0 012.212 9.131zm-9.925-6.054a4.983 4.983 0 108.507 5.19 4.983 4.983 0 00-8.508-5.19z" fill="#424242"/><path d="M67.073 40.377a3.4 3.4 0 100-6.799 3.4 3.4 0 000 6.799zm-.22 15.66a1.523 1.523 0 011.354-1.983l3.58-5.747-3.27-3.11a1.304 1.304 0 01.884-2.252 1.305 1.305 0 01.932.376l4.516 4.453.01.011a1.183 1.183 0 01-.083 1.41l-5.017 5.934a1.522 1.522 0 01-2.906.908zm-5.379 28.254h-1.697l-.807-6.545h2.504v6.545z" fill="#F7D7DD"/><path d="M61.907 85.937h-5.471v-.07a2.13 2.13 0 012.13-2.129h3.341v2.2z" fill="#424242"/><path d="M78.34 81.944l-1.458.868-4.042-5.21 2.152-1.282 3.348 5.624z" fill="#F7D7DD"/><path d="M79.553 83.135l-4.701 2.8-.036-.06a2.129 2.129 0 01.74-2.92l2.872-1.709 1.125 1.89zm-20.797-1.727c-1.137-13.385-1.813-25.82 2.342-30.892l.033-.04 6.993 2.798.011.025c.024.051 2.35 5.167 1.807 8.608l1.725 7.935 5.624 9.417a.622.622 0 01-.284.89l-2.444 1.075a.625.625 0 01-.782-.244l-6.118-9.977-3.456-7.652a.208.208 0 00-.395.064L61.896 81.42a.622.622 0 01-.62.557h-1.9a.627.627 0 01-.62-.57z" fill="#424242"/><path d="M61.122 50.621l-.033-.016-.005-.036c-.262-1.829.047-3.86.918-6.039a4.794 4.794 0 015.565-2.87 4.787 4.787 0 013.053 2.347 4.736 4.736 0 01.328 3.796c-1.098 3.211-2.522 6.216-2.536 6.246l-.03.062-7.26-3.49z" fill="#D53656"/><path d="M53.492 46.067a1.523 1.523 0 012.332.574l6.638 1.341 1.767-4.152a1.305 1.305 0 112.393 1.044l-2.59 5.79-.007.012a1.183 1.183 0 01-1.35.416l-7.314-2.621a1.468 1.468 0 01-.722.3 1.524 1.524 0 01-1.63-.978 1.527 1.527 0 01.483-1.726z" fill="#F7D7DD"/><path d="M79.354 40.618c-.328-.58-.805-1.111-1.436-1.326-.814-.277-1.696.018-2.533.215-.646.152-1.32.245-1.97.117-.65-.128-1.278-.507-1.574-1.1-.435-.872-.068-1.913-.095-2.888a3.507 3.507 0 00-4.418-3.295c-.802-.231-1.528-.253-2.024.364a2.353 2.353 0 00-2.353 2.352h2.25a2.236 2.236 0 00.34 1.652c.397.583 1.088 1.005 1.22 1.699.13.672-.327 1.309-.806 1.797-.48.489-1.035.972-1.184 1.64-.092.507.012 1.03.29 1.462a4.77 4.77 0 001.023 1.126 15.003 15.003 0 006.233 3.189c1.62.39 3.392.491 4.896-.226a4.861 4.861 0 002.14-6.778z" fill="#424242"/><path d="M79.862 86.078H53.564a.139.139 0 01-.098-.237.139.139 0 01.098-.04h26.298a.139.139 0 01.098.236.139.139 0 01-.098.04z" fill="#C2C2C2"/></g><defs><clipPath id="clip0_34_23510"><path fill="#fff" d="M0 0h80v86.079H0z"/></clipPath></defs></svg>