<svg width="32" height="32" fill="none" xmlns="http://www.w3.org/2000/svg"><path d="M7.25 27a3 3 0 000-6H5.5v6h1.75zm9 0c1.519 0 2.75-1.343 2.75-3s-1.231-3-2.75-3-2.75 1.343-2.75 3 1.231 3 2.75 3zm10.25-.687a2.625 2.625 0 01-1.75.687C23.225 27 22 25.663 22 24s1.225-3 2.75-3a2.62 2.62 0 011.75.688" stroke="#007DB6" stroke-width="2" stroke-linecap="round" stroke-linejoin="round"/><path opacity=".2" d="M19 4v7h7l-7-7z" fill="#007DB6"/><path d="M6 16V5a1 1 0 011-1h12l7 7v5" stroke="#007DB6" stroke-width="2" stroke-linecap="round" stroke-linejoin="round"/><path d="M19 4v7h7" stroke="#007DB6" stroke-width="2" stroke-linecap="round" stroke-linejoin="round"/></svg>