<svg width="32" height="32" fill="none" xmlns="http://www.w3.org/2000/svg"><path opacity=".2" d="M26.475 16.64c.038-.424 0-1.274 0-1.274l2.075-2.763a12.902 12.902 0 00-1.275-3.075l-3.412-.487a22.959 22.959 0 00-.9-.9l-.488-3.413A12.776 12.776 0 0019.4 3.453l-2.762 2.075a7.237 7.237 0 00-1.275 0L12.6 3.453a12.9 12.9 0 00-3.075 1.275l-.487 3.413c-.309.291-.609.591-.9.9l-3.413.487a12.775 12.775 0 00-1.275 3.075l2.075 2.763c-.025.425 0 1.275 0 1.275L3.45 19.403c.29 1.076.72 2.11 1.275 3.075l3.413.488c.291.316.591.616.9.9l.487 3.412c.965.557 1.999.986 3.075 1.275l2.763-2.075c.424.038.85.038 1.275 0l2.762 2.075a12.9 12.9 0 003.075-1.275l.488-3.412c.312-.288.9-.9.9-.9l3.412-.488c.558-.965.986-1.999 1.275-3.075l-2.075-2.762zM16 22.004a6 6 0 110-12 6 6 0 010 12z" fill="#007DB6"/><path d="M16 22a6 6 0 100-12 6 6 0 000 12z" stroke="#007DB6" stroke-width="2" stroke-linecap="round" stroke-linejoin="round"/><path d="M22.963 8.14c.316.292.616.592.9.9l3.412.488c.556.966.985 2 1.275 3.075l-2.075 2.763s.038.85 0 1.275l2.075 2.762a12.777 12.777 0 01-1.275 3.075l-3.412.488s-.588.612-.9.9l-.488 3.412a12.9 12.9 0 01-3.075 1.275l-2.762-2.075a7.24 7.24 0 01-1.275 0L12.6 28.553a12.773 12.773 0 01-3.075-1.275l-.487-3.412a22.814 22.814 0 01-.9-.9l-3.413-.488c-.556-.966-.984-2-1.275-3.075l2.075-2.762s-.025-.85 0-1.275L3.45 12.603c.29-1.076.718-2.11 1.275-3.075l3.413-.487c.291-.309.591-.609.9-.9l.487-3.413A12.9 12.9 0 0112.6 3.453l2.763 2.075c.424-.037.85-.037 1.275 0L19.4 3.453c1.076.29 2.11.718 3.075 1.275l.488 3.413z" stroke="#007DB6" stroke-width="2" stroke-linecap="round" stroke-linejoin="round"/></svg>