<svg width="32" height="32" fill="none" xmlns="http://www.w3.org/2000/svg"><path opacity=".2" d="M16 6.5v-2a2.5 2.5 0 015 0v4a2.5 2.5 0 015 0V19a10 10 0 01-10 10c-5.525 0-8-3-12.075-11.587a2.503 2.503 0 014.337-2.5L11 19.663V6.5a2.5 2.5 0 015 0z" fill="#007DB6"/><path d="M21 15V8.5a2.5 2.5 0 015 0V19a10 10 0 01-10 10c-5.525 0-8-3-12.075-11.587a2.503 2.503 0 014.337-2.5L11 19.663V6.5a2.5 2.5 0 015 0V15" stroke="#007DB6" stroke-width="2" stroke-linecap="round" stroke-linejoin="round"/><path d="M21 8.5v-4a2.5 2.5 0 00-5 0v2" stroke="#007DB6" stroke-width="2" stroke-linecap="round" stroke-linejoin="round"/></svg>