<svg width="135" height="38" fill="none" xmlns="http://www.w3.org/2000/svg"><path d="M55.167 23h-2.112v-8.23h-3.678V23h-2.12v-9.994h7.91V23zm4.02-3.835c0 .757.123 1.329.369 1.716.25.387.656.58 1.217.58.555 0 .954-.19 1.196-.573.246-.388.369-.962.369-1.723 0-.756-.123-1.324-.37-1.702-.245-.378-.649-.568-1.21-.568-.555 0-.956.19-1.202.568-.246.374-.37.941-.37 1.702zm5.284 0c0 1.244-.328 2.217-.985 2.919-.656.702-1.57 1.053-2.74 1.053-.735 0-1.382-.16-1.942-.479a3.228 3.228 0 01-1.292-1.388c-.301-.601-.452-1.303-.452-2.105 0-1.249.326-2.22.978-2.912.652-.693 1.568-1.04 2.748-1.04.734 0 1.381.16 1.941.48.561.318.992.776 1.292 1.373.301.597.452 1.297.452 2.099zm5.92 3.972c-.898 0-1.602-.326-2.113-.978h-.11c.074.638.11 1.007.11 1.108v3.096h-2.085V15.357h1.696l.294.992h.095c.488-.757 1.21-1.135 2.167-1.135.903 0 1.609.348 2.12 1.046.51.697.765 1.665.765 2.905 0 .816-.12 1.524-.362 2.126-.237.602-.577 1.06-1.019 1.374-.442.315-.961.472-1.558.472zm-.616-6.255c-.515 0-.89.16-1.128.478-.237.315-.36.837-.369 1.566v.225c0 .82.121 1.409.363 1.764.246.355.633.533 1.162.533.934 0 1.401-.77 1.401-2.31 0-.752-.116-1.315-.348-1.689-.228-.378-.588-.567-1.08-.567zm11.533-1.525v1.566h-2.502V23H76.72v-6.077h-2.51v-1.566h7.097zM87.59 23l-.404-1.04h-.054c-.351.443-.713.75-1.087.924-.37.168-.852.253-1.45.253-.733 0-1.312-.21-1.736-.63-.419-.419-.628-1.016-.628-1.79 0-.811.282-1.408.847-1.791.57-.388 1.427-.602 2.57-.643l1.327-.04v-.336c0-.774-.397-1.162-1.19-1.162-.61 0-1.328.185-2.153.554l-.69-1.408c.879-.46 1.854-.69 2.925-.69 1.026 0 1.812.223 2.359.67.546.446.82 1.125.82 2.036V23H87.59zm-.615-3.541l-.807.027c-.606.019-1.057.128-1.354.328-.296.201-.444.506-.444.916 0 .588.337.882 1.012.882.483 0 .868-.139 1.155-.417.292-.278.438-.647.438-1.107v-.629zM98.042 23h-2.085v-6.077h-1.92c-.147 1.709-.324 2.985-.534 3.828-.21.838-.49 1.447-.84 1.825-.347.374-.803.56-1.368.56-.483 0-.88-.072-1.19-.218V21.25c.224.091.447.137.67.137.26 0 .477-.187.65-.56.178-.375.335-.997.472-1.867.14-.875.261-2.076.362-3.603h5.783V23zm4.136-1.764h.772a23.553 23.553 0 001.566-3.958c.382-1.321.667-2.745.854-4.272h5.824v8.23h1.333v4.676h-2.044V23h-6.261v2.912h-2.044v-4.676zm4.874-6.466a23.309 23.309 0 01-.732 3.315 23.256 23.256 0 01-1.141 3.151h3.903V14.77h-2.03zM121.981 23h-2.112v-8.23h-3.678V23h-2.119v-9.994h7.909V23zm11.594-5.01c0 1.654-.41 2.925-1.23 3.814-.821.888-1.996 1.333-3.528 1.333-1.531 0-2.707-.445-3.527-1.333-.82-.889-1.23-2.165-1.23-3.828 0-1.664.41-2.933 1.23-3.808.825-.88 2.005-1.32 3.541-1.32s2.709.443 3.521 1.327c.815.884 1.223 2.155 1.223 3.814zm-7.294 0c0 1.116.212 1.957.636 2.522.424.565 1.057.847 1.9.847 1.691 0 2.537-1.123 2.537-3.37 0-2.251-.841-3.377-2.523-3.377-.843 0-1.479.285-1.907.855-.429.565-.643 1.406-.643 2.522z" fill="#000"/><g clip-path="url(#clip0_1_4906)"><path d="M17.439 15.93h-.07.07zm-5.12-1.047l-.112.054-.112.072h.155l.13-.072.138-.054.181-.054.173-.082h.242l.138-.054h.302l-.112.064v.054l-.087.09.113.126.12-.09h.156l.12-.09h.147l.113-.1h-.164l-.147.055h.069-.112l.043-.253H13.7l.112-.108h.147l.12-.055h-.205.078l-.138.055h-.397l-.13.045.113-.045h1.985-.441 1.502l.13.063.12.081.121.045.104.063h.12l.122.045.112.064h.259l.13.054-.156-.118.12.055.113.072.12.063-.05-.072-.122-.054-.112-.064-.13-.045-.112-.063-.12-.045-.122-.063-.112-.054-.13-.046h-.12l-.12-.054-.14.073h-.129l-.12-.046h-.13l-.13-.045h-2.098l-.129.046h-.379l-.121.054-.121.045h-.121.232l-.129.072h.06-.129l-.13.054-.12.045h-.138l.112-.081-.103.054h-.121l-.121.054-.121.054-.104.073-.095.162.139-.063.094-.036zm1.149-.361h.086l-.086.045v-.045zm1.243-.18h.224-.259.035zm-.751.053h.371-.155.077-.319.026zm6.699 9.585l.052-.135-.095.108-.078.118-.078.117-.077.117-.052.145h-.06l-.07.099-.077.1-.052.116-.043.118-.13.09-.069.136-.077.108-.104.09-.086.108-.104.09-.104.082-.112.081-.103.09-.078.109-.06.126v.054l-.061.136-.086.126-.113.108.07-.045a.27.27 0 00.095-.081l.051-.045.104-.082a6.716 6.716 0 001.58-2.057v-.063l-.06.08.077-.144zm-7.476 2.049h-.121l-.112.144-.087.09h-.146l-.121.154.077.154h-.086v.135l.086.09.113.072h.259l.06-.072-.052-.081.078-.081.095-.063v-.398l-.043-.144zm7.71-2.563l-.061.126-.052.127-.043.126v.126-.063l.103-.235v-.216l.052-.1v.109zm-1.978 1.39l.06-.118.078-.108-.06-.117-.13-.072-.103-.073.06-.063.087-.063v-.135l-.061-.127-.086-.108h-.104l-.095-.063v-.316l.112-.108.121.072.13.054.069-.045.112-.1.078-.135.086-.126v-.496l-.138-.09-.138-.064v-.135l.052-.127.043-.135h.19l.095-.1.06-.117.086-.108.095-.1v-.144l.078-.126.043-.144.052-.136v-.586l-.086-.1-.095-.081-.095-.09v-.127l-.043-.117.043-.126h-.268l.052-.163.112-.045.095-.063.087.054h.086l.086.145.104.117.12-.136v-.135l-.129-.081-.069-.117-.086-.109v-.233l-.035-.136v-.135l.078-.054v-.425l-.06-.171-.087-.117-.06-.118-.06-.108-.053-.1.095.055.07.108.077.108.104.055v-.118l-.087-.072-.06-.108-.06-.108-.095-.082-.087-.099-.103-.045v.126h-.138l-.044.109-.086-.118-.078-.117v-.723h.07l-.078-.117-.06-.118v-.135l-.087-.145.095.082.069.126.078.108.086.1.078.108.095.1.164.09.164.072-.078-.127-.095-.108-.147-.135-.086-.1-.095-.09-.086-.1-.199-.062-.078-.118-.077-.126-.078-.117-.095-.1-.086-.117-.095-.108-.13-.054-.12-.064-.096-.099-.095-.081-.095-.072v.261l.061.127.104.099-.06.154-.07.054v.072h-.069v.063h-.095l-.086.09v.063l-.07.127v.153l-.051.127h-.285l-.104.08-.112.073h-.095l-.06.108-.087.063v-.225h-.336l-.087.18-.155.045h-.164l-.078.145-.138.081v.108l-.078.09.078.09-.12.046h-.268v.19l-.087-.136-.069-.162-.095.135v.154l-.043.144h-.207l-.12-.045h-.113l-.121.045h-.691l-.12-.1-.095.172h-.234l-.113.054h-.12l-.078-.099v-.126l.06-.055.12.082h.288v-.027l-.095-.082-.078-.099-.095-.081-.112-.054-.078-.163-.103-.063h-.242l-.104.045h-.112l-.164.063h-.138l-.12.064-.13.054h-.25l-.104.108-.104.1-.052.126.112.162v.361l.104.09.147-.063.12-.072.113-.108v-.118l.043-.126.112-.081.121-.063.13-.045h.13l-.087.08-.112.055-.104.054-.052.172.043.117-.051.126-.095.082h-.113l-.086.09-.069.099h-.294l-.095-.072-.086-.081-.138-.127.112-.054v-.135l.052-.127-.104.09-.095.1-.103.1-.07-.064h-.198l-.12.054-.113.072h-.13l-.077-.054h-.104l-.051.136v.126l-.06.117-.096.082-.138-.09-.095-.154-.112.117-.112.1-.052.099v.117l-.06.081v.307l.103.045h.104l.112-.063.095-.108h.103l.164-.1.095.073h.104l.104.045v.262l.043.135.069.126.052.136-.044.117v.135l.095-.09.087-.108v.063-.361l-.07-.154.053-.171.094.1.044.144.06.153v.163l-.104.072v.576l.095.055.087.054v-.145h.06v-.288l.104-.064.112.1h.147l-.104.08v.515l.112.045.113.055.112.054.112.063h.13v.298l-.121.09-.078.081-.095-.045-.19-.045h-.155l-.078-.145-.095-.09-.104-.108-.112-.09-.103-.09h-.104l-.13.144-.077-.1-.07-.117-.068-.108v-.144l-.121-.073-.052-.135.043-.144v-.289l-.103-.072-.113-.082-.103-.09-.104-.09-.13-.045h-.103v-.199l-.155.09h-.156l-.086.127-.104.099h-.146l-.121.108-.06.154-.052.153v.136l-.052.126v1.381l.043.144v.28l.069.126.095.109.069.144.095.108.147.055.06.099.052.108.06.1.104.108.086.117.052.135-.078.172v.153l.044.145.077.135v.135l.07.127v.135l.068.127.07.117.086.108v.623l.095.1.103.08.078.109.07.108.077.108.078.109.077.108.086.09.096.1c.218.196.449.377.69.541h.052l.104.045.112.045h.112l.12-.099v-.144l.079-.1v-.198l.095-.054.051-.046h.121l.078-.108-.052-.135v-.145l-.043-.135-.104-.144v-.145l-.069-.09.104-.108.12-.082.139-.054.112-.099.104-.108.138-.064.138-.045.12-.09v-.144l.07-.127.078-.126.103-.081v-.136l-.086-.054h-.639l-.104-.117v-.108h.812l.12-.055.122-.08h.19l.155-.127h.12l.07-.117.069-.118.086-.108.078-.108-.043-.109v-.117l-.156-.226-.077-.135h.13l.111.063h.121l.113.063h.112l.13.01h.249v.053l.096.082.112.045.077.09.121.126.113.109h.112l.06.09.07.09v.397l.077.082.095.063v.153l.07.1.06.09.06.09.095.054.052.09.095-.099.103-.081.06-.127.078-.108v-.405l.07-.118.103-.1.12-.072.13-.054.095-.19.139-.08.086-.127.12-.081.13-.054h.156l.103.08.087.11.06.126.078.108h.267l.078.108v.56l.052.126.112.063v.154l.052.135-.095-.063h-.346v.072l.121.108.164.054v.109l.121.072v.108l.043.109.113.045h.224zm-7.545-.118l-.104-.153.086.045v-.045l.078.072-.06.081zm.863-1.38l-.147-.163-.086-.1-.078-.116-.06-.118v-.135l.078-.127-.06-.117-.122-.045v-.126l-.043-.118v-.37h.104l.103.072.06.118v.289l.044.144.06.117.052.127.078.108.078.117.06.163v.388l-.12-.108zm.458-2.934h-.173l-.112-.054h-.13l-.095-.09h-.535l.095-.1.052-.117.043-.117.078-.108h.181l-.009.018v.099l-.069.045.121.117.164-.063-.147-.09.095-.081h.233v.108l-.095.09.078.1.078.09.078.1.069.053zm.699-.198v-.108l.138-.055h.216l-.112.1-.121.063v.216l.052.109v.514h-.243l-.06-.135-.043-.154.095-.072-.052-.135-.043-.127v-.144l.173-.072zm.345 2.328h-.12l-.147.01-.078-.1-.07-.108-.077-.109-.052-.117-.095-.09h.182v.108l.051.117.078.09.07.1h.137l.13.054-.009.045zm3.454-6.39l.163.064v-.145h-.086l-.077.081zm-6.83 3.268h-.077v.225l.078-.126v-.1zm.778 1.326h.086l-.052-.108-.034.108zm-.717-.668v.118l.104-.1v-.126h-.112v-.09l-.052.054.06.144zm10.1 3.502l.113-.126v-.1l-.086.1-.026.126zm-.362-3.781h-.086v.135h.12l-.034-.135zm-.164 2.5l.13.08.164-.09-.07-.135-.068-.126v-.208h-.113v.307l-.043.172zm0 .586l.06-.117-.112.063v.154l.052-.1zm.26-.37H20.2v.036l.052.046v-.082zm-.079-3.574v.397l-.043.127v.27h.13l.086-.09v-.659l-.069-.117-.052-.126-.06-.136v.045l.052.154-.044.135zm-.863 5.84h-.319l-.086.117h.474l.13-.063.095-.127h-.19l-.104.073zm-.078-2.51l-.06.118.121.063v-.199l-.06.018zm.665-1.082v.261h.043v-.28l-.043.019zm-3.323 2.978h-.121l-.07.1.018.09.06.108v.054h.156v-.262l-.043-.09zm3.306-5.74l.06.108.044-.09v-.235l-.104-.054h-.026l.052.126-.026.145zm1.2 4.25l-.078.136-.077.126-.044.154-.086-.081-.069.108v.117l.052.127.138-.1v.073l.06-.145.052-.135.052-.09v-.353.064zm-.734.181h.112v-.442l-.069.144-.051.145-.087.135.095.018zm-.259 1.498l.043-.099-.095.063-.06.1-.043.108.069-.09.086-.082zm-3.936-7.734h.129l-.173-.063.043.063zm3.634 7.527l.06-.109v-.135l.06-.117.053-.117v-.271l.069-.081.052-.109-.095-.072h-.13l-.043.135-.06.127-.07.126-.112.154-.069.099-.095.081-.086.081-.078.108v.118l.07.117h.396l.078-.135zm-6.44-7.762v-.126l-.13-.027-.103.054-.078.1v.125h.164l.147-.063.043.054.19-.054-.112-.09-.121.027zm-1.692-1.056l-.104.081-.112.064-.087.09-.138.099-.077.154.12-.046.095-.063h.104v.063l.13.046.069.117v.126h.241l.095-.081h.095l.104-.045.155-.063h.605v-.199l.13-.072v-.27l.129-.154h-.052l.069-.163h-.095l.069-.072v-.1h.078-.242l-.112.055-.112.054v.045l-.121.054-.113.054h-.12l-.113.064-.146.054-.121.054-.104.063v-.045h-.12l-.122.054-.077-.018zm-.432.966l-.069.108v.127h.216l.06-.163-.078-.135-.129.063zm3.35.92h.12l.104-.08h.138v-.073l-.13-.045h-.137l-.078.117-.13.045-.13.072-.068.127-.052.144.095.045.086.064.052-.064v-.126l.095-.09.035-.136zm1.346-.749h-.112v.163h.25l-.06-.1-.078-.063zm-4.653-1.083l.13-.063.112-.09.138-.054.12-.063.07-.1-.13.072a6.15 6.15 0 00-.63.425l.112-.054.078-.073zm9.039 8.069l-.147.072-.052.126-.077.118v.379h.12l.078-.117v-.28h-.06l.086-.109.078-.117.069-.135-.095.063zm-9.824-5.75l.112-.044.095-.082v-.126h-.13l-.103.072-.113.063v.1l.139.018zm9.712 6.652l.095-.135.069-.144-.087.144-.077.135zm-9.497-6.615l-.12.072-.104.09-.112.136v.126h.31l.07-.135v-.145l.051-.135.104-.1.078-.126v-.144l-.104.054h-.095v.117l-.095.1.017.09zm0-1.905l-.112.118.121-.117h-.009zM9.591 32.6S4.8 29.782 5.18 25.45a4.522 4.522 0 00.259 2.888s-2.331-.902-.311-4.566c0 0 2.59 1.886.751 4.584a5.318 5.318 0 002.063 2.248c.713.44 1.399.926 2.055 1.453a.48.48 0 01-.084.362.445.445 0 01-.313.18" fill="#fff"/><path d="M5.922 29.558a3.407 3.407 0 01-2.326 1.254 3.353 3.353 0 01-2.5-.812s2.245-2.256 4.524-.984c-.72.01-1.431.172-2.09.478a4.59 4.59 0 012.392.064zm1.183-.1a1.98 1.98 0 01.02-1.551 1.9 1.9 0 01.456-.635 1.8 1.8 0 01.664-.386s.267 2.419-1.14 2.572z" fill="#fff"/><path d="M15.004 13.014C14.624 12.446 12.086 7.22 0 8.123v22.003s.276 5.117 4.852 5.117c4.575 0 7.968-.288 10.118 2.257a7.828 7.828 0 014.99-2.175h5.18s4.851-.307 4.851-5.587V8.123c-12.086-.903-14.624 4.323-14.995 4.891" fill="#007DB6"/><g opacity=".5"><mask id="a" style="mask-type:luminance" maskUnits="userSpaceOnUse" x="0" y="0" width="30" height="15"><path d="M30 0H0v14.188h30V0z" fill="#fff"/></mask><g mask="url(#a)"><mask id="b" style="mask-type:luminance" maskUnits="userSpaceOnUse" x="0" y="0" width="30" height="15"><path d="M30 0H0v14.188h30V0z" fill="#fff"/></mask><g mask="url(#b)"><path d="M30 14.188V.063c-12.086-.903-14.624 7.49-14.996 8.06-.38-.57-2.918-8.954-15.004-8.06v14.124" fill="#C2C2C2"/></g></g></g><path d="M30 14.44V2.185c-12.086-.902-14.624 7.518-14.996 8.123-.38-.569-2.883-9.025-15.004-8.123v12.257" fill="#fff"/><path d="M30 14.865V4.44c-12.086-.903-14.624 6.814-14.996 7.382-.38-.568-2.918-8.276-15.004-7.382v10.424" fill="#D53656"/><path d="M30 14.188V6.769c-12.086-.902-14.624 5.1-14.996 5.677-.38-.578-2.918-6.57-15.004-5.677v7.419" fill="#fff"/><path d="M30 16.688V8.88c-12.086-.903-14.624 3.565-14.996 4.133-.38-.568-2.918-5.027-15.004-4.133v7.807" fill="#007DB6"/><path d="M17.732 16.12h-.077.077zm-5.12-1.048l-.111.054-.112.073h.155l.13-.073.138-.054.19-.045.163-.09h.242l.138-.054h.302l-.112.054.043.054-.086.09.112.127.121-.082h.156l.12-.099h.147l.121-.09h-.173l-.146.045h.069-.112l-.044-.072.043-.045h-.12l.13-.045h.266-.198.078l-.155.045h-.38l-.13.045.112-.045.139-.045h.259l.103-.046h.259-.043 1.183-.389 1.511l.13.073.12.072.121.045.104.063h.13l.112.054.112.055h.259l.13.054-.156-.118.12.054.113.073.12.063-.017-.063-.12-.046-.113-.072-.13-.045-.111-.063-.121-.045-.121-.063-.147-.055-.12-.045h-.13l-.121-.054-.13-.045h-.129l-.12-.045h-2.867l-.112.054-.13.045h.112l-.13.072h.061-.13l-.129.055-.12.045h-.121l.112-.072h-.224l-.121.054-.121.054-.104.072-.12.072.137-.063.104.063zm2.392-.541h-.199.424-.225zm-.742.054h.362-.155.078-.32.035zm6.69 9.585l.052-.136-.095.109-.077.117-.113.108-.077.127-.052.135h-.06l-.07.09-.077.1-.052.117-.043.117-.13.09-.069.136-.077.117-.104.081-.086.109-.104.09-.104.09-.112.072-.104.09-.077.109-.06.126v.054l-.061.145-.086.117-.113.108h.07l.103-.08.043-.046.104-.09a6.752 6.752 0 001.58-2.067v-.054l-.06.09.111-.171zm-7.476 2.048h-.12l-.07.118-.095.09h-.146l-.113.154.07.153h-.052v.135l.086.09.112.073h.26l.06-.072-.052-.082.077-.08.095-.064v-.253l-.077-.117-.035-.145zm7.71-2.536l-.06.127-.053.126-.043.126v.127-.063l.104-.235v-.117l.043-.1.043-.099-.034.108zm-1.977 1.39l.06-.117.078-.108-.07-.145-.129-.072-.095-.108.06-.063.087-.064v-.135l-.07-.126-.085-.109h-.095l-.104-.054v-.325l.112-.108.121.072.13.054.138.045.112-.099.078-.135.086-.127v-.496l-.138-.09-.138-.081v-.136l.051-.126.044-.136.19.046.095-.1.069-.117.077-.108.095-.1v-.144l.078-.126.043-.136.052-.144v-.596l-.086-.09-.095-.09-.104-.109v-.252l.052-.118-.138-.054h-.156l.052-.162.112-.045.095-.064-.017.082h.086l.087.144.103.117.121-.135v-.135l-.069-.109-.078-.117-.086-.108v-.235l-.069-.126v-.136l.078-.054v-.424l-.06-.163-.113-.126v-.117l-.086-.081-.052-.1.095.064.043.036.078.108.103.054v-.108l-.086-.054-.095-.1v-.108l-.095-.081-.086-.09-.104-.055v.127h-.138l-.043.108-.086-.108-.078-.118v-.713h.069l-.078-.117-.06-.117v-.127l-.087-.153.104.09.06.118.078.108.086.1.078.116.095.09.164.091.121.036-.078-.126-.095-.109-.146-.135-.087-.1-.095-.09-.086-.099-.112-.081-.121-.162-.043-.09-.078-.127-.095-.1-.086-.117-.095-.108-.13-.054-.12-.063-.095-.1-.165-.08-.06-.064v.271l.06.117.113.1-.06.153-.078.054v.072h-.07v.063h-.094l-.087.09v.073l-.069.117v.154l-.052.126h-.181l-.103.081-.113.072h-.069l-.06.109-.095.054v-.226h-.336l-.087.172-.156.045h-.164l-.077.144-.139.081v.109l-.069.09h-.043l.087.09-.13.045h-.259v.199l-.086-.144-.07-.163-.094.135v.154l-.043.144h-.121l-.121-.045h-.112l-.113.045h-.88l-.121-.099-.095.172h-.19l-.112.054h-.121l-.078-.1v-.126l.06-.054.13.09h.242v-.144l-.095-.072-.078-.1-.095-.081-.112-.063-.078-.163-.12-.045h-.285l-.104.045h-.112l-.164.073h-.138l-.121.063-.13.063h-.215l-.104.108-.104.1-.051.126.112.162v.361l.103.09.147-.063.12-.072.113-.1v-.243l.112-.081.13-.063.12-.045h.13l-.086.08-.112.055-.104.054-.052.18.043.109-.051.126-.095.09h-.113l-.086.09-.069.1h-.294l-.094-.063-.087-.081-.069-.082.104-.045v-.135l.052-.135-.104.09-.095.1-.104.099-.069-.064h-.103l-.095-.045-.121.054-.112.072h-.13l-.077-.054h-.104l-.052.127v.126l-.06.117-.095.082-.138-.09-.095-.154-.113.117-.103.1-.06.099v.541h.206l.113-.072.095-.108h.095l.164-.09.095.063h.103l.104.045v.27l.043.127.07.126.05.136-.042.117v.135l.095-.09.086-.108v.063-.352l-.069-.153.052-.18.095.098.043.145.069.153v.172l-.104.063v.586l.095.055.087.063v-.144h.06v-.29l.104-.063.12.1h.139l-.104.09v.406l.104.054.112.055.112.054.112.054h.13v.289l-.121.09-.078.081-.095-.045-.19-.045h-.146l-.104-.081-.095-.082-.104-.117-.112-.09-.103-.09h-.113l-.12.144-.087-.1-.069-.117-.069-.117v-.144l-.12-.073-.052-.126.043-.144v-.298l-.104-.072-.112-.073-.147.109-.095-.09H9.85v-.19l-.155.081H9.54l-.087.127-.103.099h-.147L9.082 20l-.06.145-.052.153v.135l-.052.127v1.408l.043.144v.28l.07.135.094.1.07.144.094.108.147.054.06.1.052.108.06.1.104.108.087.117.051.135v.307l.044.144.077.136v.135l.07.127v.135l.068.126.07.118.086.108v.586l.086.1.104.09.077.1.07.108.077.108.078.108.078.109.095.09.086.1c.218.195.45.376.69.54h.38l.121-.099v-.144l.078-.1v-.198l.086-.054h.241l.079-.108-.052-.136v-.144l-.043-.135-.07-.127v-.144l-.051-.136.103-.117.121-.081.138-.054.113-.1.103-.108.138-.063.138-.045.121-.09v-.145l.07-.117.077-.127.104-.09v-.126l-.087-.054-.086-.055h-.578l-.104-.117v-.1h.812l.12-.053.121-.082h.19l.121-.045h.112l.07-.117.068-.117.087-.109.077-.099-.043-.117v-.117l-.112-.118-.078-.135h.13l.112.063h.13l.103.063.112-.045h.38v.054l.095.081.113.046.086.09.112.126.112.108h.113l.06.09.069.082v.397l.078.081.095.072v.145l.069.1.06.09.06.099h.096l.06.09.086-.1-.06-.117.06-.126.078-.108v-.406l.069-.118.104-.1.12-.071.13-.054.095-.19.138-.081.086-.127.121-.08.13-.055h.155l.112.081.078.109.06.126.078.117h.294l.078.118v.55l.051.127.112.063v.153l.052.136-.06-.064h-.363v.073l.121.108.164.054v.108l.121.063v.118l.043.1h.242l.078.08zm-7.546-.117l-.103-.144h.086v-.046l.078.073-.06.117zm.864-1.38l-.078-.19-.086-.1-.07-.108-.069-.126v-.136l.078-.117-.06-.117-.156-.055v-.243l-.052-.118v-.252h.104l.104.08.06.118v.289l.043.136.06.126.053.117.086.108.069.118.06.162v.388l-.146-.08zm.423-2.934h-.173l-.112-.063h-.13l-.095-.09h-.535l.095-.09.052-.127v-.117l.078-.109h.181l.052.1v.099l-.07.045.121.117.164-.063-.146-.09.095-.081h.233v.099l-.095.09.077.1.078.09.078.099.052-.01zm.699-.199v-.108l.138-.054h.216l-.104.1-.12.071v.208l.051.117.043.118v.388h-.242l-.06-.136-.043-.153.095-.072-.052-.136-.043-.126v-.136l.12-.08zm.345 2.338h-.12l-.113-.045-.078-.1-.069-.108-.077-.1-.052-.125-.095-.09h.181v.117l.052.108.078.09.112.036h.138l.138.054-.095.163zm3.514-6.462l.164.054v-.126h-.138l-.026.072zm-6.855 3.312h-.078v.226l.078-.127v-.099zm.777 1.309h.07l-.053-.1-.017.1zm-.673-.668v.108l.103-.09v-.127h-.112v-.09.082l.009.117zm10.1 3.493l.078-.082v-.099l-.12.117.043.064zm-.353-3.782h-.095v.144h.12l-.025-.144zm-.173 2.51l.13.071.163-.09-.069-.126-.069-.136v-.208h-.103v.308l-.052.18zm0 .577l.06-.118-.112.064v.153l.052-.1zm.259-.37h-.052v.09l.052.054v-.144zm-.112-3.565v.794h.13l.085-.1v-.649l-.069-.127-.043-.126-.069-.135.052.153-.086.19zm-.864 5.848h-.302l-.086.108h.474l.13-.063.094-.117h-.19l-.12.072zm-.077-2.509l-.06.108.12.064v-.2l-.06.028zm.664-1.092v.262-.289.027zm-3.315 2.987h-.12l-.07.1v.117l.06.108v.054h.156v-.261l-.026-.118zm3.315-5.74l.052.118.052-.1v-.234l-.095-.054h-.095l.052.126.034.144zm1.192 4.251l-.078.136-.078.126-.043.153-.086-.072-.07.1v.117l.053.126.138-.1v.073l.06-.135.052-.145.052-.09v-.307.018zm-.734.18h.112v-.406l-.069.145-.052.144-.086.136.095-.018zm-.276 1.59l.043-.1-.086.063-.07.09-.043.108.078-.09.078-.072zm-3.937-7.745h.13l-.173-.063.043.063zm3.635 7.464l.06-.117v-.126l.06-.127.052-.117v-.262l.07-.09.051-.108-.095-.072h-.112l-.043.135-.06.126-.07.127-.103.153-.07.108-.103.072-.086.09-.078.1v.117l.069.118h.397l.06-.127zm-6.44-7.743v-.127l-.122-.045-.103.063-.078.09v.127h.164l.147-.063.043.054.19-.054-.112-.09-.13.045zm-1.727-1.11l-.104.072-.112.063-.087.09-.138.1-.077.162.12-.054.095-.063h.104v.063l.13.054.069.108v.127h.293l.095-.082h.121l.104-.045.155-.063h.579v-.19l.129-.08v-.154l.12-.154h-.051l.069-.162h-.095l.07-.072v-.1h.077-.241l-.113.055-.112.054-.121.054-.112.054h-.121l-.112.063-.147.054-.121.055-.104.063v-.045h-.12l-.113.063-.13-.09zm-.397.992l-.078.1v.126h.216l.06-.172-.112-.153-.086.1zm3.418.912h.121l.112-.081h.13v-.1l-.13-.045h-.138l-.112.072-.138.046-.121.072-.07.135-.05.136.094.045.086.063.052-.054v-.136l.095-.09.07-.063zm1.347-.75h-.112v.163h.233l-.06-.1-.061-.062zm4.627 6.68v-.109.226-.117zm-9.323-7.753l.13-.072.111-.09.139-.055.12-.036.06-.1-.129.073c-.218.128-.428.27-.63.424l.112-.054.087-.09zm9.013 8.032l-.147.072-.052.127-.07.117-.042.136v.252l.12-.054.078-.117v-.28h-.06l.086-.1.078-.126.13-.19-.121.163zm-9.825-5.722l.112-.045.095-.081v-.127l-.12.046-.113.063-.112.072v.09l.138-.018zm9.712 6.66l.095-.143.07-.145-.087.145-.078.144zm-9.496-6.624l-.112.109-.104.09-.103.1v.117h.31l.07-.136v-.144l.051-.136.104-.099.077-.117v-.145h-.103l-.095.045v.118l-.095.099v.1zm0-1.904l-.112.117.12-.117h-.008zM9.885 32.789s-4.791-2.78-4.42-7.148a4.523 4.523 0 00.259 2.888s-2.331-.903-.311-4.567c.347.242.644.555.872.92a3.346 3.346 0 01.409 2.502 3.27 3.27 0 01-.53 1.172 5.316 5.316 0 002.063 2.238c.715.44 1.401.929 2.055 1.462a.472.472 0 01-.084.36.435.435 0 01-.313.173z" fill="#fff"/><path d="M6.216 29.783a3.406 3.406 0 01-2.324 1.245c-.9.081-1.796-.21-2.493-.811 0 0 2.236-2.239 4.515-1.011a5.048 5.048 0 00-2.08.478 4.5 4.5 0 012.382.1zm1.183-.126a1.979 1.979 0 01.016-1.558 1.9 1.9 0 01.457-.637 1.8 1.8 0 01.666-.386s.268 2.41-1.14 2.572m16.343-9.133c-.152-2.199-1.074-4.262-2.59-5.795a9.192 9.192 0 00-2.806-1.949c-.112.334-.328.686-.241.812.19.29 0 .434-.104.605-.104.171-.268 0-.397 0a6.724 6.724 0 00-3.883-.353 6.91 6.91 0 00-3.464 1.87 7.26 7.26 0 00-2.115 3.418 7.535 7.535 0 00-.009 4.072 7.37 7.37 0 001.213 2.661 7.02 7.02 0 002.128 1.933l.45.27c-.096.19-.165.47-.242.48-.484 0-.354.477-.63.766a9.982 9.982 0 003.625.975v.957h.941v-.903a8.4 8.4 0 003.32-.927 8.755 8.755 0 002.715-2.198 9.207 9.207 0 001.69-3.127 9.477 9.477 0 00.399-3.567zm-13.243 5.812A7.157 7.157 0 018.46 22.14a7.307 7.307 0 01.934-4.595 6.803 6.803 0 013.492-2.957 6.458 6.458 0 014.493-.002 6.802 6.802 0 013.495 2.953 7.302 7.302 0 01.94 4.594 7.157 7.157 0 01-2.035 4.189 6.603 6.603 0 01-4.101 1.918h-.26a5.863 5.863 0 01-1.19-.054 5.82 5.82 0 01-1.123-.262c-.181 0-.38-.117-.578-.153v-.054a7.037 7.037 0 01-.734-.37 3.105 3.105 0 01-.337-.208 6.542 6.542 0 01-.984-.812m11.663-1.58c-.867 1.903-2.406 3.378-4.294 4.116a7.458 7.458 0 01-5.824-.162l.225-.506a6.938 6.938 0 006.75-.605 7.338 7.338 0 002.876-3.727 7.96 7.96 0 00-.073-5.419c-.657-1.736-1.9-3.16-3.493-4.003l.26-.56c1.848.94 3.264 2.608 3.939 4.638a8.461 8.461 0 01-.34 6.192m-4.455 7.292h-5.119a1.69 1.69 0 00-1.158.505c-.312.315-.5.74-.525 1.192h8.434a1.843 1.843 0 00-.506-1.174 1.693 1.693 0 00-1.126-.523zm-.604-.325a1.683 1.683 0 00-.596-.234h-2.754a1.802 1.802 0 00-.604.253l.052.126h3.85l.052-.145z" fill="#fff"/></g><defs><clipPath id="clip0_1_4906"><path fill="#fff" d="M0 0h30v37.5H0z"/></clipPath></defs></svg>