<svg width="40" height="50" fill="none" xmlns="http://www.w3.org/2000/svg"><g clip-path="url(#clip0_208_7398)"><path d="M23.252 21.24h-.092.092zm-6.826-1.396l-.15.072-.15.096h.208l.172-.096.185-.073.241-.072.23-.108h.322l.185-.072h.403l-.15.084v.072l-.115.12.15.17.16-.121h.208l.161-.12h.196l.15-.133h-.22l-.195.072h.092-.15l.058-.337h-.15l.15-.144h.196l.161-.072h-.277.104l-.184.072h-.529l-.173.06.15-.06h2.647-.587 2.003l.173.084.16.108.162.06.138.085h.161l.161.06.15.084h.345l.173.072-.207-.156.16.072.15.097.162.084-.07-.097-.16-.072-.15-.084-.173-.06-.15-.084-.16-.06-.162-.085-.15-.072-.172-.06h-.161l-.161-.072-.184.096h-.173l-.161-.06h-.173l-.173-.06h-2.797l-.172.06h-.506l-.162.072-.161.06h-.161.31l-.172.096h.08-.172l-.173.073-.161.06h-.184l.15-.109-.139.073h-.16l-.162.072-.161.072-.138.096-.127.217.184-.084.127-.049zm1.53-.482h.116l-.115.06v-.06zm1.658-.24h.3-.346.046zm-1.001.072h.495-.207.103-.426.035zm8.932 12.78l.07-.181-.127.144-.104.157-.104.156-.103.157-.07.192h-.08l-.092.133-.103.132-.07.156-.057.157-.173.12-.092.18-.103.145-.139.12-.115.145-.138.12-.138.108-.15.109-.138.12-.103.145-.08.168v.072l-.081.18-.115.17-.15.144.092-.06a.36.36 0 00.127-.109l.069-.06.138-.108a8.953 8.953 0 002.106-2.744v-.084l-.08.108.103-.192zm-9.968 2.731h-.161l-.15.193-.115.12h-.196l-.16.205.103.204h-.115v.18l.115.121.15.096h.345l.08-.096-.069-.108.104-.109.126-.084v-.529l-.057-.193zm10.279-3.417l-.08.168-.07.169-.057.168v.169-.085l.138-.313v-.288l.069-.133v.145zM25.22 33.14l.08-.157.104-.144-.08-.157-.173-.096-.138-.096.08-.084.116-.084v-.181l-.081-.169-.115-.144h-.138l-.127-.084v-.421l.15-.145.16.097.174.072.092-.06.15-.133.103-.18.115-.169v-.662l-.184-.12-.184-.084v-.18l.069-.17.057-.18h.253l.127-.132.08-.156.116-.145.126-.132v-.193l.104-.168.058-.193.069-.18v-.783l-.116-.132-.126-.108-.127-.12v-.169l-.057-.156.057-.169h-.357l.07-.216.15-.06.126-.085.115.072h.115l.115.193.138.156.161-.18v-.18l-.172-.109-.092-.157-.116-.144v-.313l-.046-.18v-.18l.104-.073v-.565l-.08-.23-.116-.156-.08-.156-.08-.145-.07-.132.127.072.092.145.104.144.138.072v-.156l-.116-.096-.08-.145-.08-.144-.127-.108-.115-.133-.139-.06v.168h-.184l-.057.145-.115-.157-.104-.156v-.963h.092l-.103-.156-.081-.157v-.18l-.115-.193.127.109.092.168.103.145.115.132.104.144.126.133.22.12.218.096-.104-.168-.126-.144-.196-.181-.115-.132-.127-.12-.115-.133-.265-.084-.103-.157-.104-.168-.103-.157-.127-.132-.115-.157-.127-.144-.172-.072-.162-.084-.126-.133-.127-.108-.126-.096v.349l.08.168.138.133-.08.204-.092.072v.097h-.092v.084h-.127l-.115.12v.084l-.092.169v.204l-.07.169h-.379l-.138.108-.15.097h-.127l-.08.144-.115.084v-.301h-.45l-.114.24-.207.061h-.22l-.103.193-.184.108v.144l-.104.12.104.121-.161.06h-.357v.253l-.115-.18-.092-.217-.127.18v.205l-.057.192h-.276l-.162-.06h-.15l-.16.06h-.921l-.162-.132-.126.229h-.31l-.15.072h-.162l-.103-.133v-.168l.08-.072.161.108h.38v-.036l-.126-.108-.104-.133-.127-.108-.15-.072-.103-.217-.138-.084h-.323l-.137.06h-.15l-.219.084h-.184l-.161.085-.173.072h-.334l-.138.144-.138.133-.069.168.15.217v.481l.138.12.196-.084.16-.096.15-.145v-.156l.058-.168.15-.109.16-.084.174-.06h.172l-.115.108-.15.072-.138.073-.069.228.058.157-.07.168-.126.108h-.15l-.115.12-.092.133h-.391l-.127-.096-.115-.109-.184-.168.15-.072v-.18l.069-.17-.139.121-.126.133-.138.132-.092-.084h-.265l-.161.072-.15.096h-.172l-.104-.072h-.138l-.07.18v.169l-.08.156-.127.109-.184-.12-.126-.205-.15.156-.15.133-.069.132v.156l-.08.109v.409l.138.06h.138l.15-.084.126-.145h.138l.22-.132.126.096h.138l.138.06v.349l.058.181.092.168.069.18-.058.157v.18l.127-.12.115-.144v.084-.481l-.092-.204.069-.23.127.133.057.193.08.204v.217l-.138.096v.77l.127.072.115.073v-.193h.08v-.385l.139-.084.15.132h.195l-.138.109v.685l.15.06.15.073.149.072.15.084h.172v.397l-.16.12-.104.109-.127-.06-.253-.06h-.207l-.104-.193-.127-.12-.138-.145-.15-.12-.138-.12h-.138l-.172.192-.104-.132-.092-.157-.092-.144v-.193l-.161-.096-.07-.18.058-.193v-.385l-.138-.096-.15-.108-.138-.12-.138-.121-.173-.06h-.138v-.265l-.207.12h-.207l-.115.169-.138.132h-.196l-.161.145-.08.204-.07.205v.18l-.069.169v1.841l.058.192v.373l.092.169.127.144.092.193.126.144.196.073.08.132.07.144.08.133.138.144.115.156.07.18-.104.23v.204l.057.193.104.18v.18l.092.17v.18l.092.168.092.157.115.144v.83l.127.133.138.108.104.144.092.145.103.144.104.145.104.144.115.12.126.133c.292.261.6.503.921.722h.07l.137.06.15.06h.15l.16-.132v-.193l.104-.132v-.265l.127-.072.069-.06h.161l.104-.145-.07-.18v-.193l-.057-.18-.138-.193v-.192l-.092-.12.138-.145.161-.108.184-.073.15-.132.138-.144.184-.085.184-.06.162-.12v-.193l.092-.168.103-.169.139-.108v-.18l-.116-.073h-.852l-.138-.156v-.144h1.082l.162-.073.16-.108h.254l.207-.168h.161l.092-.157.092-.156.116-.145.103-.144-.057-.145v-.156l-.207-.3-.104-.181h.172l.15.084h.161l.15.084h.15l.172.012h.334v.072l.127.109.15.06.103.12.161.169.15.144h.15l.08.12.092.12v.53l.104.109.126.084v.204l.092.133.08.12.081.12.127.073.07.12.126-.132.138-.109.08-.168.104-.145v-.54l.092-.157.138-.132.161-.096.173-.072.127-.253.184-.108.115-.169.161-.108.173-.072h.207l.138.108.115.144.08.169.104.144h.357l.104.145v.745l.069.17.15.083v.205l.069.18-.127-.084h-.461v.096l.162.145.218.072v.145l.162.096v.144l.057.145.15.06h.299zm-10.06-.157l-.139-.204.116.06v-.06l.103.096-.08.108zm1.15-1.84l-.195-.217-.115-.133-.104-.156-.08-.157v-.18l.103-.169-.08-.156-.161-.06v-.169l-.058-.156v-.493h.138l.138.096.08.156v.385l.058.193.081.156.07.169.103.144.103.157.08.216v.518l-.16-.145zm.61-3.912h-.23l-.15-.072h-.172l-.126-.12h-.714l.127-.133.069-.156.057-.157.104-.144h.242l-.012.024v.133l-.092.06.161.156.219-.084-.196-.12.127-.109h.31v.145l-.126.12.104.132.103.12.104.133.092.072zm.933-.264v-.145l.184-.072h.288l-.15.132-.16.085v.288l.068.145v.685h-.322l-.08-.18-.058-.204.127-.097-.07-.18-.057-.169v-.192l.23-.096zm.46 3.104h-.16l-.196.012-.104-.132-.092-.145-.104-.144-.069-.156-.126-.12h.241v.144l.07.156.103.12.092.133h.184l.173.072-.011.06zm4.605-8.52l.219.085v-.193h-.116l-.103.108zm-9.105 4.357h-.104v.3l.104-.168v-.133zm1.036 1.768h.115l-.07-.144-.045.144zm-.956-.89v.156l.139-.132v-.168h-.15v-.12l-.07.071.081.193zm13.468 4.67l.15-.17v-.132l-.115.133-.035.168zm-.483-5.043h-.116v.18h.162l-.046-.18zm-.22 3.333l.174.109.218-.12-.092-.181-.092-.169v-.277h-.15v.41l-.057.228zm0 .782l.081-.156-.15.084v.205l.07-.133zm.346-.493h-.069v.048l.07.06v-.108zm-.103-4.765v.529l-.058.169v.361h.173l.115-.12v-.879l-.092-.157-.07-.168-.08-.18v.06l.07.204-.058.18zm-1.151 7.785h-.426l-.116.157h.634l.172-.084.127-.169h-.253l-.138.096zm-.104-3.345l-.08.157.16.084v-.265l-.08.024zm.886-1.444v.349h.058v-.372l-.058.023zm-4.431 3.971h-.162l-.092.133.023.12.081.144v.073h.207v-.35l-.057-.12zm4.408-7.653l.08.144.058-.12v-.313l-.138-.072h-.034l.069.168-.035.193zm1.6 5.668l-.103.18-.104.169-.058.204-.115-.108-.092.144V31l.07.168.184-.132v.096l.08-.192.07-.18.068-.121v-.469.084zm-.978.24h.15v-.589l-.093.192-.069.193-.115.18.127.024zm-.346 1.998l.058-.132-.127.084-.08.132-.058.145.092-.12.115-.109zm-5.248-10.313h.172l-.23-.084.058.084zm4.846 10.036l.08-.144v-.18l.08-.157.07-.157v-.36l.092-.109.069-.144-.127-.097h-.172l-.058.18-.08.17-.093.168-.15.204-.091.133-.127.108-.115.108-.104.145v.156l.093.157h.529l.104-.18zm-8.587-10.349v-.168l-.173-.036-.138.072-.104.132v.169h.219l.196-.085.057.073.253-.073-.15-.12-.16.036zm-2.256-1.408l-.139.109-.15.084-.114.12-.185.133-.103.204.161-.06.127-.084h.138v.084l.172.06.093.157v.168h.322l.126-.108h.127l.138-.06.207-.085h.806v-.265l.173-.096v-.36l.172-.205h-.069l.092-.217h-.126l.092-.096v-.133h.103-.322l-.15.073-.15.072v.06l-.16.072-.15.072h-.161l-.15.085-.195.072-.162.072-.138.084v-.06h-.16l-.162.072-.104-.024zm-.576 1.288l-.092.144v.169h.288l.08-.217-.103-.18-.173.084zm4.466 1.227h.161l.138-.108h.185v-.096l-.173-.06h-.184l-.104.156-.172.06-.173.096-.092.169-.07.192.127.06.115.085.07-.084v-.169l.126-.12.046-.18zm1.796-.998h-.15v.216h.334l-.08-.132-.104-.084zm-6.204-1.445l.172-.084.15-.12.184-.072.161-.084.092-.133-.173.096c-.29.17-.571.36-.84.566l.15-.072.104-.097zm12.051 10.759l-.195.096-.07.168-.103.157v.505h.161l.104-.156v-.373h-.08l.114-.145.104-.156.092-.18-.127.084zm-13.099-7.666l.15-.06.126-.108v-.169h-.172l-.138.096-.15.085v.132l.184.024zm12.95 8.869l.126-.18.092-.193-.115.192-.103.181zm-12.662-8.82l-.161.096-.139.12-.15.18v.169h.415l.092-.18v-.193l.07-.18.138-.133.103-.169v-.192l-.138.072h-.127v.157l-.126.132.023.12zm0-2.54l-.15.157.161-.157h-.011zm-1.473 22.336S6.4 39.71 6.906 33.935a6.03 6.03 0 00.346 3.85s-3.108-1.202-.415-6.088c0 0 3.454 2.515 1.002 6.113a7.09 7.09 0 002.75 2.996 27.45 27.45 0 012.74 1.938.642.642 0 01-.111.483.569.569 0 01-.418.238" fill="#fff"/><path d="M7.896 39.41a4.542 4.542 0 01-3.101 1.673A4.47 4.47 0 011.462 40s2.993-3.008 6.032-1.312a6.81 6.81 0 00-2.786.638 6.12 6.12 0 013.188.084zm1.577-.132a2.64 2.64 0 01.028-2.07c.143-.323.35-.611.607-.846a2.4 2.4 0 01.885-.514s.357 3.225-1.52 3.43z" fill="#fff"/><path d="M20.006 17.353c-.507-.759-3.89-7.726-20.006-6.523v29.338s.368 6.824 6.47 6.824c6.1 0 10.623-.386 13.49 3.008 1.828-1.744 4.18-2.77 6.653-2.9h6.906s6.47-.41 6.47-7.449v-28.82c-16.116-1.204-19.5 5.764-19.995 6.522" fill="#007DB6"/><g opacity=".5"><mask id="a" style="mask-type:luminance" maskUnits="userSpaceOnUse" x="0" y="0" width="40" height="19"><path d="M40 0H0v18.917h40V0z" fill="#fff"/></mask><g mask="url(#a)"><mask id="b" style="mask-type:luminance" maskUnits="userSpaceOnUse" x="0" y="0" width="40" height="19"><path d="M40 0H0v18.917h40V0z" fill="#fff"/></mask><g mask="url(#b)"><path d="M40 18.917V.084C23.885-1.119 20.5 10.072 20.006 10.83 19.499 10.072 16.116-1.107 0 .084v18.833" fill="#C2C2C2"/></g></g></g><path d="M40 19.254V2.912C23.885 1.71 20.5 12.936 20.006 13.742 19.499 12.985 16.16 1.71 0 2.912v16.342" fill="#fff"/><path d="M40 19.82V5.92c-16.115-1.203-19.5 9.086-19.994 9.844C19.499 15.006 16.116 4.73 0 5.921V19.82" fill="#D53656"/><path d="M40 18.917V9.025c-16.115-1.203-19.5 6.8-19.994 7.57-.507-.77-3.89-8.761-20.006-7.57v9.892" fill="#fff"/><path d="M40 22.25V11.841c-16.115-1.203-19.5 4.754-19.994 5.512-.507-.759-3.89-6.703-20.006-5.512v10.41" fill="#007DB6"/><path d="M23.643 21.492h-.104.104zm-6.826-1.396l-.15.073-.149.096h.207l.173-.096.184-.073.253-.06.219-.12h.322l.184-.072h.403l-.15.072.058.072-.115.12.15.169.16-.108h.208l.161-.133h.196l.161-.12h-.23l-.196.06h.092-.15l-.057-.096.058-.06h-.162l.173-.06h.357-.265.104l-.207.06h-.507l-.172.06.15-.06.183-.06h.346l.138-.06h.345-.058 1.577-.517 2.014l.173.095.16.097.162.06.138.084h.173l.15.072.149.072h.345l.173.073-.207-.157.16.073.15.096.162.084-.023-.084-.161-.06-.15-.097-.173-.06-.15-.084-.16-.06-.162-.084-.195-.073-.162-.06h-.172l-.161-.072-.173-.06h-.173l-.16-.06h-3.824l-.15.072-.172.06h.15l-.173.096h.08-.172l-.172.072-.162.06h-.16l.149-.096h-.299l-.16.072-.162.073-.138.096-.161.096.184-.084.138.084zm3.189-.722h-.265.564-.3zm-.99.073h.483-.207.104-.427.047zm8.92 12.78l.07-.181-.127.144-.104.157-.15.144-.103.169-.069.18h-.08l-.092.12-.104.133-.07.156-.057.157-.172.12-.092.18-.104.157-.138.108-.115.145-.138.12-.139.12-.15.096-.137.12-.104.145-.08.169v.072l-.081.192-.115.157-.15.144h.092l.138-.108.058-.06.138-.12a9.005 9.005 0 002.107-2.756v-.072l-.081.12.15-.229zm-9.968 2.73h-.16l-.093.157-.127.12h-.195l-.15.205.092.205h-.069v.18l.115.12.15.097h.345l.08-.096-.068-.109.103-.108.127-.084v-.337l-.104-.157-.046-.192zm10.28-3.38l-.081.168-.07.168-.057.169v.168-.084l.138-.313v-.156l.058-.133.058-.132-.047.144zM25.61 33.43l.081-.157.104-.144-.092-.193-.173-.096-.127-.144.08-.085.116-.084v-.18l-.092-.169-.115-.144h-.127l-.138-.072v-.434l.15-.144.16.096.174.072.184.06.15-.132.103-.18.115-.169v-.662l-.184-.12-.184-.108v-.18l.069-.17.057-.18.253.06.127-.132.092-.156.104-.145.126-.132v-.193l.104-.168.058-.18.069-.193v-.795l-.116-.12-.126-.12-.138-.145v-.336l.069-.157-.184-.072h-.207l.069-.217.15-.06.126-.084-.023.108h.115l.115.193.138.156.161-.18v-.18l-.092-.145-.103-.157-.116-.144v-.313l-.092-.169v-.18l.104-.072v-.565l-.08-.217-.15-.169v-.156l-.115-.109-.07-.132.127.084.058.048.103.145.139.072v-.144l-.116-.073-.126-.132v-.144l-.127-.109-.115-.12-.138-.072v.168h-.184l-.058.145-.115-.145-.104-.156v-.952h.093l-.104-.156-.08-.157v-.168l-.116-.205.138.12.081.157.104.144.115.133.103.156.127.12.219.12.16.049-.103-.168-.126-.145-.196-.18-.115-.133-.127-.12-.115-.132-.15-.109-.16-.216-.058-.12-.104-.17-.127-.131-.115-.157-.126-.144-.173-.073-.161-.084-.127-.132-.218-.108-.08-.085v.361l.08.157.15.132-.081.205-.104.072v.096h-.092v.084h-.127l-.115.12v.097l-.092.156v.205l-.069.169H23.4l-.138.108-.15.096h-.091l-.081.145-.127.072v-.301h-.447l-.116.229-.207.06h-.219l-.103.192-.184.108v.145l-.092.12h-.058l.115.12-.172.06h-.346v.266l-.115-.193-.092-.217-.127.18v.205l-.057.193h-.161l-.162-.06h-.15l-.149.06h-1.174l-.161-.132-.127.228h-.252l-.15.072h-.162l-.103-.132v-.168l.08-.073.173.12h.323v-.192l-.127-.096-.104-.133-.127-.108-.15-.084-.103-.217-.161-.06h-.38l-.138.06h-.15l-.218.097h-.184l-.162.084-.172.084h-.288l-.138.145-.138.132-.07.168.15.217v.481l.138.12.196-.084.161-.096.15-.132v-.325l.15-.108.172-.085.161-.06h.173l-.115.108-.15.073-.138.072-.069.24.058.145-.07.168-.126.12h-.15l-.115.121-.092.133h-.391l-.127-.085-.115-.108-.092-.108.138-.06v-.181l.07-.18-.14.12-.126.132-.138.133-.092-.085h-.138l-.127-.06-.16.072-.15.097h-.173l-.104-.073h-.138l-.069.169v.168l-.08.157-.127.108-.184-.12-.127-.205-.15.157-.138.132-.08.132v.722h.276l.15-.096.126-.144h.127l.219-.12.126.084h.138l.139.06v.36l.057.17.092.168.07.18-.058.157v.18l.126-.12.115-.145v.085-.47l-.092-.204.07-.24.126.131.057.193.093.205v.228l-.138.084v.782l.126.073.115.084v-.193h.08v-.384l.139-.085.161.133h.184l-.138.12v.542l.138.073.15.072.15.072.15.072h.172v.385l-.161.12-.104.109-.126-.06-.254-.06h-.195l-.139-.109-.126-.108-.138-.156-.15-.12-.138-.121h-.15l-.16.193-.116-.133-.092-.156-.092-.157v-.192l-.161-.097-.07-.168.058-.193v-.397l-.138-.096-.15-.096-.195.144-.127-.12h-.323V26.1l-.206.108h-.208l-.115.169-.138.132h-.195l-.162.157-.08.192-.07.205v.18l-.068.169v1.877l.057.193v.373l.092.18.127.133.092.192.127.144.195.073.08.132.07.144.08.133.139.144.115.157.069.18v.409l.057.193.104.18v.18l.092.17v.18l.092.168.092.157.115.144v.782l.115.133.139.12.103.132.092.145.104.144.103.145.104.144.127.12.115.133c.291.261.599.502.92.722h.508l.16-.133v-.192l.104-.133v-.264l.115-.072h.322l.104-.145-.07-.18v-.193l-.057-.18-.092-.169v-.193l-.069-.18.138-.156.161-.109.184-.072.15-.132.138-.145.184-.084.185-.06.16-.12v-.193l.093-.156.104-.169.138-.12v-.169l-.116-.072-.115-.072h-.771l-.138-.157v-.132h1.082l.161-.072.161-.108h.254l.16-.06h.15l.093-.157.092-.156.115-.145.103-.132-.057-.157v-.156l-.15-.157-.104-.18h.173l.15.084h.172l.139.084.15-.06h.505v.072l.127.109.15.06.115.12.15.169.15.144h.149l.08.12.093.109v.529l.103.109.127.096v.192l.092.133.08.12.081.133h.127l.08.12.115-.133-.08-.156.08-.169.104-.144v-.54l.092-.157.138-.132.161-.096.173-.073.127-.252.184-.109.115-.168.161-.108.173-.073h.207l.15.109.103.144.08.168.104.157h.392l.103.156v.734l.07.169.149.084v.205l.07.18-.082-.084h-.483v.096l.161.145.219.072v.144l.161.084v.157l.058.132h.322l.104.109zm-10.06-.157l-.138-.192h.115v-.06l.104.096-.08.156zm1.151-1.841l-.104-.253-.115-.132-.092-.145-.092-.168v-.18l.104-.157-.08-.156-.208-.072v-.325l-.069-.157v-.337h.138l.138.108.08.157V30l.058.18.081.169.069.156.115.145.092.156.08.217v.517l-.195-.108zm.564-3.91h-.23l-.15-.085h-.172l-.127-.12h-.714l.127-.12.069-.17v-.156l.104-.144h.241l.07.132v.133l-.093.06.162.156.218-.084-.195-.12.126-.109h.311v.133l-.127.12.104.132.104.12.103.133.07-.012zm.933-.266v-.144l.184-.072h.288l-.139.132-.16.096v.277l.068.157.058.156v.517h-.321l-.081-.18-.058-.205.127-.096-.07-.18-.057-.169v-.18l.162-.109zm.46 3.117h-.161l-.15-.06-.103-.133-.093-.144-.103-.132-.07-.169-.126-.12h.242v.156l.069.145.104.12.15.048h.183l.185.073-.127.216zm4.685-8.616l.219.072v-.168h-.185l-.034.096zm-9.14 4.416H14.1v.301l.103-.168v-.133zm1.036 1.745h.092l-.069-.132-.023.132zm-.898-.89v.144l.139-.12v-.169h-.15v-.12.108l.011.157zm13.468 4.657l.104-.109v-.132l-.162.157.058.084zm-.472-5.042h-.127v.192h.162l-.035-.192zm-.23 3.345l.173.096.218-.12-.092-.169-.092-.18v-.277h-.138v.409l-.07.241zm0 .77l.08-.156-.15.084v.204l.07-.132zm.345-.493h-.069v.12l.07.072v-.192zm-.15-4.753v1.058h.173l.115-.132v-.867l-.092-.168-.057-.168-.092-.18.069.204-.115.253zm-1.15 7.797h-.403l-.116.145h.635l.172-.084.127-.157h-.253l-.162.096zm-.104-3.345l-.08.144.16.085v-.265l-.08.036zm.886-1.456v.348-.384.036zm-4.42 3.983h-.161l-.092.132v.157l.08.144v.072h.208v-.348l-.035-.157zm4.42-7.653l.07.156.068-.132v-.313l-.126-.072h-.127l.07.168.045.193zm1.589 5.667l-.104.18-.104.17-.057.204-.115-.096-.092.132v.157l.069.168.184-.132v.096l.08-.18.07-.193.069-.12v-.41.024zm-.979.241h.15v-.541l-.092.192-.07.193-.114.18.126-.024zm-.368 2.118l.058-.132-.116.084-.092.12-.057.145.103-.12.104-.097zm-5.249-10.325h.173l-.23-.084.057.084zm4.846 9.952l.08-.156v-.169l.081-.168.07-.157v-.349l.091-.12.07-.145-.127-.096h-.15l-.057.18-.08.17-.093.168-.138.204-.092.145-.138.096-.116.12-.103.133v.156l.092.157h.53l.081-.169zm-8.587-10.325v-.168l-.161-.06-.138.084-.104.12v.169h.219l.195-.085.058.073.253-.073-.15-.12-.172.06zm-2.302-1.48l-.138.096-.15.084-.115.12-.184.133-.104.217.161-.072.127-.085h.138v.085l.173.072.092.144v.169h.391l.127-.109h.161l.138-.06.207-.084h.772v-.252l.172-.11v-.204l.161-.204h-.069l.092-.217h-.126l.092-.096v-.133h.104-.322l-.15.073-.15.072-.161.072-.15.072h-.161l-.15.085-.195.072-.162.072-.138.084v-.06h-.16l-.15.084-.173-.12zm-.53 1.324l-.103.132v.169h.289l.08-.23-.15-.204-.115.133zm4.559 1.215h.16l.15-.108h.173v-.133l-.173-.06h-.184l-.15.096-.184.06-.16.097-.093.18-.069.18.127.061.115.084.069-.072v-.18l.127-.12.092-.085zm1.795-.999h-.15v.217h.311l-.08-.133-.08-.084zm6.17 8.905v-.144.301-.157zM15.447 20.794l.173-.096.15-.12.184-.073.161-.048.08-.132-.172.096c-.291.17-.572.36-.84.566l.15-.072.114-.12zm12.018 10.71l-.196.096-.069.169-.092.156-.058.18v.338l.162-.072.103-.157v-.373h-.08l.115-.132.103-.169.173-.252-.161.216zm-13.1-7.63l.15-.06.127-.108v-.168l-.161.06-.15.084-.15.097v.12l.184-.024zm12.95 8.882l.127-.193.092-.192-.115.192-.104.193zm-12.662-8.833l-.15.144-.138.12-.138.133v.157h.415l.092-.181v-.192l.069-.181.138-.132.104-.157v-.192h-.139l-.126.06v.156l-.127.133v.132zm0-2.54l-.15.157.162-.156h-.012zM13.18 43.718s-6.389-3.706-5.894-9.53a6.03 6.03 0 00.346 3.85s-3.108-1.203-.415-6.088c.464.322.86.74 1.162 1.228.304.487.509 1.035.602 1.608a4.461 4.461 0 01-.056 1.727 4.36 4.36 0 01-.706 1.562 7.089 7.089 0 002.75 2.984 25.598 25.598 0 012.74 1.95.627.627 0 01-.112.479.558.558 0 01-.417.23z" fill="#fff"/><path d="M8.288 39.711a4.54 4.54 0 01-3.099 1.66 4.471 4.471 0 01-3.324-1.082s2.981-2.985 6.02-1.348a6.733 6.733 0 00-2.774.638 6.001 6.001 0 013.177.132zm1.577-.168a2.639 2.639 0 01.022-2.077c.143-.325.35-.615.609-.85a2.4 2.4 0 01.888-.515s.357 3.213-1.52 3.43m21.791-12.178c-.204-2.932-1.433-5.683-3.454-7.726a12.256 12.256 0 00-3.74-2.6c-.15.446-.438.915-.323 1.084.253.385 0 .577-.138.806-.138.229-.357 0-.53 0a8.966 8.966 0 00-5.177-.471 9.213 9.213 0 00-4.618 2.493 9.68 9.68 0 00-2.82 4.559 10.046 10.046 0 00-.012 5.429 9.82 9.82 0 001.617 3.548 9.342 9.342 0 002.838 2.577l.598.36c-.126.253-.218.627-.322.639-.645 0-.472.637-.84 1.022a13.338 13.338 0 004.834 1.3v1.276h1.255v-1.204a11.2 11.2 0 004.425-1.236 11.674 11.674 0 003.622-2.931 12.273 12.273 0 002.252-4.17c.479-1.532.66-3.149.533-4.755zm-17.658 7.75a9.542 9.542 0 01-2.718-5.583 9.737 9.737 0 011.247-6.126c1.074-1.833 2.717-3.225 4.655-3.943a8.611 8.611 0 015.991-.003c1.939.715 3.584 2.105 4.66 3.937a9.736 9.736 0 011.252 6.125 9.542 9.542 0 01-2.712 5.585 8.803 8.803 0 01-5.468 2.558h-.346a7.81 7.81 0 01-1.588-.072 7.755 7.755 0 01-1.497-.349c-.241 0-.506-.156-.77-.204v-.073a9.41 9.41 0 01-.98-.493 4.174 4.174 0 01-.448-.277 8.731 8.731 0 01-1.313-1.083m15.552-2.106c-1.156 2.536-3.21 4.504-5.726 5.487a9.944 9.944 0 01-7.765-.216l.3-.674a9.249 9.249 0 004.596.77 9.35 9.35 0 004.405-1.576c1.77-1.166 3.118-2.915 3.833-4.97.814-2.34.78-4.91-.096-7.225-.877-2.315-2.534-4.214-4.658-5.338l.345-.746c2.465 1.253 4.354 3.477 5.253 6.184a11.28 11.28 0 01-.453 8.256m-5.939 9.724h-6.826a2.252 2.252 0 00-1.545.673 2.455 2.455 0 00-.7 1.589h11.246a2.457 2.457 0 00-.674-1.566 2.257 2.257 0 00-1.501-.697zm-.806-.434a2.24 2.24 0 00-.794-.313h-3.672a2.403 2.403 0 00-.806.337l.07.169h5.133l.069-.193z" fill="#fff"/></g><defs><clipPath id="clip0_208_7398"><path fill="#fff" d="M0 0h40v50H0z"/></clipPath></defs></svg>