<svg width="360" height="357" fill="none" xmlns="http://www.w3.org/2000/svg"><g clip-path="url(#clip0_34_22625)"><path d="M356.917 178.2a177.625 177.625 0 01-10.203 59.533l-.013.034c-.029.089-.059.17-.093.258v.005a175.656 175.656 0 01-4.765 11.962 177.969 177.969 0 01-15.709 28.283 164.771 164.771 0 01-4.582 6.421 178.109 178.109 0 01-10.627 12.91 172.374 172.374 0 01-6.588 6.904 178.333 178.333 0 01-16.904 14.814 141.29 141.29 0 01-3.163 2.383 174.714 174.714 0 01-7.587 5.291 177.097 177.097 0 01-17.621 10.227 175.606 175.606 0 01-15.71 7.022 137.82 137.82 0 01-3.671 1.384c-.208.08-.415.157-.627.228a177.551 177.551 0 01-45.382 9.897c-1.077.097-2.155.179-3.234.245a127.25 127.25 0 01-3.438.195c-.907.046-1.81.08-2.721.106-.187.008-.378.017-.564.017a161.12 161.12 0 01-3.688.072c-.521.004-1.043.008-1.568.008-.246 0-.492 0-.738-.004a181.117 181.117 0 01-10.589-.347c-.072-.005-.144-.013-.216-.013a184.2 184.2 0 01-3.751-.284 174.032 174.032 0 01-13.171-1.608c-1-.157-1.998-.326-2.992-.508a172.944 172.944 0 01-16.52-3.75 177.007 177.007 0 01-20.969-7.272 177.763 177.763 0 01-11.543-5.325 170.59 170.59 0 01-5.049-2.658 176.49 176.49 0 01-10.992-6.527 171.228 171.228 0 01-7.587-5.164 175.768 175.768 0 01-6.524-4.91 181.525 181.525 0 01-11.589-9.994 174.314 174.314 0 01-7.494-7.466 178.488 178.488 0 01-33.814-50.933 178.783 178.783 0 01-4.84-12.25A177.686 177.686 0 010 178.2C0 103.381 46.178 39.33 111.627 12.918a179.163 179.163 0 01145.819 5.448c58.937 29.092 99.47 89.739 99.47 159.834z" fill="#F8FAFB"/><path d="M257.446 18.366v225.187H111.627V12.918a179.166 179.166 0 01145.819 5.448z" fill="#fff"/><path d="M146.718 121.06c3.956-6.533 8.643-13.508 15.984-15.642 8.501-2.47 17.234 2.438 24.641 7.28a717.867 717.867 0 0163.902 47.014l-.022.254-47.685-3.284c-11.484-.791-23.362-1.691-33.511-7.115-3.851-2.059-7.605-4.809-11.969-5-5.422-.238-10.149 3.543-13.864 7.493-21.976 23.368-28.336 59.102-52.99 79.633a780.848 780.848 0 0155.514-110.633z" fill="#F8FAFB"/><path d="M268.112 24.111c-.369-.245-.742-.478-1.111-.715a161.27 161.27 0 00-34.042-16.479l-2.773 38.188h-17.574V1.343a145.507 145.507 0 00-3.336-.648v44.41h-20.885a43.385 43.385 0 01-30.655-12.678 43.26 43.26 0 01-12.697-30.61c-1.119.241-2.23.5-3.34.775v42.514h-17.011L122.047 8.69a161.535 161.535 0 00-34.733 18.425c-.187.127-.373.258-.556.385a144.54 144.54 0 00-2.78 2.003v212.565h50.133l-.886-12.254-4.874-134.157h98.169l-4.875 134.157-.886 12.254h49.578V25.584c-.737-.5-1.479-.99-2.225-1.473zM141.699 84.546h-14.154l-2.615-36.105h16.769v36.105zm67.577 0h-23.772v-.715a2.612 2.612 0 00-1.62-2.418 2.63 2.63 0 00-1.004-.198h-10.335a2.62 2.62 0 00-2.619 2.616v.715h-24.887V48.441h64.237v36.105zm3.336 0V48.441h17.333l-2.616 36.105h-14.717z" fill="#424242"/><path d="M346.714 237.73l-.013.034a5.33 5.33 0 01-.093.258v.004a175.13 175.13 0 01-4.764 11.962l-326.923-.356a178.783 178.783 0 01-4.84-12.249l336.633.347z" fill="#424242"/><path d="M224.54 239.125h-57.225v7.619h57.225v-7.619zM91.565 313.734c.203-1.79.485-3.57.844-5.337a61.834 61.834 0 0112.284-26.218c3.497.194 6.562-.339 6.854-7.103.055-1.202.95-2.247 1.145-3.433-.331.047-.674.072-1.005.094-.106.004-.216.012-.318.016h-.038a1.901 1.901 0 01-1.564-3.098c.144-.173.288-.351.432-.529.216-.275.441-.542.661-.813l.073-.084c.25-.309.5-.618.754-.927a5.494 5.494 0 00-1.806-1.744c-2.522-1.477-6.002-.453-7.825 1.824-1.827 2.277-2.174 5.477-1.538 8.322.542 2.438 1.725 4.673 3.052 6.798-.136.173-.28.342-.416.52a62.33 62.33 0 00-6.507 10.294c.517-4.034-5.803-18.594-8.249-21.68-2.937-3.704-8.956-2.087-9.474 2.612-.004.042-.012.089-.017.135.365.203.721.419 1.069.652a2.604 2.604 0 011.096 2.727 2.599 2.599 0 01-2.148 2.009l-.055.009c-4.857 6.929 10.72 24.965 14.625 20.918a61.377 61.377 0 00-2.344 8.44 62.352 62.352 0 00-1.086 7.657 60.165 60.165 0 00.047 9.732 1.073 1.073 0 01-.017-.115c-.869-7.052-15.735-17.536-20.075-16.664-2.501.504-4.964.389-4.583 2.908.004.042.013.08.017.122.674.272 1.33.587 1.963.944.364.204.72.424 1.068.652a2.606 2.606 0 01-.665 4.652 192.712 192.712 0 005.616 4.258c.301.22.602.44.907.652a172.178 172.178 0 007.588 5.164 179.717 179.717 0 0010.991 6.527 60.662 60.662 0 01-1.72-14.311c-.002-2.199.12-4.396.364-6.582zm2.319-15.124l.008-.012a.032.032 0 01-.008.021v-.009zm-3.379 30.438l-.131-.292c.004-.216.004-.427 0-.647 0-.06-.013-.119-.013-.178.051.376.093.753.148 1.13l-.004-.013zm19.47.576c.046-.195.084-.33.131-.525-.017-.042-.034-.085-.051-.123-1.411-3.356-8.863 3.412-12.085 8.309 3.773 1.905 7.62 3.68 11.543 5.325.262-.33.534-.656.801-.986.025-.03.046-.055.067-.085.577-.711 1.158-1.414 1.73-2.125.004-.139.004-.279.004-.415a25.427 25.427 0 00-.746-6.048 1.92 1.92 0 01-1.862-1.177 1.914 1.914 0 01.468-2.15z" fill="#fff"/><path d="M201.67 241.527a8.463 8.463 0 0012.499-3.452l29.925 2.795-7.347-13.763-27.29-.544a8.516 8.516 0 00-6.042.013 8.497 8.497 0 00-4.508 4.016 8.474 8.474 0 00-.699 5.992 8.49 8.49 0 003.462 4.943z" fill="#F7D7DD"/><path d="M232.013 240.595l41.41 4.635.143-.182c.273-.348 27.368-34.982 31.921-43.227a24.896 24.896 0 002.891-16.326l-.031-.137-.108-.091a12.682 12.682 0 00-15.84-.347 89.623 89.623 0 00-25.895 31.95l-3.425 7.12-31.066 3.06v13.545z" fill="#D53656"/><path d="M198.416 337.45l-7.978 18.548c-1.144.081-2.29.146-3.437.195-.907.046-1.81.08-2.722.106l-.309.097-.254-.08c-1.226.038-2.455.062-3.688.072-.522.004-1.043.008-1.569.008-.246 0-.491 0-.737-.004l.53-1.812.623-2.146 2.475-8.499 3.574-12.271 5.315 2.277 8.177 3.509zm57.484 1.339a174.705 174.705 0 01-12.547 5.456l-4.171-7.005 13.446-5.896 3.272 7.445z" fill="#F7D7DD"/><path d="M284.271 306.953v14.756a175.596 175.596 0 01-7.587 5.291v-20.047h7.587z" fill="#EDEDED"/><path d="M310.926 297.609a173.06 173.06 0 01-6.587 6.904 178.622 178.622 0 01-16.905 14.815h-33.827a6.315 6.315 0 01-4.743-2.146l-.004-.013a6.226 6.226 0 01-1.425-2.794l-.004-.008a6.49 6.49 0 01-.144-1.355v-9.087a6.314 6.314 0 011.852-4.463 6.337 6.337 0 014.468-1.853h57.319z" fill="#424242"/><path d="M324.863 262.139l-3.667 15.687c.359 2.273.478 4.577.356 6.874a177.026 177.026 0 01-10.627 12.91 172.349 172.349 0 01-6.587 6.904c-5.883 1.845-12.818 2.599-20.067 2.649-2.501.021-5.04-.046-7.588-.182-10.33-.541-20.779-2.197-29.337-3.915a238.875 238.875 0 01-6.35-1.35 255.657 255.657 0 01-9.059-2.206c-2.53-.66-3.971-1.087-3.971-1.087l-9.627 16.097-8.741 14.611-11.263 14.354c-1.076.097-2.154.179-3.234.245-1.144.081-2.29.145-3.438.195-.907.046-1.81.08-2.721.106l-.309.097-.255-.08-4.086-1.3-1.378-.436-4.955-1.574s1.106-3.48 3.044-9.283c.712-2.129 5.756-17.871 11.033-31.614a731.494 731.494 0 014.85-12.339 645.567 645.567 0 014.162-10.074c2.446-5.761 14.264-8.868 28.181-10.497.708-.081 1.42-.161 2.136-.237 7.092-.745 14.616-1.13 21.652-1.308a421.199 421.199 0 0113.065-.119h.004c2.607.013 5.006.051 7.117.093.411.009.81.022 1.2.03h.004c.263.004.521.013.776.017 4.616.119 7.448.262 7.448.262l1.097-8.601.225-1.735.212-1.651v-.004l.025-.207.174-.005 3.052-.059 25.654-.499 10.927-.463.866 9.694z" fill="#424242"/><path d="M255.248 331.726a149.677 149.677 0 01-3.162 1.566 175.827 175.827 0 01-12.548 5.456 137.82 137.82 0 01-3.671 1.384c-.135-.191-.275-.381-.415-.572-5.884-8.063-9.546-13.202-17.113-25.041a467.75 467.75 0 01-9.44-15.39l22.373-10.43 2.51-1.168 7.215 14.184 6.434 12.652 1.433 2.815 6.384 14.544z" fill="#424242"/><path d="M291.538 160.867c11.383 0 20.612-9.215 20.612-20.582s-9.229-20.582-20.612-20.582c-11.384 0-20.612 9.215-20.612 20.582s9.228 20.582 20.612 20.582z" fill="#F7D7DD"/><path d="M328.331 204.262c-.17-16.998.331-12.076-1.017-17.93-3.62-15.737-18.647-18.607-21.267-18.962a5.774 5.774 0 00-3.209-3.309 5.796 5.796 0 00-4.612.088l-5.015 2.597c-4.862 2.222-1.911 5.432-3.59 10.499l-1.763 5.375-14.451 39.886 2.925 15.174.004.009 1.971 10.222 5.845 6.648-.109-1.061-.132.203-.004.004-.339.504c.47.258.937.512 1.395.766a787.73 787.73 0 013.471 1.918c.272.152.539.3.806.453h.004c.169.093.339.186.504.279 4.231 2.362-11.428 6.662-7.948 8.681.484.28.963.559 1.433.834 16.023 9.359 28.808 21.016 32.941 24.402a175.487 175.487 0 005.379-6.844 168.667 168.667 0 004.582-6.421c.259-1.702.433-3.403.602-5.071.204-2.007-.856-20.593-.5-22.637.157-.906-.445-1.765-1.026-2.595-.538-.774-1.047-1.502-.941-2.188.11-.707.89-1.477 1.649-2.227.827-.821 1.683-1.667 1.806-2.56.339-2.489-1.056-4.987-.793-7.492.432-4.076.764-8.165.996-12.267.327-5.663.461-11.323.403-16.978z" fill="#D53656"/><path d="M212.072 245.952a8.46 8.46 0 0110.182-1.604 8.469 8.469 0 012.762 2.406l28.702-8.902-4.343 14.98-26.591 6.157a8.51 8.51 0 01-11.155-1.768 8.489 8.489 0 01-1.923-5.719 8.486 8.486 0 012.366-5.55z" fill="#F7D7DD"/><path d="M246.869 254.238l53.276-10.968-13.827 3.42c.157-.414 15.697-41.533 17.584-50.757a24.898 24.898 0 00-2.108-16.446l-.071-.121-.13-.055a12.684 12.684 0 00-15.225 4.378 89.54 89.54 0 00-15.193 38.201l-1.147 7.815-18.783 5.611-4.376 18.922z" fill="#D53656"/><path d="M147.583 237.485a2.715 2.715 0 002.621 1.833l11.23-.289a2.685 2.685 0 002.535-1.971l1.589-16.968a4.166 4.166 0 001.797.369 4.09 4.09 0 002.719-7.052 4.096 4.096 0 00-2.925-1.124 3.438 3.438 0 00-.736.076 2.777 2.777 0 00-2.066-.89l-17.274.445a2.557 2.557 0 00-.426.053 2.703 2.703 0 00-1.829 1.28 2.694 2.694 0 00-.236 2.218l3.001 22.02zm18.301-18.547l1.131-4.043c.129-.467.132-.96.009-1.429.055 0 .103-.026.158-.026a2.923 2.923 0 01.137 5.849 2.77 2.77 0 01-1.435-.351z" fill="#424242"/><path d="M146.647 211.968c.368 2.101 4.506 3.578 9.481 3.321 4.575-.21 8.316-1.814 9.001-3.716a2.58 2.58 0 00-.782-.104l-17.273.446a2.456 2.456 0 00-.427.053zm-75.119-15.359v36.276a1.744 1.744 0 001.746 1.744h53.837a1.748 1.748 0 001.746-1.744v-36.276a1.749 1.749 0 00-1.746-1.742H73.274a1.749 1.749 0 00-1.746 1.742z" fill="#424242"/><path d="M72.791 197.059v35.377a.935.935 0 00.934.932h52.938a.936.936 0 00.933-.932v-35.377a.937.937 0 00-.933-.934H73.725a.938.938 0 00-.933.934z" fill="#007DB6"/><path d="M70.403 239.96a1.05 1.05 0 00.824.393h57.646a1.055 1.055 0 00.822-.392 1.062 1.062 0 00.215-.884l-.895-4.244a1.06 1.06 0 00-1.037-.841h-55.86a1.065 1.065 0 00-1.037.841l-.895 4.244a1.058 1.058 0 00.217.883z" fill="#424242"/><path d="M125.999 235.82h1.362a.207.207 0 00.207-.206v-.651a.207.207 0 00-.207-.206h-1.362a.207.207 0 00-.207.206v.651c0 .114.093.206.207.206zm-3.55 0h1.361a.207.207 0 00.207-.206v-.651a.207.207 0 00-.207-.206h-1.361a.206.206 0 00-.207.206v.651c0 .114.092.206.207.206zm-3.551 0h1.361a.206.206 0 00.207-.206v-.651a.206.206 0 00-.207-.206h-1.361a.206.206 0 00-.207.206v.651c0 .114.092.206.207.206zm-3.551 0h1.361a.207.207 0 00.207-.206v-.651a.207.207 0 00-.207-.206h-1.361a.206.206 0 00-.207.206v.651c0 .114.092.206.207.206zm-3.551 0h1.361a.206.206 0 00.207-.206v-.651a.206.206 0 00-.207-.206h-1.361a.206.206 0 00-.207.206v.651c0 .114.092.206.207.206zm-3.551 0h1.362a.206.206 0 00.206-.206v-.651a.206.206 0 00-.206-.206h-1.362a.207.207 0 00-.207.206v.651c0 .114.093.206.207.206zm-3.551 0h1.361a.206.206 0 00.207-.206v-.651a.206.206 0 00-.207-.206h-1.361a.206.206 0 00-.207.206v.651c0 .114.092.206.207.206zm-3.551 0h1.361a.206.206 0 00.207-.206v-.651a.206.206 0 00-.207-.206h-1.361a.207.207 0 00-.207.206v.651c0 .114.093.206.207.206zm-3.551 0h1.362a.206.206 0 00.207-.206v-.651a.206.206 0 00-.207-.206h-1.362a.206.206 0 00-.207.206v.651c0 .114.093.206.207.206zm-3.552 0h1.362a.206.206 0 00.207-.206v-.651a.206.206 0 00-.207-.206h-1.361a.206.206 0 00-.207.206v.651c0 .114.093.206.207.206zm-3.55 0h1.362a.206.206 0 00.207-.206v-.651a.206.206 0 00-.207-.206H90.49a.206.206 0 00-.207.206v.651c0 .114.093.206.207.206zm-3.55 0h1.36a.206.206 0 00.208-.206v-.651a.206.206 0 00-.207-.206h-1.362a.206.206 0 00-.207.206v.651c0 .114.093.206.207.206zm-3.552 0h1.362a.206.206 0 00.207-.206v-.651a.206.206 0 00-.207-.206h-1.362a.206.206 0 00-.206.206v.651c0 .114.092.206.206.206zm-3.55 0h1.361a.206.206 0 00.207-.206v-.651a.206.206 0 00-.207-.206h-1.361a.206.206 0 00-.207.206v.651c0 .114.092.206.207.206zm-3.551 0h1.361a.206.206 0 00.208-.206v-.651a.206.206 0 00-.207-.206h-1.362a.206.206 0 00-.207.206v.651c0 .114.093.206.207.206zm-3.551 0h1.361a.206.206 0 00.207-.206v-.651a.206.206 0 00-.207-.206h-1.361a.206.206 0 00-.207.206v.651c0 .114.092.206.207.206zm53.306 1.774h1.361a.207.207 0 00.207-.207v-.65a.207.207 0 00-.207-.207h-1.361a.207.207 0 00-.207.207v.65c0 .114.093.207.207.207zm-3.551 0h1.362a.207.207 0 00.207-.207v-.65a.207.207 0 00-.207-.207h-1.362a.207.207 0 00-.207.207v.65c0 .114.093.207.207.207zm-3.551 0h1.361a.207.207 0 00.207-.207v-.65a.207.207 0 00-.207-.207h-1.361a.207.207 0 00-.207.207v.65c0 .114.092.207.207.207zm-3.551 0h1.362a.207.207 0 00.207-.207v-.65a.207.207 0 00-.207-.207h-1.362a.207.207 0 00-.207.207v.65c0 .114.093.207.207.207zm-3.551 0h1.362a.207.207 0 00.207-.207v-.65a.207.207 0 00-.207-.207h-1.362a.207.207 0 00-.207.207v.65c0 .114.093.207.207.207zm-3.551 0h1.362a.207.207 0 00.206-.207v-.65a.207.207 0 00-.206-.207h-1.362a.207.207 0 00-.207.207v.65c0 .114.093.207.207.207zm-3.551 0h1.362a.207.207 0 00.207-.207v-.65a.207.207 0 00-.207-.207h-1.362a.207.207 0 00-.207.207v.65c0 .114.093.207.207.207zm-3.551 0h1.362a.207.207 0 00.207-.207v-.65a.207.207 0 00-.207-.207h-1.362a.207.207 0 00-.207.207v.65c0 .114.093.207.207.207zm-3.551 0h1.362a.207.207 0 00.207-.207v-.65a.207.207 0 00-.207-.207h-1.362a.207.207 0 00-.207.207v.65c0 .114.093.207.207.207zm-3.551 0h1.362a.207.207 0 00.207-.207v-.65a.207.207 0 00-.207-.207h-1.362a.207.207 0 00-.207.207v.65c0 .114.093.207.207.207zm-3.551 0h1.362a.207.207 0 00.207-.207v-.65a.207.207 0 00-.207-.207h-1.362a.207.207 0 00-.207.207v.65c0 .114.093.207.207.207zm-3.551 0h1.362a.207.207 0 00.207-.207v-.65a.207.207 0 00-.207-.207H86.98a.207.207 0 00-.207.207v.65c0 .114.093.207.207.207zm-3.551 0h1.362a.207.207 0 00.207-.207v-.65a.207.207 0 00-.207-.207H83.43a.207.207 0 00-.207.207v.65c0 .114.093.207.207.207zm-3.55 0h1.36a.207.207 0 00.208-.207v-.65a.207.207 0 00-.207-.207h-1.362a.207.207 0 00-.207.207v.65c0 .114.093.207.207.207zm-3.552 0h1.362a.207.207 0 00.207-.207v-.65a.207.207 0 00-.207-.207h-1.362a.207.207 0 00-.207.207v.65c0 .114.093.207.207.207zm-3.55 0h1.361a.207.207 0 00.207-.207v-.65a.207.207 0 00-.207-.207h-1.361a.207.207 0 00-.207.207v.65c0 .114.092.207.207.207zm23.791 2.133h13.789a.207.207 0 00.207-.207v-.651a.206.206 0 00-.207-.206h-13.79a.206.206 0 00-.206.206v.651c0 .114.092.207.207.207zm103.915-1.741l24.094-21.034c1.145-1-1.039 1.98-.038 3.124 1.002 1.144 4.81.018 3.665 1.019l-24.094 21.034-6.102 1.391 2.475-5.534z" fill="#424242"/><path d="M200.484 237.986l.584-.509a6.68 6.68 0 012.047 1.586 6.746 6.746 0 011.44 2.679l-.444.387-4.863 1.108-1.239.283.517-1.159 1.958-4.375z" fill="#E0E0E0"/><path d="M198.526 242.367a1.26 1.26 0 01.722.876l-1.239.283.517-1.159zm159.162-71.797c-2.272 3.395-5.909 5.744-9.826 6.908a20.55 20.55 0 01-4.892.83 18.45 18.45 0 00-1.453-5.426 15.226 15.226 0 01-.755 5.413 18.192 18.192 0 01-7.151-1.913c-4.345-2.222-7.689-6.472-8.431-11.293-.874-5.63 1.683-11.158 2.607-16.779.928-5.621-.814-12.74-6.325-14.218-4.196-1.125-3.726-.639-7.214 1.948 3.628 5.357-9.775 24.992-15.261 23.28-3.101-.968-5.086-3.81-5.726-3.81-4.311 7.416 3.806 19.911-4.375 22.506l.674-.673c4.938-6.066-5.383-18.904-.445-24.969 1.378-1.698 2.844-3.708 2.437-5.854-.385-2.04-3.628-3.12-4.578-1.444 1.709-3.906-.814-9.121-4.989-10.124-3.709-.893-3.641.207-7.363.685a18.421 18.421 0 00-1.352-4.66 15.109 15.109 0 01-.555 4.749 5.977 5.977 0 01-3.612-1.303c-3.035-2.443-2.42-7.573.288-10.371 2.713-2.798 6.744-3.805 10.589-4.457 1.118-7.771 22.592-8.582 25.438-.817 1.212-5.799 8.482-8.808 14.132-7.009 5.651 1.799 9.572 7.069 11.636 12.622 2.065 5.549 2.641 11.522 3.913 17.303 1.271 5.782 3.421 11.67 7.846 15.611 4.425 3.936 11.636 5.24 16.299 1.583 1.471 3.809.712 8.284-1.556 11.682z" fill="#424242"/></g><defs><clipPath id="clip0_34_22625"><path fill="#fff" d="M0 0h360v356.4H0z"/></clipPath></defs></svg>