<svg width="17" height="16" fill="none" xmlns="http://www.w3.org/2000/svg"><path opacity=".2" d="M8.957 13.502c-.18.153-.335.278-.457.373a15.76 15.76 0 01-2.123-2.016C5.156 10.455 4 8.57 4 6.5a4.5 4.5 0 019 0c0 2.07-1.156 3.955-2.377 5.36a15.761 15.761 0 01-1.666 1.642zM7.111 8.579A2.5 2.5 0 109.89 4.42a2.5 2.5 0 00-2.78 4.16z" fill="#007DB6" stroke="#007DB6"/><path d="M8.5 8.5a2 2 0 100-4 2 2 0 000 4z" stroke="#007DB6" stroke-linecap="round" stroke-linejoin="round"/><path d="M13.5 6.5c0 4.5-5 8-5 8s-5-3.5-5-8a5 5 0 1110 0v0z" stroke="#007DB6" stroke-linecap="round" stroke-linejoin="round"/></svg>