<svg width="500" height="509" fill="none" xmlns="http://www.w3.org/2000/svg"><g clip-path="url(#clip0_34_23299)"><path d="M497.154 30.776L.932 91.36a.295.295 0 01-.168-.03.388.388 0 01-.138-.117.602.602 0 01-.092-.188.918.918 0 010-.487.796.796 0 01.095-.21.558.558 0 01.137-.152.356.356 0 01.168-.07l496.22-61.418c.156-.02.315-.013.468.024.137.032.267.092.382.177a.849.849 0 01.352.693 1.007 1.007 0 01-.094.418c-.064.136-.151.26-.258.364-.112.11-.241.202-.382.27a1.467 1.467 0 01-.468.143zm.894 478.22L.818 457.622a.297.297 0 01-.158-.065.396.396 0 01-.108-.146.6.6 0 01-.05-.204.914.914 0 01.106-.475.781.781 0 01.138-.184.533.533 0 01.166-.117.346.346 0 01.18-.031L498.5 506.957c.156.015.309.058.45.128.128.062.242.15.335.257a.853.853 0 01.194.755.992.992 0 01-.182.387 1.25 1.25 0 01-.331.297 1.478 1.478 0 01-.918.215z" fill="#C2C2C2"/><path d="M10.786 67.29a3.34 3.34 0 011.904.262 4.21 4.21 0 011.562 1.266 6.47 6.47 0 011.057 2.075c.263.87.393 1.774.387 2.683 0 .944-.13 1.883-.387 2.79a9.003 9.003 0 01-1.057 2.38 6.422 6.422 0 01-1.562 1.714c-.559.425-1.214.7-1.904.8a3.341 3.341 0 01-1.894-.293 4.263 4.263 0 01-1.54-1.283 6.52 6.52 0 01-1.035-2.064 9.067 9.067 0 01-.38-2.65c0-.932.128-1.86.38-2.757.23-.834.579-1.63 1.034-2.362a6.496 6.496 0 011.54-1.724 4.186 4.186 0 011.895-.837zm17.242-2.626a3.561 3.561 0 011.992.262c.64.29 1.201.73 1.637 1.287.495.63.87 1.349 1.106 2.119.275.887.411 1.813.404 2.743 0 .967-.136 1.93-.406 2.857a9.144 9.144 0 01-1.104 2.433 6.66 6.66 0 01-1.634 1.759 4.393 4.393 0 01-1.992.83 3.56 3.56 0 01-1.982-.296 4.419 4.419 0 01-1.612-1.308 6.588 6.588 0 01-1.084-2.108 9.07 9.07 0 01-.397-2.708c0-.955.134-1.905.397-2.821a9.182 9.182 0 011.082-2.42 6.732 6.732 0 011.611-1.767 4.446 4.446 0 011.982-.862zm18.049-2.75a3.806 3.806 0 012.087.258 4.545 4.545 0 011.712 1.315 6.611 6.611 0 011.16 2.166c.288.906.432 1.852.426 2.804 0 .991-.143 1.977-.426 2.925a9.291 9.291 0 01-1.16 2.498 6.913 6.913 0 01-1.712 1.806 4.674 4.674 0 01-2.087.854A3.803 3.803 0 0144 76.245a4.587 4.587 0 01-1.688-1.333 6.665 6.665 0 01-1.132-2.155 9.075 9.075 0 01-.415-2.767c0-.979.14-1.953.415-2.891a9.333 9.333 0 011.132-2.48A6.987 6.987 0 0144 62.803a4.733 4.733 0 012.076-.89zM470.412 4.119l-30.258 4.44a2.248 2.248 0 01-.85-.032 1.836 1.836 0 01-.693-.327 1.618 1.618 0 01-.638-1.31 2.02 2.02 0 01.171-.8c.114-.26.272-.498.467-.703a2.683 2.683 0 011.543-.815L470.411.03c.297-.047.601-.038.895.026.264.057.513.168.732.327a1.648 1.648 0 01.674 1.35 2.003 2.003 0 01-.181.824 2.516 2.516 0 01-.493.725 2.86 2.86 0 01-1.627.839l.001-.002zm0 7.665l-30.258 4.252c-.283.042-.571.03-.85-.037a1.846 1.846 0 01-.693-.327 1.631 1.631 0 01-.638-1.323 2.01 2.01 0 01.171-.798c.114-.26.272-.496.467-.7a2.698 2.698 0 011.543-.802l30.257-4.354c.298-.045.601-.034.895.032.264.06.513.173.732.334.207.152.376.35.495.58.12.239.182.503.18.771a2.013 2.013 0 01-.182.823 2.493 2.493 0 01-.494.72 2.84 2.84 0 01-1.627.828l.002.001zm0 7.669l-30.258 4.056c-.283.04-.571.026-.85-.043a1.864 1.864 0 01-.693-.333 1.637 1.637 0 01-.638-1.319c.001-.275.059-.547.171-.798.114-.258.272-.494.467-.697a2.68 2.68 0 01.693-.523 2.6 2.6 0 01.85-.273l30.257-4.158c.298-.043.602-.03.895.038.264.06.513.176.732.338.207.153.376.353.495.583.12.24.182.504.18.772a2.007 2.007 0 01-.182.822 2.467 2.467 0 01-.494.72 2.817 2.817 0 01-1.627.817l.002-.002z" fill="#424242"/><path d="M326.559 90.244L472.713 77.68v88.424l-146.154 1.936V90.244z" fill="#EDEDED"/><path d="M440.451 206.075l-86.798-1.75a3.878 3.878 0 01-2.673-1.143 3.812 3.812 0 01-.807-1.197 3.69 3.69 0 010-2.891c.19-.441.465-.84.807-1.172a3.72 3.72 0 012.673-1.054l86.797 1.16a4.807 4.807 0 011.72.34c.518.205.996.504 1.408.883.398.364.721.804.952 1.295.229.493.348 1.032.349 1.577a3.68 3.68 0 01-.349 1.566c-.23.483-.553.913-.952 1.265a4.36 4.36 0 01-1.408.837 4.753 4.753 0 01-1.72.282l.001.002zm-14.912-13.902l-58.762-.501a3.93 3.93 0 01-2.737-1.126 3.808 3.808 0 01-.827-1.202 3.68 3.68 0 010-2.928c.196-.449.477-.854.827-1.193a3.841 3.841 0 011.229-.804 3.94 3.94 0 011.508-.294l58.762.102c.573 0 1.141.107 1.676.315.506.197.971.488 1.373.857.389.357.705.789.928 1.271a3.701 3.701 0 010 3.103 3.956 3.956 0 01-.928 1.26 4.325 4.325 0 01-1.373.843 4.585 4.585 0 01-1.675.298l-.001-.001z" fill="#E0E0E0"/><path d="M326.559 231.711l146.154 6.763v88.425l-146.154-17.392v-77.796z" fill="#EDEDED"/><path d="M440.45 362.603l-86.798-13.229a4.303 4.303 0 01-1.473-.517 4.68 4.68 0 01-2.007-2.283 3.988 3.988 0 01-.296-1.491 3.37 3.37 0 01.296-1.403c.187-.411.463-.774.808-1.063.35-.292.76-.505 1.199-.622a3.624 3.624 0 011.473-.078l86.798 12.638a5.32 5.32 0 011.719.567 5.5 5.5 0 011.408 1.07c.397.415.719.896.952 1.423a4.08 4.08 0 01.349 1.624 3.37 3.37 0 01-.349 1.519 3.273 3.273 0 01-.952 1.14 3.712 3.712 0 01-1.408.65 4.542 4.542 0 01-1.719.054v.001zm-14.911-15.869l-58.762-8.272a4.385 4.385 0 01-1.508-.509 4.728 4.728 0 01-2.055-2.289 3.99 3.99 0 01-.304-1.506c-.003-.491.1-.977.303-1.422.193-.419.476-.79.827-1.084.36-.3.779-.519 1.229-.642a3.761 3.761 0 011.508-.094l58.762 7.872c.585.08 1.152.261 1.676.537.51.268.974.618 1.373 1.038.387.406.701.877.927 1.392.222.503.337 1.048.341 1.599a3.403 3.403 0 01-.341 1.504c-.22.446-.537.835-.927 1.138a3.69 3.69 0 01-1.373.661 4.38 4.38 0 01-1.676.076v.001z" fill="#E0E0E0"/><path d="M241.656 310.176L11.864 280.315a3.73 3.73 0 01-1.724-.723 5.73 5.73 0 01-1.403-1.536 8.024 8.024 0 01-.943-2.126 9.197 9.197 0 01-.346-2.501V126.138a9.023 9.023 0 01.346-2.486 7.626 7.626 0 01.943-2.08 5.346 5.346 0 011.402-1.471 3.563 3.563 0 011.724-.643l229.793-19.097a6.657 6.657 0 012.902.393c.928.345 1.77.892 2.467 1.602a7.596 7.596 0 011.64 2.518 8.606 8.606 0 01.605 3.201v194.742a8.371 8.371 0 01-.605 3.171 7.117 7.117 0 01-1.64 2.442 6.407 6.407 0 01-2.421 1.471 6.595 6.595 0 01-2.948.275z" fill="#fff"/><path d="M150.795 201.564a15.261 15.261 0 00-2.074-2.236 13.6 13.6 0 00-2.358-1.674 12.201 12.201 0 00-2.564-1.072 11.275 11.275 0 00-2.692-.434 11.008 11.008 0 00-2.685.23 11.37 11.37 0 00-2.546.867c-.83.398-1.614.889-2.337 1.463a13.776 13.776 0 00-2.055 2.021l-61.831 74.999a7.027 7.027 0 01-2.667 2.042 5.9 5.9 0 01-3.012.429 6.9 6.9 0 01-2.991-1.125 9.674 9.674 0 01-2.616-2.622l-8.19-11.951a12.894 12.894 0 00-3.555-3.573 8.906 8.906 0 00-4.004-1.455 7.63 7.63 0 00-3.965.681 9.421 9.421 0 00-3.453 2.831l-14.818 19.07 207.146 26.544v-3.729l-76.733-101.306z" fill="#007DB6"/><path d="M241.654 312.991l-229.79-30.515a5.01 5.01 0 01-2.31-.976 7.693 7.693 0 01-1.875-2.061 10.776 10.776 0 01-1.26-2.848 12.318 12.318 0 01-.462-3.343v-147c0-1.124.155-2.242.463-3.322.278-.989.703-1.929 1.26-2.788a7.165 7.165 0 011.874-1.974 4.784 4.784 0 012.309-.868L241.654 97.54a8.941 8.941 0 013.897.517 9.053 9.053 0 013.314 2.144 10.158 10.158 0 012.207 3.378c.544 1.366.82 2.826.815 4.299v195.256a11.217 11.217 0 01-.815 4.261 9.527 9.527 0 01-2.207 3.275 8.6 8.6 0 01-3.255 1.968 8.859 8.859 0 01-3.956.354v-.001zM11.864 121.619a2.35 2.35 0 00-1.139.421c-.367.26-.682.589-.927.969a5.045 5.045 0 00-.623 1.374 5.954 5.954 0 00-.23 1.642v147.581c0 .559.077 1.115.23 1.652.138.497.349.97.623 1.404.246.394.56.739.928 1.018.335.252.726.415 1.139.474l229.791 29.2a4.238 4.238 0 003.536-1.158 4.69 4.69 0 001.077-1.61 5.515 5.515 0 00.397-2.087v-194.23a5.663 5.663 0 00-.397-2.106 4.994 4.994 0 00-1.077-1.659 4.441 4.441 0 00-1.624-1.06 4.403 4.403 0 00-1.912-.265l-229.793 18.44z" fill="#C2C2C2"/><path d="M44.093 466.268l6.909-.001 3.286-27.048-10.196.001v27.048z" fill="#F7D7DD"/><path d="M42.331 463.977h13.606c2.3 0 4.506.927 6.132 2.577a8.87 8.87 0 012.54 6.223v.286l-22.277.001v-9.087z" fill="#6A1B2B"/><path d="M107.774 475.522l6.909-.001 3.287-27.048h-10.197l.001 27.049z" fill="#F7D7DD"/><path d="M106.013 473.231l13.606-.001c2.3.001 4.506.928 6.132 2.578a8.87 8.87 0 012.54 6.223v.286l-22.278.001v-9.087z" fill="#6A1B2B"/><path d="M99.433 258.223l4.509 29.171-42.83.572 5.635-28.027 32.686-1.716z" fill="#F7D7DD"/><path d="M102.698 280.273l13.641 36.867 1.691 152.779h-11.553l-27.614-122.75-25.36 110.291h-11.27l7.89-125.163s-2.328-26.979 9.58-42.899L62.6 280.9l40.097-.627z" fill="#424242"/><path d="M44.185 309.01a8.415 8.415 0 003.243-1.732 8.57 8.57 0 002.216-2.962 8.687 8.687 0 00-.042-7.26l18.22-60.293-13.401-2.697-16.665 59.1a8.595 8.595 0 00-3.885 4.693 8.747 8.747 0 00.166 6.127 8.577 8.577 0 004.133 4.469 8.384 8.384 0 006.015.555z" fill="#F7D7DD"/><path d="M68.216 274.334c-.25 0-.5-.025-.745-.074a3.845 3.845 0 01-2.13-1.244 3.942 3.942 0 01-.955-2.298c-.423-5.887-2.523-16.135-6.239-30.459a24.45 24.45 0 01.795-14.714 24.045 24.045 0 019.083-11.495 23.496 23.496 0 0113.977-3.983 23.537 23.537 0 0113.65 5.018 23.703 23.703 0 016.163 7.198 24.06 24.06 0 012.883 9.075c1.847 16.51-1.635 33.085-3.218 39.446a3.922 3.922 0 01-1.339 2.101 3.824 3.824 0 01-2.32.85l-29.523.578-.082.001z" fill="#D53656"/><path d="M150.7 221.373a8.538 8.538 0 00-.436 1.248l-36.955 12.745-7.141-6.331-10.823 9.689 11.568 12.456a6.265 6.265 0 003.508 1.913 6.215 6.215 0 003.938-.606l39.544-20.501a8.172 8.172 0 004.768 1.225 8.197 8.197 0 004.61-1.743 8.394 8.394 0 002.816-4.093 8.514 8.514 0 00.025-4.993 8.4 8.4 0 00-2.776-4.122 8.159 8.159 0 00-9.372-.613 8.34 8.34 0 00-3.274 3.726z" fill="#F7D7DD"/><path d="M112.021 236.062l-13.472 11.943c-.383.34-.834.592-1.322.739a3.499 3.499 0 01-2.92-.421 3.565 3.565 0 01-1.068-1.083l-9.636-15.23a10.079 10.079 0 01-2.365-7.24 10.036 10.036 0 013.362-6.821 9.742 9.742 0 017.126-2.421 9.785 9.785 0 016.73 3.392l13.532 11.699c.388.335.699.751.914 1.219a3.652 3.652 0 01.018 2.994c-.209.471-.516.89-.899 1.23zm-46.326 16.139l-16.649-6.639a3.525 3.525 0 01-1.255-.851 3.6 3.6 0 01-.791-1.304 3.642 3.642 0 01.27-2.98l8.883-15.695a9.919 9.919 0 015.243-5.465 9.706 9.706 0 017.514-.112 9.906 9.906 0 015.398 5.306 10.12 10.12 0 01.133 7.626l-4.001 17.578a3.622 3.622 0 01-.646 1.385c-.31.409-.704.745-1.155.986a3.504 3.504 0 01-2.944.165z" fill="#D53656"/><path d="M78.035 206.351c10.001 0 18.11-8.23 18.11-18.381s-8.109-18.38-18.11-18.38-18.11 8.229-18.11 18.38 8.109 18.381 18.11 18.381z" fill="#F7D7DD"/><path d="M102.279 181.774H73.523v-12.722c6.312-2.545 12.488-4.709 16.221 0a12.44 12.44 0 018.864 3.726 12.821 12.821 0 013.671 8.996z" fill="#424242"/><path d="M71.866 207.012c11.445 0 20.723-9.417 20.723-21.033 0-11.617-9.278-21.034-20.723-21.034-11.445 0-20.723 9.417-20.723 21.034 0 11.616 9.278 21.033 20.723 21.033z" fill="#424242"/><path d="M56.945 183.458c7.325 0 13.263-6.027 13.263-13.461 0-7.435-5.938-13.462-13.263-13.462-7.324 0-13.262 6.027-13.262 13.462 0 7.434 5.938 13.461 13.262 13.461z" fill="#424242"/></g><defs><clipPath id="clip0_34_23299"><path fill="#fff" transform="translate(.5)" d="M0 0h499v509H0z"/></clipPath></defs></svg>