<svg width="17" height="16" fill="none" xmlns="http://www.w3.org/2000/svg"><path opacity=".2" d="M8.505 10.682l-.003-.002a5.725 5.725 0 01-2.67-2.664l.45-.217-.452.215a1 1 0 01.063-.975l.002-.003h0l1.04-1.582v-.002h0L5.677 2.52h0A2.5 2.5 0 003.5 4.998l5.005 5.683zm0 0a1 1 0 00.986-.075h.001l1.56-1.043h0m-2.547 1.118l2.548-1.118m0 0l2.925 1.256h0A2.5 2.5 0 0111.5 13l-.447-3.435zm2.926 1.252h0zm-2.93-1.253s0 0 0 0h0zm.45 3.436a8 8 0 01-7.999-8l8 8z" fill="#007DB6" stroke="#007DB6"/><path d="M6.281 7.799a5.225 5.225 0 002.438 2.43.5.5 0 00.494-.037l1.562-1.043a.494.494 0 01.475-.044l2.925 1.256a.494.494 0 01.3.519 3 3 0 01-2.975 2.619 8.5 8.5 0 01-8.5-8.5 3 3 0 012.619-2.975.494.494 0 01.519.3l1.256 2.93a.5.5 0 01-.038.47L6.313 7.31a.5.5 0 00-.032.488v0z" stroke="#007DB6" stroke-linecap="round" stroke-linejoin="round"/></svg>