<svg width="32" height="32" fill="none" xmlns="http://www.w3.org/2000/svg"><path d="M13 22a4 4 0 100-8 4 4 0 000 8z" stroke="#007DB6" stroke-width="2" stroke-linecap="round" stroke-linejoin="round"/><path opacity=".2" d="M9 18a4 4 0 114 4h11V10H8v8h1z" fill="#007DB6"/><path d="M6.675 26a7 7 0 0112.65 0H27a1 1 0 001-1V7a1 1 0 00-1-1H5a1 1 0 00-1 1v18a1 1 0 001 1h1.675z" stroke="#007DB6" stroke-width="2" stroke-linecap="round" stroke-linejoin="round"/><path d="M22 22h2V10H8v2" stroke="#007DB6" stroke-width="2" stroke-linecap="round" stroke-linejoin="round"/></svg>