<svg width="20" height="20" fill="none" xmlns="http://www.w3.org/2000/svg"><path opacity=".2" d="M6.25 15.625a2.5 2.5 0 100-5 2.5 2.5 0 000 5z" fill="#4AB58E"/><path opacity=".2" d="M8.25 5a2 2 0 11-4 0 2 2 0 014 0zm7.5 8.125a2 2 0 11-4 0 2 2 0 014 0zm0-8.125a2 2 0 11-4 0 2 2 0 014 0z" fill="#4AB58E" stroke="#4AB58E"/><path d="M6.25 15.625a2.5 2.5 0 100-5 2.5 2.5 0 000 5zM2.5 17.5a4.687 4.687 0 017.5 0m-3.75-10a2.5 2.5 0 100-5 2.5 2.5 0 000 5zM2.5 9.375a4.687 4.687 0 017.5 0m3.75 6.25a2.5 2.5 0 100-5 2.5 2.5 0 000 5zM10 17.5a4.686 4.686 0 017.5 0m-3.75-10a2.5 2.5 0 100-5 2.5 2.5 0 000 5zM10 9.375a4.687 4.687 0 017.5 0" stroke="#4AB58E" stroke-linecap="round" stroke-linejoin="round"/></svg>