<svg width="75" height="57" fill="none" xmlns="http://www.w3.org/2000/svg"><g clip-path="url(#clip0_1_4225)"><path d="M62.923 56.825l-47.837.017a6.58 6.58 0 01-5.758-3.322 6.633 6.633 0 01-.902-3.324c0-1.142.3-2.283.9-3.324L33.229 3.357A6.58 6.58 0 0138.985.031a6.58 6.58 0 015.758 3.322L68.68 46.857c.6 1.038.9 2.178.9 3.319 0 1.14-.3 2.282-.9 3.323a6.58 6.58 0 01-5.757 3.326zm-53.896-6.63c0 1.04 5.278-1.2 5.825-.253 1.094 1.893-1.953 6.3.234 6.3 0 0 51.981-1.149 53.073-3.043a6.03 6.03 0 00.82-3.024 6.034 6.034 0 00-.822-3.023L44.221 3.648A5.984 5.984 0 0038.985.63C36.8.632 9.027 49.156 9.027 50.195z" fill="#fff"/><path d="M52.944 47.23c12.095 0 21.9-9.805 21.9-21.9 0-12.095-9.805-21.9-21.9-21.9-12.095 0-21.9 9.805-21.9 21.9 0 12.095 9.805 21.9 21.9 21.9z" fill="#007DB6"/><path d="M52.948 38.756a2.01 2.01 0 100-4.022 2.01 2.01 0 000 4.022zm-.008-26.854c-.185 1.228.146 1.484.147 6.776.002 5.291 1.1 12.385-.141 12.386-1.241 0-1.695-14.641-6.005-15.937-5.068-1.523 6.596-7.198 5.998-3.225zM23.551 36.511l-1.979 4.181c2.392-1.715 6.129-3.194 9.102-3.986-2.77-1.338-6.16-3.495-8.185-5.631l1.138 4.417C10.285 32.775.703 22.539.699 10.814l-.482-.166C.222 22.895 9.67 33.737 23.551 36.511z" fill="#fff"/></g><defs><clipPath id="clip0_1_4225"><path fill="#fff" d="M0 0h75v57H0z"/></clipPath></defs></svg>